<svg width="84" height="83" viewBox="0 0 84 83" fill="none" xmlns="http://www.w3.org/2000/svg">
<path d="M41 82.5806C31.7359 82.5806 24.2258 75.0706 24.2258 65.8064L24.2258 16.7742C24.2258 7.51008 31.7359 -3.28275e-07 41 -7.33223e-07V-7.33223e-07C50.2642 -1.13817e-06 57.7742 7.51006 57.7742 16.7742L57.7742 65.8064C57.7742 75.0706 50.2642 82.5806 41 82.5806V82.5806Z" fill="#138808"/>
<g filter="url(#filter0_d_54_178)">
<path d="M1 41.2903C1 32.0262 8.51006 24.5162 17.7742 24.5162L64.2258 24.5162C73.4899 24.5162 81 32.0262 81 41.2903V41.2903C81 50.5545 73.4899 58.0645 64.2258 58.0645L17.7742 58.0645C8.51006 58.0645 1 50.5545 1 41.2903V41.2903Z" fill="#FF8F1F"/>
</g>
<circle cx="13.1444" cy="37.2423" r="2.42884" fill="#FCB166"/>
<circle cx="22.0499" cy="37.2422" r="2.42884" fill="#FCB166"/>
<circle cx="17.597" cy="41.6951" r="2.02404" fill="#FCB166"/>
<circle cx="22.0499" cy="46.148" r="2.42884" fill="#FCB166"/>
<circle cx="13.1444" cy="46.148" r="2.42884" fill="#FCB166"/>
<circle cx="59.2921" cy="37.2423" r="2.42884" fill="#FCB166"/>
<circle cx="68.1979" cy="37.2422" r="2.42884" fill="#FCB166"/>
<circle cx="63.7452" cy="41.6951" r="2.02404" fill="#FCB166"/>
<circle cx="68.1979" cy="46.148" r="2.42884" fill="#FCB166"/>
<circle cx="59.2921" cy="46.148" r="2.42884" fill="#FCB166"/>
<defs>
<filter id="filter0_d_54_178" x="0" y="23.5162" width="84" height="37.5484" filterUnits="userSpaceOnUse" color-interpolation-filters="sRGB">
<feFlood flood-opacity="0" result="BackgroundImageFix"/>
<feColorMatrix in="SourceAlpha" type="matrix" values="0 0 0 0 0 0 0 0 0 0 0 0 0 0 0 0 0 0 127 0" result="hardAlpha"/>
<feOffset dx="1" dy="1"/>
<feGaussianBlur stdDeviation="1"/>
<feComposite in2="hardAlpha" operator="out"/>
<feColorMatrix type="matrix" values="0 0 0 0 0 0 0 0 0 0 0 0 0 0 0 0 0 0 0.25 0"/>
<feBlend mode="normal" in2="BackgroundImageFix" result="effect1_dropShadow_54_178"/>
<feBlend mode="normal" in="SourceGraphic" in2="effect1_dropShadow_54_178" result="shape"/>
</filter>
</defs>
</svg>
