<svg width="296" height="219" viewBox="0 0 296 219" fill="none" xmlns="http://www.w3.org/2000/svg">
<g clip-path="url(#clip0_95_679)">
<path opacity="0.1" d="M98.4078 218.877C112.823 218.877 124.508 216.916 124.508 214.498C124.508 212.08 112.823 210.12 98.4078 210.12C83.9928 210.12 72.3071 212.08 72.3071 214.498C72.3071 216.916 83.9928 218.877 98.4078 218.877Z" fill="#11A4FF"/>
<path opacity="0.1" d="M240.287 219C258.274 219 272.856 217.04 272.856 214.621C272.856 212.203 258.274 210.243 240.287 210.243C222.299 210.243 207.717 212.203 207.717 214.621C207.717 217.04 222.299 219 240.287 219Z" fill="#11A4FF"/>
<path opacity="0.1" d="M3.7073 94.6238H30.8928V133.327H5.69753C5.63056 133.724 5.56628 134.124 5.49663 134.524H30.8928V165.737C30.8472 165.723 30.8071 165.706 30.7642 165.69C30.0463 165.393 29.3338 165.08 28.6213 164.744L28.1659 164.528C27.4516 164.176 26.7373 163.803 26.023 163.409C25.7739 163.272 25.5248 163.129 25.2784 162.984C21.3129 160.664 17.7104 157.724 14.596 154.266C14.5049 154.174 14.4192 154.076 14.3281 153.986C13.8942 153.494 13.4683 152.996 13.0557 152.486L12.6004 151.927C12.1129 151.303 11.6414 150.662 11.1834 150.013C11.1164 149.918 11.0521 149.823 10.9825 149.733C9.11961 147.035 7.57284 144.114 6.37522 141.032C6.33772 140.94 6.30558 140.839 6.27076 140.752C5.90289 139.764 5.57699 138.766 5.29306 137.758C5.16984 137.336 5.05198 136.919 4.95019 136.48C4.91269 136.351 4.88054 136.225 4.85108 136.099C3.32961 129.896 3.15015 123.453 3.15015 117.054C3.15015 116.307 3.15015 115.557 3.15015 114.816C3.15015 112.228 3.17961 109.623 3.22247 107.021C3.22247 106.347 3.24926 105.675 3.26265 104.998C3.30015 103.28 3.35372 101.562 3.42337 99.8446C3.43944 99.3662 3.46087 98.8905 3.48498 98.4149C3.48498 98.1407 3.49837 97.8665 3.52516 97.5923C3.58944 96.5963 3.64302 95.6086 3.7073 94.6238Z" fill="#11A4FF"/>
<path opacity="0.1" d="M30.8927 51.531H15.9807C18.4047 47.5681 21.0533 43.7599 23.9122 40.127C26.1274 37.2843 28.4658 34.5144 30.8927 31.8453V51.531Z" fill="#11A4FF"/>
<path opacity="0.1" d="M30.8927 52.7285V93.4262H3.79297C3.79297 93.3087 3.81172 93.1884 3.81975 93.0709C3.84386 92.7492 3.86797 92.4274 3.89476 92.1085C3.92422 91.7335 3.95636 91.3558 3.99119 90.9893C4.02601 90.6228 4.06351 90.1751 4.10369 89.7694C4.14387 89.3638 4.18137 88.9525 4.22691 88.5468C4.27244 88.1411 4.31262 87.7354 4.36084 87.3325C4.40905 86.9296 4.45191 86.5211 4.50281 86.1182C4.54299 85.7825 4.58584 85.4495 4.6287 85.1138C4.69031 84.641 4.7546 84.1653 4.82424 83.6953C4.82424 83.6253 4.84299 83.5526 4.85371 83.4854C5.34261 80.0445 6.00877 76.6336 6.84929 73.2676C7.72911 69.7367 8.85262 66.2769 10.211 62.9155C11.6547 59.3991 13.345 55.9989 15.2682 52.7425L30.8927 52.7285Z" fill="#11A4FF"/>
<path opacity="0.1" d="M37.3831 94.621V133.327H95.4478V94.621H37.3831ZM37.3831 134.521V167.76C37.7152 167.833 38.0447 167.903 38.3715 167.961C38.8161 168.051 39.2581 168.132 39.7108 168.202C39.7965 168.216 39.8849 168.23 39.9787 168.238C40.1554 168.269 40.3376 168.294 40.5144 168.32C40.9617 168.384 41.4064 168.437 41.8537 168.479C42.0653 168.501 42.2796 168.521 42.4939 168.538L43.0109 168.58C43.2921 168.602 43.5707 168.619 43.8466 168.627C44.018 168.627 44.1895 168.644 44.3663 168.65C44.5002 168.65 44.6341 168.65 44.7734 168.65C44.9127 168.65 45.1109 168.65 45.2797 168.65C45.51 168.65 45.7404 168.65 45.9681 168.65H46.2761C46.5065 168.65 46.7369 168.65 46.9645 168.627H46.9806C47.1386 168.627 47.2994 168.627 47.4601 168.605C47.5047 168.608 47.5494 168.608 47.594 168.605C47.7279 168.605 47.8619 168.605 47.9905 168.585H48.0842L48.9816 168.513C49.2762 168.485 49.5735 168.448 49.8735 168.415L50.4843 168.339C52.9689 167.975 55.4259 167.43 57.8371 166.705C63.2533 165.127 68.5517 162.92 73.9652 161.303C80.9645 159.218 88.6977 158.194 95.4612 160.743V134.521H37.3831ZM95.4478 51.5311V0.0028666C89.0907 -0.0690731 82.7509 0.707559 76.5822 2.3139C61.8792 6.17216 48.6869 14.5406 37.3831 25.2284V51.5283H40.2974V52.723H37.3831V93.4263H95.4478V52.7258H52.2629V51.5311H95.4478ZM170.029 34.1256C166.392 33.9913 162.775 32.7882 159.505 30.9305C153.25 27.3772 148.254 21.8906 142.672 17.2601C131.074 7.61585 116.689 1.7963 101.933 0.3526V51.5311H184.823L185.029 51.3045L170.029 34.1256ZM177.58 32.7267L185.587 41.9037V30.3205C182.905 30.6675 180.556 31.4928 177.591 32.7155L177.58 32.7267ZM185.587 176.014V134.521H168.526C168.481 134.345 168.435 134.166 168.382 133.987C168.433 134.166 168.475 134.345 168.524 134.521H101.944V164.528C102.576 165.018 103.2 165.533 103.819 166.056C104.486 166.616 105.145 167.206 105.806 167.785L106.473 168.362C106.792 168.641 107.113 168.921 107.437 169.184C108.08 169.729 108.729 170.266 109.385 170.796C109.709 171.075 110.041 171.327 110.371 171.59C115.601 175.767 121.119 179.537 126.879 182.868C128.17 183.615 129.473 184.343 130.787 185.054C131.663 185.521 132.544 185.985 133.428 186.436C134.757 187.113 136.096 187.766 137.446 188.394C149.893 194.23 163.054 198.235 176.554 200.294C179.553 200.756 182.562 201.12 185.584 201.385V176.011H185.852L185.587 176.014ZM101.944 52.7258V93.4263H185.597V52.7258H101.944ZM101.944 94.621V133.327H185.597V94.621H101.944ZM192.09 30.2702V43.1907L202.309 31.4788C198.924 30.9081 195.517 30.5005 192.09 30.2562V30.2702ZM192.09 94.635V133.327H273.454V94.621L192.09 94.635ZM273.157 179.086L273.443 134.521H192.09V201.83C197.331 202.06 202.58 201.994 207.814 201.634H207.905C210.405 201.47 212.894 201.231 215.37 200.917H215.427C228.64 199.311 241.561 195.71 253.785 190.227M289.143 100.995C288.837 100.242 288.519 99.4949 288.194 98.7563C287.589 97.3573 286.949 95.9976 286.29 94.6378H279.942V133.327H295.992C295.984 122.37 293.329 111.179 289.151 100.981L289.143 100.995ZM279.942 134.535V172.866C284.463 168.339 288.283 163.16 291.034 157.24C294.342 150.111 295.855 142.392 295.979 134.53L279.942 134.535ZM279.942 83.3568V93.4291H285.695C283.955 89.9618 282.037 86.5948 279.95 83.3428L279.942 83.3568ZM224.762 37.8636C224.338 37.6957 223.915 37.525 223.489 37.3599C218.997 35.6273 214.407 34.1865 209.745 33.0456L194.107 50.9715L193.807 51.3045L194.008 51.5339H249.665C241.914 45.9607 233.557 41.3672 224.77 37.8496L224.762 37.8636ZM251.296 52.7398H193.231L192.09 53.831V93.4263H202.092H202.108H273.465V74.247C267.01 66.0928 259.559 58.8575 251.304 52.7258L251.296 52.7398Z" fill="#11A4FF"/>
<path opacity="0.1" d="M30.8927 73.2565V93.4263H3.79297C3.79297 93.3088 3.81172 93.1885 3.81975 93.0709C3.84386 92.7492 3.86797 92.4274 3.89476 92.1085C3.92422 91.7336 3.95636 91.3559 3.99119 90.9893C4.02601 90.6228 4.06351 90.1752 4.10369 89.7695C4.14387 89.3638 4.18137 88.9525 4.22691 88.5468C4.27244 88.1411 4.31262 87.7354 4.36084 87.3325C4.40905 86.9296 4.45191 86.5211 4.50281 86.1182C4.54299 85.7825 4.58584 85.4496 4.6287 85.1138C4.69031 84.641 4.7546 84.1653 4.82424 83.6953C4.82424 83.6254 4.84299 83.5526 4.85371 83.4855C5.34261 80.0445 6.00877 76.6337 6.84929 73.2677L30.8927 73.2565Z" fill="#11A4FF"/>
<path opacity="0.1" d="M3.7073 94.6238H30.8928V133.327H5.69753C5.63056 133.724 5.56628 134.124 5.49663 134.524H30.8928V165.737C30.8472 165.723 30.8071 165.706 30.7642 165.69C30.0463 165.393 29.3338 165.08 28.6213 164.744L28.1659 164.528C27.4516 164.176 26.7373 163.803 26.023 163.409C25.7739 163.272 25.5248 163.129 25.2784 162.984C21.3129 160.664 17.7104 157.724 14.596 154.266C14.5049 154.174 14.4192 154.076 14.3281 153.986C13.8942 153.494 13.4683 152.996 13.0557 152.486L12.6004 151.927C12.1129 151.303 11.6414 150.662 11.1834 150.013C11.1164 149.918 11.0521 149.823 10.9825 149.733C9.11961 147.035 7.57284 144.114 6.37522 141.032C6.33772 140.94 6.30558 140.839 6.27076 140.752C5.90289 139.764 5.57699 138.766 5.29306 137.758C5.16984 137.336 5.05198 136.919 4.95019 136.48C4.91269 136.351 4.88054 136.225 4.85108 136.099C3.32961 129.896 3.15015 123.453 3.15015 117.054C3.15015 116.307 3.15015 115.557 3.15015 114.816C3.15015 112.228 3.17961 109.623 3.22247 107.021C3.22247 106.347 3.24926 105.675 3.26265 104.998C3.30015 103.28 3.35372 101.562 3.42337 99.8446C3.43944 99.3662 3.46087 98.8905 3.48498 98.4149C3.48498 98.1407 3.49837 97.8665 3.52516 97.5923C3.58944 96.5963 3.64302 95.6086 3.7073 94.6238Z" fill="#11A4FF"/>
<path opacity="0.1" d="M57.8237 58.5537V93.4263H37.3831V58.5537H40.2974V46.7467H52.2602V58.5537H57.8237Z" fill="#11A4FF"/>
<path opacity="0.1" d="M57.8237 94.621H37.3857V133.324H57.8237V94.621Z" fill="#11A4FF"/>
<path opacity="0.1" d="M37.3831 134.524H57.8237V166.7C55.4125 167.423 52.9555 167.968 50.4709 168.331L49.8601 168.409C49.5601 168.445 49.2628 168.476 48.9682 168.507C48.6735 168.538 48.3681 168.56 48.0708 168.58H47.9771C47.8485 168.58 47.7092 168.596 47.5833 168.599H47.4467C47.286 168.599 47.1253 168.616 46.9645 168.622C46.7369 168.636 46.5092 168.638 46.2761 168.641C46.177 168.641 46.0833 168.641 45.9842 168.641C45.7538 168.641 45.5261 168.641 45.2957 168.641H44.7895C44.6529 168.641 44.5216 168.641 44.3797 168.641L43.8627 168.622C43.5948 168.622 43.3055 168.591 43.0269 168.571L42.5126 168.532L41.8724 168.471C41.4224 168.429 40.9751 168.375 40.5331 168.311L39.9974 168.233L39.7295 168.194C39.2822 168.121 38.8402 168.043 38.3902 167.953C38.0608 167.894 37.734 167.821 37.4018 167.752L37.3831 134.524Z" fill="#11A4FF"/>
<path opacity="0.1" d="M185.597 54.4352H168.743V93.4235H185.597V54.4352Z" fill="#11A4FF"/>
<path opacity="0.1" d="M185.6 94.621V133.327H101.943V116.632H146.502V126.48H168.743V94.621H185.6Z" fill="#11A4FF"/>
<path opacity="0.1" d="M185.865 176.022H185.597V201.413C182.579 201.146 179.57 200.783 176.57 200.324C163.063 198.259 149.897 194.246 137.446 188.4C133.851 186.71 130.33 184.865 126.881 182.866C121.121 179.532 115.603 175.763 110.37 171.587C109.056 170.535 107.759 169.459 106.478 168.359C105.592 167.595 104.71 166.811 103.818 166.05C103.2 165.527 102.576 165.012 101.943 164.52V134.524H168.521C168.475 134.345 168.43 134.166 168.382 133.99C168.432 134.166 168.481 134.345 168.526 134.524H185.597V176.005C185.688 176.008 185.777 176.016 185.865 176.022Z" fill="#11A4FF"/>
<path opacity="0.1" d="M229.554 51.5311H218.571V47.9666H223.495V37.3487C223.921 37.511 224.346 37.6779 224.77 37.8495V47.9666H229.554V51.5311Z" fill="#11A4FF"/>
<path opacity="0.1" d="M256.013 93.4262H202.098C202.098 93.4262 202.098 93.4262 202.116 93.4402L202.092 93.4262H192.09V54.438H194.924V83.256H207.876V66.189H218.574V52.7285H229.556V66.2002H240.255V83.2672H256.013V93.4262Z" fill="#11A4FF"/>
<path opacity="0.1" d="M192.09 94.621V133.327H256.013V94.621H192.09ZM273.366 178.887L273.454 148.25H256.013V134.541H192.09V201.83C197.331 202.059 202.58 201.994 207.814 201.634H207.905C210.405 201.47 212.894 201.231 215.37 200.917H215.427C228.64 199.311 241.561 195.71 253.785 190.227" fill="#11A4FF"/>
<path opacity="0.1" d="M281.077 134.524H295.989C295.858 142.383 294.347 150.103 291.042 157.232C288.291 163.155 284.468 168.333 279.952 172.858V148.236H281.077V134.524Z" fill="#11A4FF"/>
<path opacity="0.1" d="M295.997 133.327H281.077V100.981H289.151C293.329 111.179 295.984 122.37 295.997 133.327Z" fill="#11A4FF"/>
<path opacity="0.1" d="M185.6 65.2742H176.57V77.498H185.6V65.2742Z" fill="#11A4FF"/>
<path opacity="0.1" d="M185.6 90.6116H176.57V93.4263H185.6V90.6116Z" fill="#11A4FF"/>
<path opacity="0.1" d="M185.6 94.621H176.57V102.833H185.6V94.621Z" fill="#11A4FF"/>
<path opacity="0.1" d="M185.6 115.949H176.57V128.173H185.6V115.949Z" fill="#11A4FF"/>
<path opacity="0.1" d="M185.6 141.286H176.57V153.51H185.6V141.286Z" fill="#11A4FF"/>
<path opacity="0.1" d="M185.597 176.005C185.688 176.005 185.777 176.005 185.865 176.022H185.597V178.862H176.57V166.624H185.597V176.005Z" fill="#11A4FF"/>
<path opacity="0.1" d="M185.597 191.956V201.399C182.579 201.132 179.57 200.769 176.57 200.31V191.956H185.597Z" fill="#11A4FF"/>
<path opacity="0.1" d="M140.642 132.428H101.943V133.327H140.642V132.428Z" fill="#11A4FF"/>
<path opacity="0.1" d="M140.642 134.521H101.943V137.963H140.642V134.521Z" fill="#11A4FF"/>
<path opacity="0.1" d="M140.642 149.244H101.943V154.778H140.642V149.244Z" fill="#11A4FF"/>
<path opacity="0.1" d="M140.639 166.059V171.593H110.371C109.056 170.545 107.758 169.468 106.476 168.364C105.589 167.6 104.711 166.817 103.816 166.059H140.639Z" fill="#11A4FF"/>
<path opacity="0.1" d="M140.639 182.871V188.4H137.444C133.853 186.708 130.332 184.862 126.882 182.863L140.639 182.871Z" fill="#11A4FF"/>
<path opacity="0.1" d="M215.434 98.3729H207.816V106.33H215.434V98.3729Z" fill="#11A4FF"/>
<path opacity="0.1" d="M50.4896 61.2984H42.8716V69.2555H50.4896V61.2984Z" fill="#11A4FF"/>
<path opacity="0.1" d="M50.4896 79.7811H42.8716V87.7382H50.4896V79.7811Z" fill="#11A4FF"/>
<path opacity="0.1" d="M50.4896 98.2638H42.8716V106.221H50.4896V98.2638Z" fill="#11A4FF"/>
<path opacity="0.1" d="M50.4896 116.744H42.8716V124.701H50.4896V116.744Z" fill="#11A4FF"/>
<path opacity="0.1" d="M50.4896 135.226H42.8716V143.184H50.4896V135.226Z" fill="#11A4FF"/>
<path opacity="0.1" d="M50.4896 153.709H42.8716V161.666H50.4896V153.709Z" fill="#11A4FF"/>
<path opacity="0.1" d="M244.516 98.3729H236.898V106.33H244.516V98.3729Z" fill="#11A4FF"/>
<path opacity="0.1" d="M215.434 118H207.816V125.957H215.434V118Z" fill="#11A4FF"/>
<path opacity="0.1" d="M244.516 118H236.898V125.957H244.516V118Z" fill="#11A4FF"/>
<path opacity="0.1" d="M215.434 137.624H207.816V145.581H215.434V137.624Z" fill="#11A4FF"/>
<path opacity="0.1" d="M244.516 137.624H236.898V145.581H244.516V137.624Z" fill="#11A4FF"/>
<path opacity="0.1" d="M215.434 157.251H207.816V165.208H215.434V157.251Z" fill="#11A4FF"/>
<path opacity="0.1" d="M244.516 157.251H236.898V165.208H244.516V157.251Z" fill="#11A4FF"/>
<path opacity="0.1" d="M215.434 176.878H207.816V184.835H215.434V176.878Z" fill="#11A4FF"/>
<path opacity="0.1" d="M244.516 176.878H236.898V184.835H244.516V176.878Z" fill="#11A4FF"/>
<path opacity="0.1" d="M207.816 201.634V196.502H215.432V200.903L207.816 201.634Z" fill="#11A4FF"/>
<path opacity="0.1" d="M4.82153 83.4799V88.032H30.8927V83.4799H4.82153ZM7.41981 87.7466H5.29297V83.7596H7.43588L7.41981 87.7466ZM10.0154 87.7466H7.8725V83.7596H10.0154V87.7466ZM12.6057 87.7466H10.4627V83.7596H12.6057V87.7466ZM15.2012 87.7466H13.061V83.7596H15.2039L15.2012 87.7466ZM17.7942 87.7466H15.6513V83.7596H17.7942V87.7466ZM20.3898 87.7466H18.2469V83.7596H20.3898V87.7466ZM22.9854 87.7466H20.8425V83.7596H22.9854V87.7466ZM25.5783 87.7466H23.4354V83.7596H25.5783V87.7466ZM28.1712 87.7466H26.0283V83.7596H28.1712V87.7466ZM30.7641 87.7466H28.6212V83.7596H30.7641V87.7466Z" fill="#11A4FF"/>
<path opacity="0.1" d="M4.82153 96.725V101.277H30.8927V96.725H4.82153ZM7.41981 100.989H5.29297V97.0132H7.43588L7.41981 100.989ZM10.0154 100.989H7.8725V97.0132H10.0154V100.989ZM12.6057 100.989H10.4627V97.0132H12.6057V100.989ZM15.2012 100.989H13.061V97.0132H15.2039L15.2012 100.989ZM17.7942 100.989H15.6513V97.0132H17.7942V100.989ZM20.3898 100.989H18.2469V97.0132H20.3898V100.989ZM22.9854 100.989H20.8425V97.0132H22.9854V100.989ZM25.5783 100.989H23.4354V97.0132H25.5783V100.989ZM28.1712 100.989H26.0283V97.0132H28.1712V100.989ZM30.7641 100.989H28.6212V97.0132H30.7641V100.989Z" fill="#11A4FF"/>
<path opacity="0.1" d="M4.82153 109.976V114.536H30.8927V109.976H4.82153ZM7.41981 114.24H5.29297V110.261H7.43588L7.41981 114.24ZM10.0154 114.24H7.8725V110.261H10.0154V114.24ZM12.6057 114.24H10.4627V110.261H12.6057V114.24ZM15.2012 114.24H13.061V110.261H15.2039L15.2012 114.24ZM17.7942 114.24H15.6513V110.261H17.7942V114.24ZM20.3898 114.24H18.2469V110.261H20.3898V114.24ZM22.9854 114.24H20.8425V110.261H22.9854V114.24ZM25.5783 114.24H23.4354V110.261H25.5783V114.24ZM28.1712 114.24H26.0283V110.261H28.1712V114.24ZM30.7641 114.24H28.6212V110.261H30.7641V114.24Z" fill="#11A4FF"/>
<path opacity="0.1" d="M4.82153 123.226V127.773H30.8927V123.226H4.82153ZM7.41981 127.49H5.29297V123.509H7.43588L7.41981 127.49ZM10.0154 127.49H7.8725V123.509H10.0154V127.49ZM12.6057 127.49H10.4627V123.509H12.6057V127.49ZM15.2012 127.49H13.061V123.509H15.2039L15.2012 127.49ZM17.7942 127.49H15.6513V123.509H17.7942V127.49ZM20.3898 127.49H18.2469V123.509H20.3898V127.49ZM22.9854 127.49H20.8425V123.509H22.9854V127.49ZM25.5783 127.49H23.4354V123.509H25.5783V127.49ZM28.1712 127.49H26.0283V123.509H28.1712V127.49ZM30.7641 127.49H28.6212V123.509H30.7641V127.49Z" fill="#11A4FF"/>
<path opacity="0.1" d="M4.93408 136.474C5.03855 136.902 5.15641 137.33 5.27962 137.753V136.76H7.42253V140.738H6.27608C6.3109 140.83 6.34572 140.931 6.38054 141.018H30.8927V136.474H4.93408ZM10.0235 140.738H7.88058V136.76H10.0235V140.738ZM12.6137 140.738H10.4708V136.76H12.6137V140.738ZM15.2093 140.738H13.0611V136.76H15.204L15.2093 140.738ZM17.8022 140.738H15.6593V136.76H17.8022V140.738ZM20.3978 140.738H18.2549V136.76H20.3978V140.738ZM22.9934 140.738H20.8505V136.76H22.9934V140.738ZM25.5864 140.738H23.4435V136.76H25.5864V140.738ZM28.1793 140.738H26.0364V136.76H28.1793V140.738ZM30.7722 140.738H28.6293V136.76H30.7722V140.738Z" fill="#11A4FF"/>
<path opacity="0.1" d="M10.9878 149.725C11.0548 149.814 11.119 149.915 11.1887 150.005H12.6057V151.916C12.7584 152.106 12.9084 152.296 13.0637 152.475V149.993H15.2066V153.986H14.3388C14.4245 154.078 14.5075 154.176 14.6066 154.266H30.9008V149.725H10.9878ZM17.7942 153.986H15.6513V150.01H17.7942V153.986ZM20.3898 153.986H18.2469V150.01H20.3898V153.986ZM22.9854 153.986H20.8425V150.01H22.9854V153.986ZM25.5783 153.986H23.4354V150.01H25.5783V153.986ZM28.1712 153.986H26.0283V150.01H28.1712V153.986ZM30.7642 153.986H28.6213V150.01H30.7642V153.986Z" fill="#11A4FF"/>
<path opacity="0.1" d="M25.2891 162.973C25.5328 163.118 25.7819 163.253 26.0337 163.398V163.258H28.1766V164.517L28.632 164.738V163.258H30.7749V165.678C30.816 165.7 30.8591 165.717 30.9035 165.729V162.973H25.2891Z" fill="#11A4FF"/>
<path opacity="0.1" d="M202.098 93.4263H202.114H202.098ZM185.597 176.002H185.865H185.597ZM168.382 133.987C168.433 134.166 168.475 134.345 168.524 134.521C168.481 134.345 168.435 134.166 168.382 133.987ZM202.098 93.4179H202.114H202.098ZM40.3081 51.5226V52.7173H52.2736V51.5226H40.3081ZM185.597 176.002H185.865H185.597ZM168.382 133.987C168.433 134.166 168.475 134.345 168.524 134.521C168.481 134.345 168.435 134.166 168.382 133.987ZM202.098 93.4179H202.114H202.098ZM185.597 175.994H185.865H185.597ZM168.382 133.987C168.433 134.166 168.475 134.345 168.524 134.521C168.481 134.345 168.435 134.166 168.382 133.987Z" fill="#11A4FF"/>
<path d="M123.646 106.227C123.646 106.227 122.59 106.073 122.59 104.467C122.59 102.861 121.835 99.8614 121.835 99.8614C121.835 99.8474 121.181 94.6378 120.279 93.8096C119.376 92.9814 118.216 88.1187 118.216 88.1187C118.216 88.1187 118.018 85.4804 117.613 84.9124C117.209 84.3444 116.662 82.9539 115.856 80.9702C115.05 78.9865 111.688 77.6128 111.688 77.6128C111.688 77.6128 105.61 73.9308 103.888 72.7305C103.731 72.6319 103.585 72.5165 103.451 72.3864C103.151 71.9751 101.844 71.9667 101.844 71.9667C101.708 71.0658 101.576 70.0306 101.533 69.0933C101.533 68.9925 101.533 68.8918 101.52 68.7911C103.441 67.6053 104.887 65.7357 105.594 63.5255C105.626 63.4192 105.653 63.3073 105.683 63.201C105.798 63.1614 105.904 63.0971 105.994 63.0123C106.084 62.9275 106.156 62.8241 106.205 62.7085C106.36 62.3476 106.363 61.9251 106.556 61.5894C106.781 61.1921 107.21 60.9795 107.547 60.6801C108.399 59.9247 108.618 58.6516 108.578 57.4933C108.552 56.556 108.407 55.6104 108.463 54.6787L108.479 54.4437C108.495 54.3038 108.514 54.1639 108.538 54.0296C108.669 53.3357 108.956 52.681 109.117 51.9927C109.277 51.3045 109.293 50.5294 108.918 49.9363C108.369 49.0662 107.226 48.8927 106.221 48.8032C105.083 48.7024 104.065 48.8339 103.336 47.8463C102.995 47.3301 102.612 46.8461 102.19 46.3998C102.04 46.2543 100.583 45.3254 100.583 45.2639C99.1604 44.5758 97.5483 44.4467 96.0423 44.9001C95.2869 45.1296 94.5744 45.5045 93.8083 45.6919C92.1556 46.1004 90.2537 45.6584 88.8501 46.646C88.068 47.2056 87.5992 48.0953 87.1599 48.9626C86.8028 49.677 86.4403 50.3905 86.0724 51.103C85.4804 52.2753 84.8777 53.4672 84.6286 54.7654C84.5762 55.0479 84.544 55.3341 84.5322 55.6216V55.6355C84.5322 55.7391 84.5322 55.8426 84.5322 55.9461V56.0776C84.5322 56.1755 84.5322 56.2707 84.5482 56.3574C84.5643 56.4441 84.5616 56.4721 84.5697 56.5309C84.5777 56.5896 84.5911 56.7211 84.6072 56.8106C84.6232 56.9002 84.6554 57.0569 84.6875 57.18C84.7009 57.2331 84.7197 57.2835 84.7357 57.3338C84.7625 57.429 84.7947 57.5213 84.8295 57.6136C84.8483 57.6612 84.867 57.7116 84.8884 57.7591C84.9286 57.8571 84.9768 57.9522 85.025 58.0389C85.0465 58.0781 85.0625 58.1145 85.084 58.1508C85.1587 58.2809 85.241 58.4061 85.3304 58.5257C85.9036 59.2728 86.7474 59.7484 87.3715 60.4479C87.3715 60.4758 87.3715 60.5038 87.3715 60.529C87.3715 60.6073 87.3715 60.6829 87.3715 60.7612C87.4046 62.3212 87.8022 63.8491 88.5295 65.212C89.2568 66.5749 90.292 67.7315 91.5448 68.5813C91.5448 68.6876 91.5582 68.7967 91.5636 68.903C91.6158 69.7335 91.606 70.567 91.5341 71.3959C91.4251 71.2617 91.2885 71.1548 91.1346 71.0832C90.9807 71.0115 90.8133 70.9769 90.6448 70.9818C90.5297 70.976 90.4144 70.9863 90.302 71.0126L90.2778 70.993V71.0182C89.6885 71.1693 88.9626 71.81 88.2689 73.6314C88.2689 73.6314 86.1581 76.1159 84.5509 76.0124C82.9437 75.9089 78.8749 78.5976 78.8749 78.5976C78.8749 78.5976 74.9052 81.2892 74.0534 84.0311C73.5772 85.5859 73.0064 87.1073 72.3444 88.586L67.4371 99.1479L66.5317 107.528C66.5317 107.528 67.0326 111.254 66.9335 111.822C66.8344 112.39 68.9934 117.513 68.9934 117.513C68.9934 117.513 76.1266 130.604 79.041 131.276L79.2499 131.122C79.3746 131.19 79.5068 131.242 79.6437 131.276L80.2437 130.834C80.2797 131.326 80.2644 131.822 80.1981 132.311C79.7963 133.604 80.3481 142.039 81.0499 143.693C81.7518 145.346 81.5026 167.027 81.5026 167.027L81.4035 168.941C81.4035 168.941 81.4035 169.002 81.4276 169.109L81.4035 169.562L81.4759 169.601C81.551 170.208 81.5265 170.824 81.4035 171.422C81.1517 172.262 81.0499 174.634 81.0499 174.634C81.0499 174.634 79.0436 188.03 79.9946 190.722C80.9455 193.414 81.7544 196.363 81.7544 196.363C81.7544 196.363 82.7589 199.72 81.8026 200.294C80.8464 200.867 78.1276 201.83 78.6874 203.228C79.1963 204.521 81.1276 207.985 81.4142 208.491L81.3901 208.757L80.9964 213.214C81.0601 213.803 81.2129 214.377 81.4491 214.915C81.8803 215.886 82.7187 216.893 84.3125 216.784C84.5804 216.765 84.8911 216.731 85.1911 216.689C88.1082 216.281 91.7002 214.921 91.7002 214.921C91.5137 214.797 91.3427 214.649 91.1913 214.481C91.0479 214.336 90.9343 214.162 90.8574 213.97C90.7805 213.778 90.7419 213.571 90.7439 213.362C90.7868 212.551 89.3323 208.684 88.9707 207.733C88.9144 207.596 88.885 207.518 88.885 207.518C88.885 207.518 92.2011 203.897 91.6493 200.688C91.6493 200.688 87.9796 198.45 89.1876 197.221C90.3957 195.993 92.5547 192.465 92.5547 192.465C92.5547 192.465 92.6538 179.273 92.5547 177.303C92.4513 175.936 92.5134 174.561 92.7395 173.21C92.7797 173.006 92.8279 172.807 92.8788 172.611C94.5495 172.872 96.2361 173.006 97.9254 173.012C98.5414 173.012 99.1682 173.012 99.8004 172.972C99.8004 173.159 99.8084 173.36 99.8245 173.577C99.9638 176.845 100.224 182.575 100.435 184.704C100.735 187.756 102.393 195.982 102.393 195.982C102.393 195.982 99.2298 198.103 102.945 203.329C102.945 203.329 102.945 205.223 102.699 205.498C102.436 206.394 102.224 207.306 102.064 208.228C101.908 209.213 101.844 210.209 102.096 210.727C102.699 211.963 106.315 211.863 106.315 211.863L106.403 211.846C107.086 211.772 107.776 211.841 108.433 212.048C109.09 212.255 109.701 212.596 110.231 213.052C111.605 214.204 116.82 213.698 119.644 213.332C120.75 213.186 121.489 213.052 121.489 213.052C121.525 212.921 121.538 212.784 121.527 212.649C121.497 211.924 120.954 210.335 117.268 208.917C117.268 208.917 113.802 206.482 113.85 204.362H113.778H113.376C113.668 204.345 113.855 204.362 113.855 204.362C113.855 204.362 112.497 199.186 113.052 198.766C113.606 198.346 111.945 192.611 111.945 192.611C111.945 192.611 110.994 182.986 110.944 182.312C110.946 181.733 111.03 181.158 111.193 180.605L110.944 175.328C110.944 175.328 110.895 173.574 110.944 173.003C110.935 172.508 110.897 172.013 110.828 171.523C110.804 171.327 110.78 171.123 110.753 170.922C112.052 170.577 112.896 170.258 112.896 170.258L112.746 151.89C113.85 149.652 114.053 144.742 114.048 141.259C114.048 139.02 113.952 137.364 113.952 137.364L115.46 134.793C115.46 134.793 115.808 131.715 115.256 131.041C115.012 130.736 115.122 130.42 115.323 130.159C115.427 130.073 115.538 129.994 115.653 129.924C115.653 129.924 115.636 129.899 115.618 129.863C115.723 129.771 115.835 129.688 115.953 129.614C115.953 129.614 115.417 128.747 115.896 128.38C116.346 128.699 116.748 128.94 117.053 129.135C117.032 129.34 117.011 129.457 117.011 129.457L117.139 129.177C117.434 129.351 117.613 129.457 117.613 129.457C117.613 129.457 119.976 124.541 119.925 123.817C119.874 123.092 121.532 120.04 121.532 120.04C121.532 120.04 121.733 118.436 122.638 117.765C123.544 117.093 123.34 112.228 123.34 112.228C123.34 112.228 123.592 109.693 124.195 108.658C124.797 107.623 123.646 106.227 123.646 106.227ZM78.441 104.069L78.4865 105.242C78.2186 104.791 78.0258 104.467 78.0258 104.467L78.441 104.069Z" fill="url(#paint0_linear_95_679)"/>
<path d="M117.742 127.334L117.163 129.908C117.163 129.908 112.529 127.437 111.694 124.298C110.858 121.159 113.092 119.967 113.092 119.967L117.41 121.878L117.742 127.334Z" fill="white"/>
<path opacity="0.1" d="M117.742 127.334L117.163 129.908C117.163 129.908 112.529 127.437 111.694 124.298C110.858 121.159 113.092 119.967 113.092 119.967L117.41 121.878L117.742 127.334Z" fill="black"/>
<path d="M91.7352 214.937C91.7352 214.937 87.4493 216.583 84.5028 216.79C82.9385 216.899 82.1162 215.897 81.6929 214.932C81.4617 214.395 81.3126 213.824 81.251 213.239L81.634 208.805L81.8376 206.443L88.0976 204.745L88.9842 207.576L89.0672 207.792C89.4235 208.737 90.8512 212.584 90.8083 213.387C90.8066 213.593 90.8446 213.797 90.9201 213.987C90.9956 214.177 91.107 214.349 91.2476 214.493C91.3914 214.662 91.5552 214.811 91.7352 214.937Z" fill="white"/>
<path d="M121.01 212.682C121.021 212.817 121.008 212.953 120.973 213.083C120.973 213.083 111.806 214.68 109.931 213.083C109.403 212.616 108.787 212.27 108.122 212.066C107.458 211.863 106.76 211.807 106.074 211.902C106.074 211.902 102.528 212.003 101.936 210.783C101.689 210.271 101.754 209.277 101.906 208.298C102.062 207.381 102.269 206.473 102.528 205.581L102.67 205.464L103.513 204.756L113.392 204.451H113.467C113.419 206.561 116.821 208.981 116.821 208.981C120.434 210.38 120.967 211.961 121.01 212.682Z" fill="white"/>
<path opacity="0.1" d="M121.01 212.682C121.02 212.817 121.006 212.953 120.97 213.082C120.97 213.082 111.807 214.68 109.931 213.082C109.403 212.616 108.787 212.27 108.124 212.067C107.46 211.864 106.763 211.807 106.077 211.902C106.077 211.902 102.528 212.003 101.938 210.783C101.692 210.268 101.754 209.277 101.906 208.298C103.272 208.441 105.429 208.796 106.275 209.644C107.556 210.934 109.725 212.221 111.056 212.321C112.098 212.391 118.332 212.598 121.01 212.682Z" fill="black"/>
<path opacity="0.1" d="M91.7353 214.937C91.7353 214.937 87.4495 216.583 84.503 216.79C82.9387 216.899 82.1163 215.897 81.6958 214.929C82.786 215.312 84.2994 215.715 85.095 215.346C86.0379 214.909 89.3808 214.627 91.2559 214.507C91.3986 214.67 91.5595 214.814 91.7353 214.937Z" fill="black"/>
<path d="M98.0942 82.3607C94.5584 80.9254 90.0101 76.183 91.1458 73.9671C91.3981 73.408 91.548 72.8044 91.5878 72.1877C91.6609 71.3505 91.6716 70.5086 91.6199 69.6696C91.5403 68.2956 91.382 66.9278 91.1458 65.5735C91.1458 65.5735 102.184 65.8337 101.542 67.5321C101.354 68.0301 101.325 68.8946 101.376 69.8627C101.426 70.8307 101.56 71.9247 101.7 72.8508C101.892 74.121 102.085 75.0891 102.085 75.0891C102.085 75.0891 101.41 76.0767 101.014 76.1299C100.617 76.1831 103.168 84.406 98.0942 82.3607Z" fill="#CF6F80"/>
<path opacity="0.1" d="M89.0592 207.792L88.9762 207.887C85.6761 203.718 81.6849 208.914 81.6849 208.914L81.626 208.805L81.8296 206.443L88.0895 204.745L88.9762 207.576L89.0592 207.792Z" fill="black"/>
<path opacity="0.1" d="M113.469 204.745C113.469 204.745 111.059 204.692 109.773 205.878C108.487 207.064 102.273 206.135 102.541 205.878C102.62 205.75 102.668 205.604 102.68 205.453L103.524 204.745L113.403 204.44C113.44 204.627 113.469 204.745 113.469 204.745Z" fill="black"/>
<path d="M93.1654 172.007C92.9859 172.471 92.8495 172.951 92.7583 173.442C92.5349 174.787 92.4728 176.155 92.5734 177.516C92.6725 179.475 92.5734 192.599 92.5734 192.599C92.5734 192.599 90.4546 196.099 89.2734 197.333C88.0921 198.567 91.6841 200.783 91.6841 200.783C92.2199 203.973 88.9733 207.576 88.9733 207.576C85.6733 203.407 81.6821 208.606 81.6821 208.606C81.6821 208.606 79.5124 204.689 78.9713 203.29C78.4302 201.891 81.0901 200.923 82.025 200.355C82.9598 199.787 81.9794 196.438 81.9794 196.438C81.9794 196.438 81.1892 193.503 80.2517 190.825C79.3142 188.148 81.2857 174.819 81.2857 174.819C81.2857 174.819 81.3874 172.452 81.6312 171.627C81.7542 171.031 81.7787 170.418 81.7035 169.814C81.6875 169.609 81.6687 169.439 81.6553 169.324C81.6419 169.209 81.6312 169.156 81.6312 169.156L81.6687 169.089L83.008 166.481C83.008 166.481 93.8083 170.365 93.1654 172.007Z" fill="#11A4FF"/>
<path d="M113.47 204.437C113.47 204.437 111.059 204.384 109.773 205.556C108.487 206.729 102.273 205.814 102.541 205.556C102.809 205.299 102.787 203.394 102.787 203.394C99.1417 198.195 102.252 196.085 102.252 196.085C102.252 196.085 100.623 187.902 100.328 184.866C100.122 182.745 99.8676 177.046 99.731 173.792C99.672 172.393 99.6372 171.431 99.6372 171.431L102.616 170.804L102.999 170.723L110.183 169.218C110.183 169.218 110.381 170.617 110.515 171.761C110.582 172.249 110.619 172.742 110.628 173.235C110.579 173.795 110.628 175.546 110.628 175.546L110.871 180.798C110.712 181.349 110.63 181.921 110.628 182.496C110.676 183.165 111.611 192.739 111.611 192.739C111.611 192.739 113.237 198.452 112.682 198.864C112.128 199.275 113.47 204.437 113.47 204.437Z" fill="#11A4FF"/>
<path opacity="0.1" d="M101.542 67.5321C101.354 68.0301 101.325 68.8946 101.376 69.8627C99.8971 70.7927 98.1974 71.2682 96.4717 71.2345C94.746 71.2009 93.0644 70.6594 91.6201 69.6724C91.5406 68.2975 91.3823 66.9287 91.146 65.5735C91.146 65.5735 102.185 65.8282 101.542 67.5321Z" fill="black"/>
<path d="M105.809 61.3487C105.811 62.3569 105.659 63.3591 105.359 64.3173C104.688 66.4642 103.312 68.2943 101.474 69.484C99.6359 70.6737 97.4544 71.1464 95.315 70.8186C93.1757 70.4908 91.2161 69.3836 89.7827 67.6927C88.3493 66.0018 87.5343 63.836 87.4818 61.5782C87.4818 61.4998 87.4818 61.4271 87.4818 61.3487C87.461 60.0778 87.6827 58.8153 88.1339 57.6349C88.5852 56.4544 89.2569 55.3796 90.1101 54.4731C90.9632 53.5667 91.9805 52.8468 93.1028 52.3553C94.2251 51.8639 95.4298 51.6108 96.6468 51.6108C97.8637 51.6108 99.0684 51.8639 100.191 52.3553C101.313 52.8468 102.33 53.5667 103.183 54.4731C104.037 55.3796 104.708 56.4544 105.16 57.6349C105.611 58.8153 105.833 60.0778 105.812 61.3487H105.809Z" fill="#CF6F80"/>
<path opacity="0.1" d="M98.0942 82.3607C94.5584 80.9254 90.0101 76.183 91.1458 73.9671C91.3981 73.4079 91.548 72.8044 91.5878 72.1877L96.4281 76.3425L99.4228 78.9081L101.7 72.8536C101.892 74.1238 102.085 75.0919 102.085 75.0919C102.085 75.0919 101.41 76.0795 101.014 76.1327C100.617 76.1858 103.168 84.406 98.0942 82.3607Z" fill="black"/>
<path d="M110.611 100.723L106.569 171.649L101.298 172.01L87.6475 130.884L89.8868 82.0585L90.3582 71.7428L96.428 76.9496L99.4254 79.5153L101.769 73.2844L106.127 77.2518L110.611 100.723Z" fill="#11A4FF"/>
<path opacity="0.1" d="M93.1658 172.007C92.9863 172.471 92.8499 172.951 92.7587 173.442C88.9228 172.824 85.1974 171.608 81.7066 169.836L81.6343 169.797L81.6584 169.346L81.6718 169.111L83.0111 166.504C83.0111 166.504 93.8087 170.365 93.1658 172.007Z" fill="black"/>
<path opacity="0.1" d="M102.677 173.454C101.697 173.628 100.708 173.745 99.7148 173.806C99.6559 172.407 99.6211 171.445 99.6211 171.445L102.6 170.818L102.677 173.454Z" fill="black"/>
<path opacity="0.1" d="M110.499 171.775C108.595 172.292 105.654 172.874 103.02 172.511L102.983 170.737L110.167 169.232C110.167 169.232 110.365 170.617 110.499 171.775Z" fill="black"/>
<path opacity="0.1" d="M102.972 172.835C91.9895 174.794 81.9312 169.178 81.9312 169.178L82.0277 167.276C82.0277 167.276 82.2768 145.707 81.5857 144.054C80.8946 142.4 80.3562 134.015 80.7473 132.728C81.1384 131.441 79.3196 112.141 79.3196 112.141L79.0249 104.307L68.2407 99.7439L73.0623 89.2463C73.7135 87.7745 74.2736 86.2605 74.7391 84.7138C75.5775 81.9886 79.4696 79.3111 79.4696 79.3111C79.4696 79.3111 83.4607 76.6363 85.0384 76.737C86.6162 76.8378 88.6841 74.3701 88.6841 74.3701C90.2109 70.3048 91.5931 72.1458 91.5931 72.1458C91.5931 72.3388 91.5931 72.1458 91.5181 72.7473C90.9823 77.2099 100.181 91.3111 100.312 91.5601L101.188 113.848L102.075 142.053L102.972 172.835Z" fill="black"/>
<path d="M102.678 172.835C91.6953 174.794 81.6343 169.178 81.6343 169.178L81.7335 167.276C81.7335 167.276 81.9826 145.707 81.2888 144.054C80.595 142.4 80.0593 134.015 80.4531 132.728C80.8468 131.441 79.0254 112.141 79.0254 112.141L78.728 104.307L67.9385 99.727L72.76 89.2294C73.4098 87.757 73.9699 86.2432 74.4369 84.6969C75.2726 81.9718 79.1673 79.2942 79.1673 79.2942C79.1673 79.2942 83.1585 76.6195 84.7335 76.7202C86.3086 76.8209 88.3791 74.3532 88.3791 74.3532C89.9086 70.2879 91.5935 72.1289 91.5935 72.1289C91.5935 72.322 91.4328 72.4087 91.5185 72.7304C92.6971 77.0587 99.8866 91.2943 100.018 91.5433L100.904 113.831L101.791 142.036L102.678 172.835Z" fill="white"/>
<path opacity="0.1" d="M99.7178 92.1784C98.5365 91.6636 92.2792 84.2017 92.2792 84.2017V82.5034C92.0515 81.9438 90.6988 82.2852 89.6006 82.6769L90.072 72.3611L90.6078 72.8256C91.781 77.1511 99.5812 91.9294 99.7178 92.1784Z" fill="black"/>
<path d="M100.015 91.5601C98.8309 91.0453 92.5737 83.5834 92.5737 83.5834V81.8851C92.346 81.3255 90.9933 81.6668 89.895 82.0585L90.3691 71.7428L90.9049 72.2072C92.0808 76.5327 99.8837 91.3139 100.015 91.5601Z" fill="white"/>
<path opacity="0.1" d="M81.9313 128.774C82.0786 128.774 89.5681 127.952 89.5681 127.952C89.5681 127.952 94.103 137.266 93.8057 139.532C93.5084 141.799 92.97 143.805 91.1458 143.449C89.3217 143.094 81.3286 143.729 81.3286 143.729L81.9313 128.774Z" fill="black"/>
<path d="M81.6339 128.156C81.7813 128.156 89.2707 127.334 89.2707 127.334C89.2707 127.334 93.803 136.65 93.5083 138.914C93.2137 141.177 92.6699 143.186 90.8484 142.831C89.027 142.476 81.0312 143.111 81.0312 143.111L81.6339 128.156Z" fill="white"/>
<path d="M87.2778 123.783C87.2778 123.783 94.1511 127.641 94.2985 128.819C94.4458 129.997 90.8002 128.304 90.0127 128.1C89.4943 127.97 88.9667 127.884 88.4349 127.843L83.1821 127.991L87.2778 123.783Z" fill="#CF6F80"/>
<path opacity="0.1" d="M97.7999 92.6596C98.1993 92.6596 98.5231 92.3214 98.5231 91.9042C98.5231 91.487 98.1993 91.1488 97.7999 91.1488C97.4005 91.1488 97.0767 91.487 97.0767 91.9042C97.0767 92.3214 97.4005 92.6596 97.7999 92.6596Z" fill="black"/>
<path d="M97.7999 92.3519C98.1993 92.3519 98.5231 92.0137 98.5231 91.5965C98.5231 91.1793 98.1993 90.8411 97.7999 90.8411C97.4005 90.8411 97.0767 91.1793 97.0767 91.5965C97.0767 92.0137 97.4005 92.3519 97.7999 92.3519Z" fill="#3F3D56"/>
<path opacity="0.1" d="M99.1309 125.361C99.5304 125.361 99.8542 125.023 99.8542 124.606C99.8542 124.188 99.5304 123.85 99.1309 123.85C98.7315 123.85 98.4077 124.188 98.4077 124.606C98.4077 125.023 98.7315 125.361 99.1309 125.361Z" fill="black"/>
<path d="M99.1309 125.051C99.5304 125.051 99.8542 124.712 99.8542 124.295C99.8542 123.878 99.5304 123.54 99.1309 123.54C98.7315 123.54 98.4077 123.878 98.4077 124.295C98.4077 124.712 98.7315 125.051 99.1309 125.051Z" fill="#3F3D56"/>
<path opacity="0.1" d="M98.5201 109.01C98.9195 109.01 99.2433 108.672 99.2433 108.255C99.2433 107.838 98.9195 107.5 98.5201 107.5C98.1207 107.5 97.7969 107.838 97.7969 108.255C97.7969 108.672 98.1207 109.01 98.5201 109.01Z" fill="black"/>
<path d="M98.5201 108.703C98.9195 108.703 99.2433 108.364 99.2433 107.947C99.2433 107.53 98.9195 107.192 98.5201 107.192C98.1207 107.192 97.7969 107.53 97.7969 107.947C97.7969 108.364 98.1207 108.703 98.5201 108.703Z" fill="#3F3D56"/>
<path d="M115.192 127.686C115.192 127.686 115.685 128.458 115.192 128.819C114.699 129.18 115.24 130.053 115.24 130.053C115.24 130.053 114.011 130.806 114.552 131.483C115.093 132.16 114.75 135.218 114.75 135.218L113.272 137.775C113.272 137.775 113.36 139.423 113.365 141.65C113.365 145.125 113.17 150.01 112.088 152.237L112.238 170.51C112.238 170.51 107.06 172.486 102.726 171.884L102.083 142.562C102.083 142.562 103.021 125.935 103.366 122.745C103.568 121.089 103.651 119.42 103.612 117.751C103.612 117.751 103.465 112.76 102.97 110.443C102.97 110.443 102.434 100.407 102.38 97.6287C102.356 96.2997 102.423 92.4219 102.498 88.7343C102.581 84.7025 102.675 80.9002 102.675 80.9002L101.697 72.82C101.697 72.82 102.675 72.7165 102.97 73.1278C103.102 73.2566 103.245 73.3718 103.398 73.4719C105.086 74.6638 111.048 78.329 111.048 78.329C111.048 78.329 114.348 79.7 115.139 81.6641C115.929 83.6282 116.478 85.0215 116.861 85.5811C117.244 86.1407 117.453 88.7706 117.453 88.7706C117.453 88.7706 118.589 93.611 119.475 94.4307C120.362 95.2505 121.01 100.466 121.01 100.466L113.175 106.901C113.175 106.901 112.487 117.605 112.339 118.02C112.192 118.434 115.192 127.686 115.192 127.686Z" fill="white"/>
<path d="M115.489 127.686C115.489 127.686 115.979 128.458 115.489 128.819C114.999 129.18 115.535 130.053 115.535 130.053C115.535 130.053 114.313 130.814 114.849 131.491C115.385 132.168 115.047 135.226 115.047 135.226L113.569 137.784C113.569 137.784 113.657 139.432 113.665 141.659C113.665 145.134 113.47 150.019 112.387 152.246L112.535 170.519C112.535 170.519 107.349 172.494 103.02 171.892L102.38 142.571C102.38 142.571 103.318 125.943 103.663 122.753C103.866 121.098 103.947 119.428 103.907 117.759C103.907 117.759 103.76 112.768 103.267 110.451C103.267 110.451 102.731 100.415 102.675 97.6371C102.651 96.3081 102.72 92.4302 102.793 88.7427C102.876 84.7109 102.969 80.9086 102.969 80.9086L101.678 72.7193C101.678 72.7193 102.969 72.7193 103.267 73.1362C103.397 73.2665 103.541 73.3818 103.695 73.4803C105.383 74.6722 111.348 78.3374 111.348 78.3374C111.348 78.3374 114.646 79.7084 115.436 81.6725C116.226 83.6366 116.775 85.0299 117.161 85.5895C117.546 86.149 117.75 88.779 117.75 88.779C117.75 88.779 118.886 93.6193 119.772 94.4391C120.659 95.2589 121.299 100.463 121.299 100.463L113.464 106.898C113.464 106.898 112.776 117.603 112.626 118.017C112.476 118.431 115.489 127.686 115.489 127.686Z" fill="white"/>
<path opacity="0.1" d="M106.106 83.284L106.813 85.4384L103.09 89.3554C103.173 85.3265 103.267 81.5214 103.267 81.5214L101.976 73.332C101.976 73.332 103.267 73.332 103.564 73.7489C103.694 73.8789 103.838 73.9933 103.993 74.0902L107.159 83.631L106.106 83.284Z" fill="black"/>
<path d="M105.809 82.6657L106.519 84.82L102.795 88.7371C102.878 84.7053 102.972 80.903 102.972 80.903L101.678 72.7137C101.678 72.7137 102.972 72.7137 103.267 73.1306C103.398 73.2601 103.542 73.3754 103.695 73.4747L106.864 83.0126L105.809 82.6657Z" fill="white"/>
<path opacity="0.1" d="M105.809 61.3487C105.811 62.3569 105.659 63.3591 105.359 64.3173C105.308 64.3255 105.257 64.3231 105.207 64.3101C105.157 64.2971 105.111 64.2739 105.07 64.2417C105 61.7236 103.813 59.3595 102.354 57.3478C101.944 56.7404 101.447 56.2025 100.88 55.753C100.308 55.3037 99.5953 55.0933 98.8821 55.1627C98.0785 55.2774 97.3687 55.8481 96.557 55.9209C95.4856 56.0132 94.5266 55.2382 93.4632 55.199C93.0309 55.2033 92.6044 55.3039 92.2123 55.494C91.8201 55.684 91.4713 55.9593 91.189 56.3014C90.6304 56.9917 90.2153 57.7959 89.9703 58.6628C89.5491 59.9773 89.3197 61.3506 89.2899 62.7365C89.2765 63.5199 89.2042 64.5019 88.5077 64.7873C88.5602 64.2112 88.4975 63.6299 88.3236 63.0804C88.1498 62.5309 87.8686 62.025 87.4979 61.5949L87.4818 61.5782C87.4818 61.4998 87.4818 61.4271 87.4818 61.3487C87.461 60.0778 87.6827 58.8153 88.1339 57.6349C88.5852 56.4544 89.2569 55.3796 90.1101 54.4731C90.9632 53.5667 91.9805 52.8468 93.1028 52.3553C94.2251 51.8639 95.4298 51.6108 96.6468 51.6108C97.8637 51.6108 99.0684 51.8639 100.191 52.3553C101.313 52.8468 102.33 53.5667 103.183 54.4731C104.037 55.3796 104.708 56.4544 105.16 57.6349C105.611 58.8153 105.833 60.0778 105.812 61.3487H105.809Z" fill="black"/>
<path d="M100.441 46.148C99.049 45.4641 97.4659 45.3347 95.989 45.7842C95.2471 46.0137 94.5479 46.3858 93.7952 46.5732C92.1881 46.9789 90.313 46.5397 88.9335 47.5217C88.1674 48.0813 87.7067 48.9654 87.2781 49.8244L86.2067 51.9563C85.6227 53.123 85.0334 54.3093 84.7897 55.5936C84.5459 56.8778 84.6932 58.3159 85.4727 59.3483C86.0406 60.1009 86.879 60.5738 87.4951 61.2816C87.8642 61.7122 88.1441 62.2177 88.3175 62.7666C88.4908 63.3154 88.5537 63.8957 88.5023 64.4712C89.2014 64.1914 89.2683 63.2065 89.2844 62.4231C89.3143 61.0373 89.5436 59.664 89.9648 58.3495C90.2093 57.4823 90.6244 56.678 91.1836 55.9881C91.466 55.6463 91.8149 55.3712 92.207 55.1811C92.5991 54.991 93.0255 54.8903 93.4577 54.8857C94.5292 54.9249 95.4908 55.6971 96.5516 55.6047C97.3551 55.5348 98.0677 54.9612 98.8766 54.8493C99.5899 54.7788 100.303 54.9894 100.875 55.4397C101.441 55.8885 101.937 56.4265 102.345 57.0345C103.808 59.0461 104.995 61.4047 105.064 63.9284C105.367 64.1606 105.804 63.8584 105.954 63.5003C106.104 63.1422 106.109 62.7225 106.299 62.3812C106.519 61.9867 106.939 61.7768 107.269 61.4803C108.105 60.7276 108.313 59.4602 108.281 58.3103C108.249 57.1604 108.035 55.9937 108.244 54.8633C108.37 54.1694 108.654 53.5203 108.809 52.8349C108.964 52.1494 108.983 51.38 108.616 50.7896C108.08 49.9223 106.953 49.7516 105.97 49.6705C104.853 49.5698 103.854 49.6985 103.141 48.7164C102.807 48.2039 102.43 47.7228 102.016 47.2783C101.874 47.1328 100.441 46.2095 100.441 46.148Z" fill="#512E4E"/>
<path opacity="0.1" d="M71.3269 105.149L68.5277 99.7438L67.6411 108.084C67.6411 108.084 68.134 111.789 68.0349 112.357C67.9358 112.925 70.0546 118.017 70.0546 118.017C70.0546 118.017 77.0538 131.038 79.9119 131.709L89.5684 124.502L87.0076 121.106C87.0076 121.106 86.121 120.745 85.8987 121.106C85.8987 121.106 81.1441 112.561 80.6512 111.943C80.1584 111.324 80.2548 110.09 80.2548 110.09C80.2548 110.09 79.5155 109.268 79.7619 108.496C80.0084 107.723 78.3342 105.046 78.3342 105.046L79.861 103.555L71.3269 105.149Z" fill="black"/>
<path d="M68.6748 99.1283L67.9355 99.7438L67.0488 108.084C67.0488 108.084 67.5417 111.789 67.4426 112.357C67.3435 112.925 69.465 118.017 69.465 118.017C69.465 118.017 76.4616 131.038 79.3197 131.709L88.9788 124.502L86.4154 121.106C86.4154 121.106 85.5287 120.745 85.3064 121.106C85.3064 121.106 80.5518 112.561 80.059 111.943C79.5661 111.324 79.6652 110.09 79.6652 110.09C79.6652 110.09 78.9259 109.268 79.1723 108.496C79.4188 107.723 77.7419 105.046 77.7419 105.046L79.2688 103.555L68.6748 99.1283Z" fill="white"/>
<path opacity="0.1" d="M114.552 131.802C115.087 132.482 114.75 135.534 114.75 135.534L113.271 138.091C113.271 138.091 113.36 139.742 113.365 141.966L110.879 142.778C110.655 142.851 110.416 142.867 110.185 142.825C109.953 142.782 109.734 142.683 109.547 142.534C109.359 142.385 109.209 142.192 109.107 141.97C109.006 141.748 108.957 141.504 108.964 141.259L109.393 126.819L115.192 129.135C114.699 129.494 115.24 130.372 115.24 130.372C115.24 130.372 114.011 131.122 114.552 131.802Z" fill="black"/>
<path d="M114.849 131.491C115.385 132.171 115.047 135.226 115.047 135.226L113.569 137.784C113.569 137.784 113.657 139.432 113.665 141.659L111.134 142.484C110.914 142.555 110.681 142.571 110.454 142.529C110.227 142.487 110.013 142.39 109.83 142.244C109.646 142.098 109.499 141.909 109.399 141.692C109.3 141.475 109.252 141.236 109.259 140.996L109.69 126.511L115.492 128.828C114.997 129.186 115.538 130.061 115.538 130.061C115.538 130.061 114.314 130.814 114.849 131.491Z" fill="white"/>
<path d="M116.77 124.608C116.77 124.608 116.376 127.236 115.39 127.39C114.405 127.543 113.963 131.64 112.979 131.494C111.996 131.349 112.647 127.686 112.682 126.975C112.717 126.265 111.611 123.321 112.438 122.653C113.266 121.984 115.886 122.653 115.886 122.653L116.77 124.608Z" fill="#CF6F80"/>
<path opacity="0.1" d="M118.867 104.377L120.726 100.46C120.726 100.46 121.466 103.445 121.466 105.04C121.466 106.635 122.499 106.792 122.499 106.792C122.499 106.792 123.633 108.191 123.035 109.209C122.438 110.227 122.197 112.762 122.197 112.762C122.197 112.762 122.392 117.6 121.506 118.268C120.619 118.937 120.434 120.535 120.434 120.535C120.434 120.535 118.806 123.57 118.857 124.292C118.907 125.014 116.59 129.902 116.59 129.902C116.59 129.902 117.723 123.828 111.121 121.203C111.121 121.203 111.07 119.141 111.563 118.576C112.055 118.011 112.824 117.754 112.342 114.897C111.86 112.04 112.203 108.627 112.203 107.942C112.203 107.256 113.681 102.981 113.681 102.981L118.867 104.377Z" fill="black"/>
<path d="M119.671 99.9005L121.294 100.46C121.294 100.46 122.036 103.445 122.036 105.04C122.036 106.635 123.07 106.792 123.07 106.792C123.07 106.792 124.203 108.191 123.606 109.209C123.008 110.227 122.77 112.762 122.77 112.762C122.77 112.762 122.966 117.6 122.079 118.268C121.192 118.937 120.994 120.535 120.994 120.535C120.994 120.535 119.368 123.57 119.419 124.292C119.47 125.014 117.15 129.902 117.15 129.902C117.15 129.902 118.286 123.828 111.68 121.203C111.68 121.203 111.632 119.141 112.125 118.576C112.618 118.011 113.387 117.754 112.905 114.897C112.422 112.04 112.765 108.627 112.765 107.942C112.765 107.256 114.244 102.981 114.244 102.981L119.671 99.9005Z" fill="white"/>
<path opacity="0.1" d="M83.8174 201.427C83.8174 201.427 86.4049 199.728 88.1032 200.962C89.8015 202.196 83.8174 201.427 83.8174 201.427Z" fill="black"/>
<path opacity="0.1" d="M103.923 196.175C103.923 196.175 106.213 195.867 108.136 198.03C110.06 200.193 103.923 196.175 103.923 196.175Z" fill="black"/>
<g opacity="0.1">
<path d="M107.274 60.8675C106.944 61.1641 106.521 61.3767 106.302 61.7712C106.114 62.1098 106.109 62.5267 105.959 62.8904C105.809 63.2541 105.372 63.5507 105.069 63.3213C105 60.8032 103.81 58.439 102.351 56.4245C101.942 55.8166 101.446 55.2786 100.88 54.8297C100.307 54.3795 99.5931 54.169 98.879 54.2394C98.0754 54.3541 97.3683 54.9249 96.5566 54.9948C95.4852 55.0899 94.5236 54.3149 93.4601 54.2758C93.028 54.2802 92.6017 54.3812 92.21 54.5718C91.8182 54.7624 91.47 55.0383 91.1887 55.3809C90.6295 56.0698 90.2143 56.8732 89.9699 57.7395C89.5489 59.0541 89.3196 60.4274 89.2895 61.8132C89.2734 62.5938 89.2038 63.5675 88.5127 63.8584C88.5288 64.0651 88.5288 64.2729 88.5127 64.4796C89.2091 64.1998 89.2788 63.2149 89.2949 62.4315C89.3247 61.0457 89.5541 59.6724 89.9752 58.3578C90.2197 57.4907 90.6348 56.6864 91.194 55.9964C91.4759 55.6547 91.8243 55.3797 92.216 55.1896C92.6077 54.9995 93.0336 54.8988 93.4655 54.8941C94.537 54.9333 95.5013 55.7055 96.562 55.6131C97.3656 55.5432 98.0781 54.9696 98.8844 54.8577C99.5985 54.7873 100.312 54.9978 100.885 55.4481C101.452 55.8969 101.948 56.4349 102.356 57.0428C103.816 59.0545 105.005 61.4131 105.075 63.9368C105.377 64.169 105.814 63.8668 105.964 63.5087C106.114 63.1506 106.119 62.7309 106.307 62.3896C106.527 61.9951 106.95 61.7852 107.279 61.4886C108.115 60.736 108.324 59.4686 108.292 58.3187C108.292 58.2823 108.292 58.2459 108.292 58.2123C108.241 59.2084 107.986 60.224 107.274 60.8675Z" fill="black"/>
<path d="M87.5003 60.6689C86.8842 59.961 86.0431 59.4882 85.4779 58.7384C85.002 58.0746 84.7302 57.2755 84.6984 56.4469C84.6141 57.4824 84.891 58.5148 85.4779 59.3539C86.0431 60.1065 86.8842 60.5793 87.5003 61.2872C88.0918 61.9796 88.4469 62.8573 88.5101 63.7829C88.5511 63.2196 88.4828 62.6534 88.3093 62.1183C88.1358 61.5832 87.8606 61.0902 87.5003 60.6689Z" fill="black"/>
<path d="M108.814 52.2221C108.656 52.9076 108.375 53.5595 108.247 54.2506C108.17 54.7124 108.143 55.1814 108.163 55.6495C108.172 55.3829 108.2 55.1173 108.247 54.8549C108.375 54.161 108.656 53.5119 108.814 52.8265C108.907 52.4484 108.936 52.0567 108.903 51.6682C108.886 51.8548 108.857 52.0399 108.814 52.2221Z" fill="black"/>
</g>
<path opacity="0.1" d="M35.5535 212.803C49.9685 212.803 61.6541 210.842 61.6541 208.424C61.6541 206.006 49.9685 204.045 35.5535 204.045C21.1385 204.045 9.45288 206.006 9.45288 208.424C9.45288 210.842 21.1385 212.803 35.5535 212.803Z" fill="#11A4FF"/>
<path d="M36.3946 124.544H34.7151V164.042H36.3946V124.544Z" fill="#535461"/>
<path d="M46.9485 163.921L46.844 165.701L46.694 168.219L46.6324 169.265L46.4851 171.783L46.4208 172.83L46.2708 175.348L44.5779 203.906C44.5043 205.134 43.9853 206.288 43.1264 207.131C42.2675 207.974 41.1332 208.443 39.9546 208.444H31.1526C29.9742 208.443 28.8403 207.974 27.9818 207.13C27.1234 206.287 26.6049 205.134 26.5319 203.906L24.8471 175.328L24.6971 172.81L24.6355 171.764L24.4855 169.246L24.4239 168.199L24.2739 165.681L24.1667 163.902C24.1481 163.559 24.1967 163.216 24.3095 162.894C24.4223 162.572 24.5969 162.277 24.8226 162.028C25.0484 161.779 25.3205 161.581 25.6222 161.445C25.924 161.31 26.2491 161.24 26.5775 161.241H44.5806C44.9078 161.244 45.2309 161.317 45.53 161.455C45.8292 161.594 46.098 161.795 46.3199 162.046C46.5418 162.297 46.712 162.593 46.8201 162.916C46.9283 163.238 46.9719 163.58 46.9485 163.921Z" fill="#3F3D56"/>
<path d="M46.8441 165.701L46.6941 168.21H24.4132L24.2632 165.701H46.8441Z" fill="#9D9CB5"/>
<path d="M46.6323 169.257L46.485 171.769H24.6246L24.4746 169.257H46.6323Z" fill="#9D9CB5"/>
<path d="M46.4207 172.818L46.2734 175.328H24.8363L24.6863 172.818H46.4207Z" fill="#9D9CB5"/>
<path d="M21.6997 139.348C31.4794 146.74 35.5617 158.3 35.5617 158.3C35.5617 158.3 23.7757 157.878 13.9933 150.486C4.21092 143.094 0.136719 131.536 0.136719 131.536C0.136719 131.536 11.9174 131.956 21.6997 139.348Z" fill="#11A4FF"/>
<path d="M0.128662 131.536C0.128662 131.536 12.3647 138.629 16.2889 144.501C20.2131 150.374 35.5617 158.3 35.5617 158.3" stroke="#535461" stroke-width="2" stroke-miterlimit="10"/>
<path d="M28.0132 124.457C33.3356 128.478 35.5616 134.77 35.5616 134.77C35.5616 134.77 29.1462 134.541 23.8211 130.52C18.496 126.5 16.2754 120.205 16.2754 120.205C16.2754 120.205 22.688 120.434 28.0132 124.457Z" fill="#11A4FF"/>
<path d="M16.2754 120.205C16.2754 120.205 22.9345 124.066 25.0694 127.261C27.2042 130.456 35.5616 134.77 35.5616 134.77" stroke="#535461" stroke-width="2" stroke-miterlimit="10"/>
<path d="M43.2895 134.451C37.1742 141.471 35.8804 150.645 35.8804 150.645C35.8804 150.645 44.5029 148.435 50.6129 141.412C56.7228 134.39 58.022 125.218 58.022 125.218C58.022 125.218 49.4048 127.431 43.2895 134.451Z" fill="#11A4FF"/>
<path d="M58.0273 125.221C58.0273 125.221 50.0611 132.417 48.036 137.375C46.011 142.333 35.8804 150.645 35.8804 150.645" stroke="#535461" stroke-width="2" stroke-miterlimit="10"/>
<path d="M267.775 131.981C267.775 131.981 263.353 108.999 265.046 106.14C265.046 106.14 265.107 103.482 265.005 100.094C265.005 99.9649 265.005 99.8362 265.005 99.7047C265.303 99.9121 265.614 100.099 265.935 100.264C267.495 101.101 269.285 101.343 270.997 100.947L269.658 99.3885C269.337 99.0164 269.002 98.6135 268.932 98.1211C268.863 97.6287 269.055 97.1894 269.222 96.7502C270.494 93.3927 270.561 89.1707 268.11 86.6079C266.039 84.4535 265.536 81.6725 263.288 79.7056C261.646 78.2647 260.744 76.1523 259.892 74.1098C259.171 72.3836 258.445 70.6433 258.033 68.8135C257.711 67.3838 257.583 65.9037 257.141 64.5076C256.699 63.1114 255.871 61.7545 254.577 61.1306C254.117 60.9095 253.605 60.7836 253.185 60.4898C252.633 60.1009 252.301 59.4686 251.901 58.9147C249.874 56.1168 243.083 57.7647 239.869 58.9007C238.995 59.1867 238.186 59.655 237.49 60.2772L237.52 60.2268C237.544 60.1849 237.573 60.1429 237.6 60.1009C237.248 60.3981 236.945 60.7523 236.7 61.1501C236.231 61.9251 236.036 62.8289 235.645 63.6682C235.173 64.6615 232.551 67.4341 233.679 68.5505C233.758 68.6255 233.848 68.686 233.947 68.7296C234.37 68.9136 234.836 68.9623 235.286 68.8694L235.238 68.9898C234.853 69.9747 234.655 71.0287 234.656 72.0926C234.656 76.6895 238.286 80.4162 242.767 80.4162C243.61 80.4171 244.447 80.2821 245.25 80.0161C245.269 80.1225 245.285 80.2288 245.304 80.3351C245.304 80.3771 245.317 80.419 245.323 80.461L245.181 80.668C245.174 80.6553 245.166 80.6431 245.157 80.6317L240.951 86.7702C240.308 87.243 236.606 90.0409 236.398 92.1393C236.178 94.4363 235.958 97.1251 235.958 97.1251L235.929 97.7014C235.745 97.8618 235.53 97.9787 235.299 98.0439C235.068 98.1091 234.826 98.1211 234.589 98.0791C233.277 97.8553 233.277 103.115 233.277 103.115C233.277 103.115 232.404 103.955 231.804 103.227C231.204 102.5 229.618 104.965 229.618 104.965L219.68 105.412L219.452 105.426L218.917 103.694C218.859 103.512 218.735 103.36 218.571 103.273C218.407 103.185 218.216 103.169 218.041 103.227C217.999 103.241 217.959 103.259 217.92 103.28L217.883 103.303L217.813 103.353L217.778 103.387C217.759 103.405 217.741 103.425 217.725 103.445L217.693 103.485L217.677 103.501C217.615 103.591 217.574 103.694 217.557 103.803C217.54 103.912 217.548 104.023 217.58 104.128L218.041 105.614C216.123 106.017 214.162 107.153 215.761 110.281L207.656 108.717L210.278 111.016L223.816 113.935C223.637 114.27 223.754 114.757 224.314 115.443C226.725 118.4 231.118 119.203 232.886 119.41C233.353 120.501 233.936 121.533 234.624 122.488L234.472 125.434C234.472 125.434 229.996 147.89 229.176 149.028C229.59 148.539 229.968 148.018 230.309 147.47C229.01 152.084 227.194 158.398 226.717 159.344C225.951 160.855 225.241 166.968 226.114 167.36C226.382 167.48 227.148 167.421 228.241 167.335V167.841L228.193 187.032C228.193 187.032 228.413 198.802 227.81 199.924C227.207 201.046 227.046 203.399 227.046 203.399C227.046 203.399 224.636 208.041 222.726 209.907C222.713 209.921 222.698 209.935 222.683 209.946L222.624 209.51C222.624 209.51 220.328 212.537 215.25 212.366C215.25 212.366 212.193 214.442 216.726 214.554C221.258 214.666 227.046 214.386 227.046 214.386C227.046 214.386 231.088 207.951 234.474 208.791V213.667H235.511V208.712C235.992 208.382 236.403 207.953 236.72 207.451C237.038 206.949 237.254 206.386 237.356 205.794C237.445 205.184 237.38 204.561 237.168 203.985C236.956 203.41 236.603 202.902 236.146 202.512C235.94 202.318 235.775 202.082 235.661 201.818C235.548 201.554 235.487 201.268 235.484 200.979L235.447 201.013C235.447 200.915 235.423 200.814 235.412 200.71C235.114 198.192 234.742 192.997 236.057 189.152C237.86 183.881 238.407 176.54 237.094 172.169C236.67 170.772 236.323 169.352 236.052 167.914C236.02 167.732 235.99 167.559 235.964 167.396C236.861 167.523 237.749 167.71 238.623 167.956C241.664 168.832 248.315 168.994 253.993 168.946C254.007 169.109 254.023 169.279 254.042 169.45C254.143 170.636 254.355 171.809 254.674 172.953C255.386 175.191 255.713 185.059 255.713 185.059C255.713 185.059 256.632 193.173 256.131 196.474C255.863 198.31 255.595 200.154 255.443 202.006V202.042C255.443 202.042 253.937 206.519 252.836 208.95C252.81 209.012 252.78 209.073 252.753 209.132C252.46 209.16 252.171 209.227 251.893 209.331C251.893 209.331 250.418 212.408 248.947 212.917C247.476 213.427 247.964 215.103 251.293 214.487C254.623 213.872 259.651 213.368 259.651 213.368L259.868 210.229L260.891 208.891L260.623 212.022L261.713 211.798L261.569 207.99L263.243 205.803C263.243 205.803 265.265 203.922 262.26 200.224V200.305C262.228 200.252 262.198 200.196 262.163 200.142V200.126C261.665 199.32 261.269 197.817 261.995 195.151C263.307 190.333 264.071 185.96 264.071 185.96C264.071 185.96 267.001 174.245 263.479 168.703H263.634C263.273 167.923 263.018 167.094 262.876 166.241C262.858 166.14 262.842 166.036 262.828 165.93C265.434 165.773 267.992 165.281 270.079 164.218C270.071 164.207 268.814 136.407 267.775 131.981ZM234.686 112.592V112.648L234.15 112.676L234.686 112.592ZM232.848 112.857C232.76 112.878 232.678 112.919 232.607 112.978C232.377 113.318 232.232 113.714 232.187 114.128L231.351 113.932C231.351 113.932 230.764 113.8 229.921 113.652L229.521 113.232C230.62 113.137 231.761 112.997 232.848 112.857Z" fill="url(#paint1_linear_95_679)"/>
<path d="M260.5 208.03L260.181 211.994L261.25 211.77L261.089 207.47L260.5 208.03Z" fill="#1D2366"/>
<path d="M236.117 189.206C234.828 193.039 235.192 198.212 235.482 200.724C235.589 201.653 235.688 202.218 235.688 202.218C235.688 202.218 233.762 206.801 233.601 206.975C233.441 207.148 227.933 210.66 227.933 210.66L224.084 213.007C224.084 213.007 220.179 211.219 222.051 210.604C222.434 210.443 222.778 210.198 223.061 209.885C224.936 208.024 227.29 203.399 227.29 203.399C227.29 203.399 227.451 201.052 228.04 199.935C228.63 198.819 228.415 187.088 228.415 187.088L228.461 167.964V165.471L235.787 165.527C235.833 166.374 235.939 167.215 236.103 168.045C236.366 169.478 236.707 170.894 237.124 172.287C238.415 176.649 237.879 183.954 236.117 189.206Z" fill="#FFB0B1"/>
<path opacity="0.1" d="M235.688 202.218C235.688 202.218 233.762 206.801 233.601 206.975C233.441 207.148 227.933 210.66 227.933 210.66L224.084 213.007C224.084 213.007 220.179 211.219 222.051 210.604C222.434 210.443 222.778 210.198 223.061 209.885L223.227 211.107L224.51 211.051L235.492 200.73C235.589 201.653 235.688 202.218 235.688 202.218Z" fill="black"/>
<path d="M235.554 200.99L224.51 211.381L223.227 211.437L222.959 209.479C222.959 209.479 220.714 212.495 215.727 212.327C215.727 212.327 212.732 214.395 217.17 214.507C221.609 214.619 227.277 214.339 227.277 214.339C227.277 214.339 231.236 207.904 234.549 208.743V213.603H235.567V208.698C236.041 208.366 236.445 207.936 236.755 207.436C237.065 206.936 237.275 206.376 237.373 205.789C237.461 205.184 237.399 204.565 237.192 203.993C236.985 203.421 236.64 202.914 236.191 202.521C235.991 202.324 235.831 202.087 235.721 201.824C235.612 201.561 235.555 201.277 235.554 200.99Z" fill="#1D2366"/>
<path d="M261.518 195.182C260.805 197.84 261.194 199.337 261.681 200.14V200.156C262.307 201.148 262.741 202.257 262.962 203.421L263.005 203.673L257.979 211.325L255.253 212.445C255.253 212.445 250.868 210.881 251.669 210.433C251.869 210.324 252.183 209.742 252.542 208.939C253.613 206.519 255.092 202.053 255.092 202.053V202.017C255.247 200.173 255.494 198.335 255.767 196.505C256.257 193.212 255.357 185.129 255.357 185.129C255.357 185.129 255.036 175.3 254.339 173.065C254.025 171.928 253.816 170.763 253.715 169.584C253.57 168.185 253.538 167.032 253.538 167.032C253.538 167.032 256.426 162.836 261.719 167.368C262.142 167.73 262.514 168.152 262.825 168.622C266.481 174.055 263.538 186.024 263.538 186.024C263.538 186.024 262.801 190.378 261.518 195.182Z" fill="#FFB0B1"/>
<path opacity="0.1" d="M263.013 203.673L257.988 211.325L255.261 212.445C255.261 212.445 250.876 210.881 251.677 210.433C251.878 210.324 252.191 209.742 252.55 208.939C254.406 208.922 255.368 210.769 255.368 210.769L257.72 210.377C257.72 210.377 260.822 204.009 261.518 203.62C262.215 203.231 261.625 200.713 261.625 200.713V200.072C261.644 200.095 261.66 200.12 261.682 200.142V200.159C262.307 201.151 262.742 202.26 262.962 203.424L263.013 203.673Z" fill="black"/>
<path d="M255.528 210.934C255.528 210.934 254.189 208.365 251.623 209.314C251.623 209.314 250.179 212.391 248.735 212.889C247.292 213.388 247.774 215.066 251.036 214.453C254.299 213.841 259.217 213.334 259.217 213.334L259.431 210.204L262.747 205.791C262.747 205.791 264.724 203.92 261.783 200.235V200.875C261.783 200.875 262.372 203.394 261.676 203.782C260.979 204.171 257.888 210.542 257.888 210.542L255.528 210.934Z" fill="#1D2366"/>
<path opacity="0.1" d="M235.795 165.522C235.841 166.368 235.947 167.21 236.111 168.04C233.095 167.578 230.296 167.808 228.461 167.959V165.466L235.795 165.522Z" fill="black"/>
<path opacity="0.1" d="M263.122 169.318C263.122 169.318 258.836 169.537 253.726 169.581C253.581 168.182 253.549 167.03 253.549 167.03C253.549 167.03 256.436 162.833 261.729 167.365C262.153 167.727 262.525 168.149 262.836 168.619C262.919 168.857 263.014 169.091 263.122 169.318Z" fill="black"/>
<path d="M263.122 168.815C263.122 168.815 244.35 169.763 238.629 168.087C232.907 166.411 227.237 167.863 226.382 167.475C225.528 167.086 226.221 160.995 226.971 159.487C227.721 157.979 231.836 142.727 231.836 142.727L235.795 121.167L239.965 119.967L240.26 119.88L247.527 117.787L252.852 116.251C252.852 116.251 263.441 159.431 262.533 162.615C262.203 163.834 262.15 165.117 262.378 166.361C262.516 167.211 262.767 168.037 263.122 168.815Z" fill="#1D2366"/>
<path d="M221.995 106.422C221.995 106.422 218.245 110.619 221.084 112.958C223.923 115.297 225.79 113.182 225.79 113.182L221.995 106.422Z" fill="#C7DAF5"/>
<path opacity="0.1" d="M221.995 106.422C221.995 106.422 218.245 110.619 221.084 112.958C223.923 115.297 225.79 113.182 225.79 113.182L221.995 106.422Z" fill="black"/>
<path d="M252.293 78.8298C252.293 78.8298 251.853 79.2663 251.192 79.9098C250.249 80.8303 248.853 82.1761 247.616 83.3036C245.901 84.862 244.487 86.0063 244.993 85.0299C245.5 84.0534 245.403 82.3523 245.151 80.7603C245.133 80.654 245.116 80.5477 245.098 80.4442C244.889 79.275 244.613 78.1201 244.27 76.986C244.27 76.986 247.04 73.2481 248.572 71.7736C249.142 71.214 249.542 70.9846 249.566 71.3735C249.592 71.8967 249.967 73.0522 250.434 74.2777C250.447 74.3169 250.46 74.3532 250.476 74.3924C250.787 75.2318 251.138 76.0935 251.446 76.8377C251.918 77.9793 252.293 78.8298 252.293 78.8298Z" fill="#FFB0B1"/>
<path opacity="0.1" d="M250.476 74.3924C250.216 75.8547 249.585 77.2171 248.648 78.3373C247.711 79.4575 246.504 80.2943 245.151 80.7603C244.938 79.4831 244.644 78.2222 244.27 76.986C244.27 76.986 249.485 69.9494 249.566 71.3735C249.584 71.9135 249.992 73.111 250.476 74.3924Z" fill="black"/>
<path opacity="0.1" d="M244.632 82.6405L245.307 81.6473C245.307 81.6473 245.754 84.4955 247.399 83.2393C249.044 81.983 249.124 92.6932 249.124 92.6932L247.359 120.261L234.603 119.463L234.965 106.143L236.408 99.4277L239.979 89.6659L242.103 86.44L244.632 82.6405Z" fill="black"/>
<path d="M249.124 92.8639L247.517 117.79L247.348 120.431L240.236 119.986L239.968 119.97L234.611 119.634L234.972 106.31L236.416 99.5956L239.987 89.8338L242.111 86.6079L244.64 82.7944L245.315 81.804C245.315 81.804 245.762 84.6522 247.407 83.3959L247.442 83.3708C249.049 82.3076 249.124 92.8639 249.124 92.8639Z" fill="#1D2366"/>
<path d="M236.596 97.2621C236.596 97.2621 235.956 98.6611 234.67 98.4345C233.384 98.2078 233.387 103.471 233.387 103.471C233.387 103.471 232.532 104.31 231.943 103.583C231.354 102.855 229.8 105.314 229.8 105.314L220.066 105.762C220.066 105.762 224.397 107.83 223.548 114.086C223.548 114.086 238.254 113.134 238.736 111.682C239.218 110.23 236.596 97.2621 236.596 97.2621Z" fill="white"/>
<path opacity="0.03" d="M236.596 97.2621C236.596 97.2621 235.956 98.6611 234.67 98.4345C233.384 98.2078 233.387 103.471 233.387 103.471C233.387 103.471 232.532 104.31 231.943 103.583C231.354 102.855 229.8 105.314 229.8 105.314L220.066 105.762C220.066 105.762 224.397 107.83 223.548 114.086C223.548 114.086 238.254 113.134 238.736 111.682C239.218 110.23 236.596 97.2621 236.596 97.2621Z" fill="black"/>
<path d="M208.307 109.05L210.873 111.338L231.997 115.974L229.377 113.182L208.307 109.05Z" fill="white"/>
<path d="M244.672 83.5218C244.321 84.0814 243.317 86.9464 242.478 89.4477C241.779 91.5321 241.195 93.3647 241.195 93.3647C241.195 93.3647 239.832 102.637 239.135 104.313C238.439 105.989 238.817 112.524 238.817 112.524L236.221 128.665C236.221 128.665 235.045 136.989 233.229 141.961C231.437 146.854 229.441 149.149 229.38 149.221C230.183 148.085 234.563 125.719 234.563 125.719L236.01 97.5111C236.01 97.5111 236.221 94.8308 236.435 92.5393C236.65 90.2479 240.989 87.1199 240.989 87.1199L245.173 80.9058C245.594 81.4934 245.312 82.5174 244.672 83.5218Z" fill="white"/>
<path d="M233.762 119.774C233.762 119.774 227.601 119.494 224.617 115.75C221.633 112.007 231.515 114.256 231.515 114.256L234.083 114.872L233.762 119.774Z" fill="#FFB0B1"/>
<path opacity="0.1" d="M262.533 162.617C262.204 163.837 262.15 165.119 262.378 166.364C255.657 166.862 248.468 164.965 248.468 164.965C247.128 166.252 243.601 168.149 243.601 168.149L241.677 143.248C240.448 139.89 239.966 122.3 239.966 122.3C239.966 122.3 240.076 121.38 240.234 120C240.234 119.967 240.234 119.93 240.247 119.897C240.727 116.044 241.677 108.812 242.144 107.835C242.786 106.492 240.167 102.919 240.167 102.919L241.359 92.3015L241.503 91.0201C244.016 89.8478 245.942 86.1042 245.942 86.1042L247.42 83.3987C249.028 82.3215 249.111 92.8779 249.111 92.8779L247.503 117.804L252.829 116.268C252.829 116.268 263.441 159.433 262.533 162.617Z" fill="black"/>
<path d="M269.431 164.338C262.105 168.138 248.789 164.618 248.789 164.618C247.45 165.905 243.922 167.802 243.922 167.802L241.996 142.901C240.769 139.543 240.287 121.953 240.287 121.953C240.287 121.953 241.835 108.829 242.478 107.488C242.666 107.097 242.575 106.515 242.352 105.888C241.259 102.905 240.857 99.6942 241.179 96.5179L241.693 91.9546L241.835 90.676C244.351 89.5009 246.277 85.7573 246.277 85.7573L247.616 83.3064L250.08 78.7906L251.248 76.6531L251.446 76.8405L252.96 78.273C252.96 78.273 253.603 78.8326 254.567 79.672C256.664 81.5186 260.288 84.7697 262.158 86.759C263.803 88.5104 264.323 95.3232 264.473 100.452C264.572 103.829 264.513 106.476 264.513 106.476C262.855 109.327 267.191 132.216 267.191 132.216C268.201 136.639 269.431 164.338 269.431 164.338Z" fill="white"/>
<path opacity="0.03" d="M255.368 85.7013C255.368 85.7013 250.34 95.6981 250.924 99.4976C251.508 103.297 253.169 107.597 252.368 108.602C252.093 108.982 251.737 109.291 251.328 109.504C250.92 109.717 250.47 109.829 250.013 109.83C249.21 109.886 247.067 111.45 247.067 111.618C247.067 111.786 245.087 111.786 243.317 112.569C241.546 113.353 238.932 113.797 238.932 113.797C238.932 113.797 233.842 113.63 233.368 114.133C232.894 114.637 232.407 117.65 233.422 120.054C234.437 122.457 235.565 124.25 236.417 124.578C237.268 124.905 242.674 123.014 247.059 122.566C251.444 122.118 256.204 118.49 256.204 118.49C256.204 118.49 261.446 116.531 262.364 113.238C263.283 109.945 261.242 91.8454 261.242 91.8454C261.242 91.8454 259.699 83.4099 255.368 85.7013Z" fill="black"/>
<path opacity="0.03" d="M254.725 84.862C254.725 84.862 249.697 94.8616 250.286 98.6583C250.876 102.455 252.531 106.758 251.727 107.765C251.453 108.146 251.098 108.456 250.69 108.669C250.282 108.882 249.832 108.993 249.376 108.994C248.572 109.05 246.429 110.614 246.429 110.781C246.429 110.949 244.45 110.949 242.679 111.73C240.908 112.51 238.294 112.958 238.294 112.958C238.294 112.958 233.205 112.79 232.733 113.294C232.262 113.798 231.769 116.814 232.787 119.214C233.805 121.615 234.93 123.411 235.782 123.738C236.633 124.066 242.039 122.174 246.424 121.729C250.809 121.285 255.569 117.65 255.569 117.65C255.569 117.65 260.808 115.692 261.716 112.401C262.624 109.111 260.594 91.0061 260.594 91.0061C260.594 91.0061 259.056 82.5733 254.725 84.862Z" fill="black"/>
<path d="M255.21 85.1978C255.21 85.1978 250.182 95.1973 250.771 98.994C251.36 102.791 253.016 107.094 252.215 108.098C251.941 108.48 251.585 108.79 251.177 109.004C250.768 109.217 250.317 109.329 249.86 109.329C249.057 109.385 246.914 110.949 246.914 111.114C246.914 111.279 244.937 111.282 243.164 112.066C241.391 112.849 238.779 113.294 238.779 113.294C238.779 113.294 233.69 113.126 233.215 113.63C232.741 114.133 232.254 117.149 233.269 119.55C234.284 121.95 235.412 123.747 236.264 124.074C237.115 124.401 242.521 122.51 246.906 122.062C251.291 121.615 256.051 117.986 256.051 117.986C256.051 117.986 261.293 116.027 262.212 112.734C263.13 109.441 261.103 91.3419 261.103 91.3419C261.103 91.3419 259.538 82.9203 255.21 85.1978Z" fill="white"/>
<path opacity="0.1" d="M255.1 112.018C255.1 112.018 251.082 111.179 252.48 112.578C253.878 113.977 253.87 115.202 255.582 115.146C257.294 115.09 255.1 112.018 255.1 112.018Z" fill="black"/>
<path opacity="0.1" d="M261.89 142.117C261.89 142.117 260.074 143.402 263.549 146.362C267.023 149.322 261.89 142.117 261.89 142.117Z" fill="black"/>
<path opacity="0.1" d="M258.424 152.674C258.424 152.842 257.781 158.829 260.187 160.326C262.592 161.823 258.424 152.674 258.424 152.674Z" fill="black"/>
<path d="M220.232 105.748C218.293 105.818 214.103 106.436 216.276 110.669C218.196 114.416 221.424 111.912 223.24 110.012C222.797 108.241 221.72 106.715 220.232 105.748Z" fill="#FFB0B1"/>
<path d="M223.264 109.977L223.343 109.892L223.264 109.977Z" fill="#FFB0B1"/>
<path opacity="0.1" d="M254.567 79.8427C252.51 81.3115 250.785 82.551 250.447 82.8084C249.526 83.5219 247.769 87.7103 246.635 89.8478C245.733 91.5685 242.8 92.0106 241.693 92.1197L241.835 90.8411C244.351 89.666 246.277 85.9224 246.277 85.9224L251.248 76.8182L252.96 78.4437C252.96 78.4437 253.603 79.0033 254.567 79.8427Z" fill="black"/>
<path d="M254.567 79.6748C252.51 81.1436 250.785 82.3831 250.447 82.6433C249.526 83.354 247.769 87.5424 246.635 89.6799C245.733 91.4006 242.8 91.8427 241.693 91.9518L241.835 90.6732C244.351 89.4981 246.277 85.7545 246.277 85.7545L251.248 76.6503L252.96 78.2702C252.96 78.2702 253.603 78.8242 254.567 79.6748Z" fill="#DCE7FF"/>
<path d="M250.608 72.5458C250.609 74.2254 250.121 75.8656 249.21 77.249C248.133 78.8848 246.53 80.0631 244.693 80.5703C242.856 81.0775 240.905 80.8799 239.195 80.0134C237.485 79.1468 236.129 77.6688 235.374 75.8474C234.618 74.0261 234.512 71.9821 235.076 70.0863C235.639 68.1905 236.835 66.5685 238.445 65.5147C240.056 64.4609 241.975 64.045 243.854 64.3425C245.733 64.6401 247.448 65.6313 248.687 67.1364C249.926 68.6415 250.608 70.5607 250.608 72.5458Z" fill="#FFB0B1"/>
<path opacity="0.1" d="M264.472 100.454C263.385 99.7555 262.499 98.7615 261.909 97.5783C261.462 96.655 261.164 95.589 260.401 94.9343C259.712 94.3467 258.794 94.2041 257.936 93.9411C255.119 93.0709 252.756 90.385 252.668 87.3185C252.625 85.8748 253.056 84.4339 252.86 83.0042C252.749 82.195 252.441 81.4292 251.966 80.7799C251.73 80.4694 251.471 80.1784 251.192 79.9098C250.817 79.5404 250.423 79.1823 250.08 78.7906C249.864 78.5481 249.675 78.2806 249.517 77.9932C249.39 77.7581 249.287 77.5096 249.209 77.2518C248.674 75.5395 249.161 73.5083 248.572 71.7764L248.54 71.6812C248.317 71.0657 247.865 70.4502 247.235 70.4026C246.606 70.3551 246.067 70.9006 245.467 71.1441C244.211 71.6533 242.856 70.7859 241.808 69.9018C240.761 69.0177 239.58 68.0076 238.248 68.2035C237.367 68.335 236.671 68.9617 235.859 69.2863C235.676 69.3604 235.487 69.4175 235.294 69.4569C235.981 67.6677 237.243 66.1842 238.863 65.2613C240.483 64.3384 242.361 64.0337 244.173 64.3995C245.985 64.7653 247.618 65.7788 248.793 67.2659C249.967 68.753 250.609 70.6209 250.608 72.5486C250.609 73.1307 250.55 73.7112 250.434 74.2805C250.447 74.3196 250.46 74.356 250.476 74.3952C250.787 75.2345 251.138 76.0963 251.446 76.8405L252.96 78.273C252.96 78.273 253.602 78.8326 254.567 79.6719C256.664 81.5185 260.288 84.7697 262.158 86.7589C263.803 88.516 264.317 95.326 264.472 100.454Z" fill="black"/>
<path d="M235.765 64.1746C236.148 63.3605 236.339 62.4484 236.797 61.6761C237.469 60.557 238.642 59.8407 239.848 59.4071C242.995 58.2739 249.646 56.6288 251.634 59.4071C252.025 59.9666 252.349 60.5878 252.89 60.9739C253.302 61.2677 253.801 61.3936 254.253 61.6146C255.52 62.2357 256.329 63.5899 256.761 64.972C257.192 66.3542 257.32 67.837 257.637 69.2611C258.041 71.0882 258.751 72.82 259.458 74.5407C260.291 76.572 261.175 78.6788 262.782 80.1141C264.976 82.0726 265.461 84.8453 267.497 86.994C269.907 89.5457 269.83 93.7564 268.587 97.0999C268.423 97.5392 268.239 97.998 268.303 98.4653C268.367 98.9325 268.699 99.3578 269.013 99.7299L270.331 101.283C267.213 102.069 263.685 100.368 262.233 97.3825C261.786 96.4592 261.488 95.396 260.722 94.7385C260.037 94.1509 259.115 94.0111 258.261 93.7481C255.443 92.8751 253.08 90.1864 252.992 87.1199C252.949 85.679 253.38 84.2381 253.185 82.8112C253.076 81.9966 252.767 81.2254 252.287 80.5729C251.551 79.5685 250.439 78.8942 249.839 77.775C248.824 75.9033 249.595 73.4719 248.864 71.4631C248.639 70.8475 248.189 70.232 247.559 70.1844C246.93 70.1369 246.392 70.6825 245.789 70.9259C244.535 71.4351 243.18 70.5706 242.133 69.6836C241.085 68.7967 239.904 67.7895 238.57 67.9881C237.689 68.1168 236.995 68.7435 236.183 69.0709C235.583 69.3115 234.367 69.5269 233.842 68.9981C232.733 67.9322 235.302 65.1707 235.765 64.1746Z" fill="#591D4B"/>
<path opacity="0.1" d="M262.978 96.4592C262.528 95.5359 262.233 94.4727 261.467 93.818C260.781 93.2304 259.86 93.0877 259.003 92.8247C256.188 91.9546 253.825 89.2659 253.734 86.1994C253.691 84.7585 254.122 83.3148 253.929 81.8879C253.817 81.0785 253.508 80.3127 253.032 79.6636C252.293 78.6592 251.181 77.9849 250.584 76.8657C249.569 74.9967 250.34 72.5654 249.606 70.5537C249.384 69.941 248.931 69.3255 248.304 69.2751C247.677 69.2248 247.134 69.7759 246.534 70.0194C245.28 70.5286 243.922 69.6612 242.877 68.7771C241.833 67.893 240.646 66.8829 239.315 67.0788C238.434 67.2103 237.737 67.837 236.928 68.1616C236.328 68.4022 235.109 68.6204 234.584 68.0916C233.481 66.9725 236.05 64.2166 236.51 63.2261C236.893 62.4092 237.083 61.4999 237.544 60.7276C237.568 60.6857 237.595 60.6437 237.622 60.6017C237.277 60.9 236.98 61.2531 236.741 61.6481C236.283 62.4204 236.092 63.3269 235.709 64.1466C235.246 65.1371 232.677 67.9014 233.783 69.0121C234.319 69.5437 235.525 69.3255 236.125 69.0849C236.928 68.7575 237.63 68.1308 238.511 68.0021C239.851 67.8034 241.029 68.8135 242.074 69.6976C243.118 70.5817 244.485 71.4491 245.733 70.9398C246.333 70.6964 246.858 70.1481 247.501 70.1984C248.144 70.2488 248.572 70.8615 248.805 71.477C249.536 73.4859 248.765 75.9173 249.78 77.789C250.38 78.8886 251.492 79.5769 252.228 80.5869C252.708 81.2394 253.017 82.0106 253.126 82.8252C253.321 84.2521 252.89 85.693 252.933 87.1339C253.021 90.2115 255.384 92.8891 258.202 93.762C259.051 94.025 259.978 94.1649 260.664 94.7525C261.432 95.41 261.735 96.4732 262.174 97.3965C263.626 100.382 267.154 102.083 270.272 101.297L269.65 100.564C266.948 100.606 264.213 98.9996 262.978 96.4592Z" fill="black"/>
<path opacity="0.1" d="M244.511 83.6897C244.161 84.2493 243.156 87.1143 242.318 89.6156C241.533 89.2966 240.82 87.2626 240.82 87.2626L245.004 81.0457C245.433 81.6612 245.152 82.6825 244.511 83.6897Z" fill="black"/>
<path d="M244.672 83.5218C244.321 84.0814 243.317 86.9464 242.478 89.4477C241.693 89.1315 240.981 87.0947 240.981 87.0947L245.165 80.8806C245.594 81.4933 245.312 82.5174 244.672 83.5218Z" fill="#DCE7FF"/>
<path d="M220.345 112.105L218.025 104.464C217.997 104.374 217.987 104.28 217.995 104.187C218.002 104.093 218.027 104.002 218.069 103.918C218.11 103.835 218.167 103.761 218.235 103.7C218.304 103.64 218.384 103.594 218.469 103.566C218.642 103.509 218.829 103.527 218.99 103.614C219.15 103.701 219.271 103.85 219.327 104.03L221.646 111.663L221.416 113.26L220.345 112.105Z" fill="#BE8B87"/>
<path opacity="0.1" d="M218.245 103.792C218.418 103.735 218.605 103.752 218.766 103.839C218.927 103.926 219.049 104.076 219.104 104.257L221.424 111.889L221.25 113.087L221.419 113.272L221.649 111.674L219.316 104.041C219.261 103.862 219.139 103.712 218.979 103.625C218.818 103.538 218.631 103.521 218.459 103.577C218.314 103.626 218.188 103.725 218.103 103.857C218.148 103.831 218.196 103.81 218.245 103.792Z" fill="white"/>
<path d="M220.345 112.105L221.647 111.674L221.456 112.983L221.416 113.272L221.036 112.857L220.345 112.105Z" fill="#EFC8C4"/>
<path d="M221.036 112.857C221.058 112.828 221.087 112.803 221.119 112.785C221.138 112.772 221.159 112.766 221.182 112.766C221.204 112.766 221.226 112.772 221.245 112.785C221.263 112.808 221.278 112.833 221.29 112.86C221.308 112.891 221.332 112.917 221.361 112.937C221.389 112.957 221.422 112.97 221.456 112.975L221.416 113.255L221.036 112.857Z" fill="#727A9C"/>
<path d="M218.012 107.178C218.012 107.178 222.665 107.15 221.569 109.217C220.473 111.285 218.762 111.534 218.762 111.534L218.012 107.178Z" fill="#FFB0B1"/>
<path d="M189.074 14.3866H188.873C180.88 14.3866 173.811 18.8044 169.745 25.3234C165.679 18.8044 158.61 14.3866 150.617 14.3866H150.416C144.418 14.4463 138.684 16.9763 134.461 21.4268C130.239 25.8773 127.868 31.8886 127.865 38.1545C127.865 45.9353 131.127 56.9757 137.489 66.0603C149.61 83.3707 169.745 98.5156 169.745 98.5156C169.745 98.5156 189.881 83.3735 201.999 66.0603C208.363 56.9757 211.623 45.9353 211.623 38.1545C211.62 31.8891 209.25 25.8782 205.027 21.4278C200.805 16.9774 195.072 14.447 189.074 14.3866ZM186.2 67.3921C185.29 67.3885 184.402 67.0975 183.653 66.5572C182.904 66.0169 182.328 65.2527 182.003 64.3648H177.224C176.909 64.3628 176.603 64.2582 176.348 64.0656C176.093 63.8729 175.902 63.602 175.802 63.2905L174.334 58.6712L169.689 75.6235C169.599 75.9498 169.409 76.2367 169.149 76.441C168.889 76.6453 168.573 76.7561 168.248 76.7566H168.154C167.815 76.7394 167.491 76.6012 167.238 76.3649C166.984 76.1286 166.816 75.8086 166.761 75.4584L161.974 45.3869L158.476 63.1813C158.396 63.5194 158.21 63.8196 157.947 64.0341C157.684 64.2486 157.36 64.3651 157.027 64.3648H150.296C150.094 64.3738 149.892 64.34 149.703 64.2654C149.515 64.1909 149.342 64.0773 149.196 63.9313C149.05 63.7853 148.934 63.61 148.855 63.416C148.776 63.222 148.735 63.0132 148.735 62.8022C148.735 62.5913 148.776 62.3825 148.855 62.1885C148.934 61.9944 149.05 61.8192 149.196 61.6732C149.342 61.5272 149.515 61.4135 149.703 61.339C149.892 61.2645 150.094 61.2307 150.296 61.2396H155.848L160.804 37.3151C160.885 36.9614 161.082 36.6482 161.36 36.429C161.638 36.2098 161.98 36.0983 162.328 36.1135C162.676 36.1287 163.008 36.2697 163.267 36.5123C163.527 36.755 163.698 37.0842 163.75 37.4438L168.639 68.1196L172.802 52.9524C172.888 52.6329 173.071 52.3513 173.324 52.1496C173.576 51.9479 173.885 51.8369 174.202 51.8332H174.232C174.547 51.8333 174.853 51.9372 175.108 52.1302C175.363 52.3231 175.553 52.5952 175.652 52.9076L178.306 61.248H181.944C182.202 60.4273 182.673 59.6972 183.304 59.1382C183.935 58.5793 184.701 58.2133 185.518 58.0805C186.336 57.9478 187.172 58.0536 187.936 58.3861C188.699 58.7187 189.36 59.2651 189.845 59.9651C190.33 60.6651 190.62 61.4914 190.684 62.3529C190.748 63.2143 190.582 64.0774 190.206 64.8469C189.83 65.6164 189.257 66.2624 188.552 66.7135C187.846 67.1646 187.035 67.4033 186.208 67.4033L186.2 67.3921Z" fill="#11A4FF"/>
</g>
<defs>
<linearGradient id="paint0_linear_95_679" x1="95.4476" y1="216.798" x2="95.4476" y2="44.6343" gradientUnits="userSpaceOnUse">
<stop stop-color="#808080" stop-opacity="0.25"/>
<stop offset="0.54" stop-color="#808080" stop-opacity="0.12"/>
<stop offset="1" stop-color="#808080" stop-opacity="0.1"/>
</linearGradient>
<linearGradient id="paint1_linear_95_679" x1="239.317" y1="214.621" x2="239.317" y2="57.3814" gradientUnits="userSpaceOnUse">
<stop stop-color="#808080" stop-opacity="0.25"/>
<stop offset="0.54" stop-color="#808080" stop-opacity="0.12"/>
<stop offset="1" stop-color="#808080" stop-opacity="0.1"/>
</linearGradient>
<clipPath id="clip0_95_679">
<rect width="296" height="219" fill="white"/>
</clipPath>
</defs>
</svg>
