<svg width="351" height="275" viewBox="0 0 351 275" fill="none" xmlns="http://www.w3.org/2000/svg">
<path d="M319.502 251.046C312.773 258.235 305.063 264.442 296.599 269.485C296.405 269.604 296.208 269.715 296.01 269.831L282.307 257.729C282.451 257.595 282.61 257.446 282.782 257.281C292.992 247.607 343.677 179.966 347.054 163.494C346.821 164.867 350.102 218.681 319.502 251.046Z" fill="#F0F0F0"/>
<path d="M299.243 271.82C298.984 271.881 298.721 271.939 298.456 271.992L288.176 262.912C288.377 262.842 288.612 262.759 288.88 262.667C293.291 261.109 306.428 256.404 319.501 251.045C333.548 245.285 347.528 238.776 350.534 234.607C349.889 235.576 330.023 264.951 299.243 271.82Z" fill="#F0F0F0"/>
<path d="M319.312 72.0217H317.848V32.0018C317.848 28.9601 317.247 25.9482 316.081 23.138C314.914 20.3278 313.205 17.7744 311.049 15.6235C308.894 13.4727 306.335 11.7666 303.519 10.6026C300.703 9.43853 297.685 8.83942 294.637 8.83942H209.671C206.623 8.83941 203.604 9.43852 200.788 10.6025C197.972 11.7665 195.413 13.4727 193.258 15.6235C191.103 17.7743 189.393 20.3277 188.226 23.1379C187.06 25.9481 186.459 28.96 186.459 32.0018V251.554C186.459 254.596 187.06 257.608 188.226 260.418C189.393 263.228 191.102 265.781 193.258 267.932C195.413 270.083 197.972 271.789 200.788 272.953C203.604 274.117 206.622 274.716 209.671 274.716H294.636C297.685 274.716 300.703 274.117 303.519 272.953C306.335 271.789 308.894 270.083 311.049 267.932C313.205 265.782 314.914 263.228 316.081 260.418C317.247 257.608 317.848 254.596 317.848 251.554V100.509H319.312V72.0217Z" fill="#3F3D56"/>
<path d="M312.907 32.161V251.394C312.907 253.665 312.458 255.914 311.587 258.013C310.716 260.112 309.439 262.018 307.829 263.624C306.219 265.23 304.308 266.504 302.204 267.373C300.101 268.242 297.847 268.688 295.57 268.687H210.196C207.92 268.688 205.666 268.24 203.563 267.371C201.461 266.502 199.55 265.228 197.941 263.623C196.332 262.017 195.055 260.11 194.184 258.012C193.313 255.914 192.865 253.665 192.865 251.394V32.161C192.865 29.8898 193.313 27.6409 194.184 25.5427C195.055 23.4444 196.332 21.5379 197.941 19.932C199.55 18.326 201.461 17.0522 203.563 16.1832C205.666 15.3141 207.92 14.8669 210.196 14.8671H220.556C220.048 16.115 219.854 17.4684 219.993 18.8084C220.131 20.1485 220.598 21.434 221.351 22.5519C222.104 23.6698 223.121 24.5859 224.312 25.2196C225.504 25.8533 226.833 26.1853 228.183 26.1861H276.857C278.208 26.1874 279.539 25.8569 280.731 25.2238C281.923 24.5907 282.942 23.6744 283.695 22.5559C284.449 21.4373 284.915 20.1508 285.053 18.8099C285.19 17.469 284.995 16.1149 284.484 14.8671H295.57C297.847 14.8663 300.101 15.313 302.204 16.1817C304.308 17.0504 306.219 18.3242 307.829 19.9301C309.439 21.5361 310.716 23.4428 311.587 25.5414C312.458 27.64 312.907 29.8894 312.907 32.161Z" fill="white"/>
<path d="M286.35 146.086H211.308C209.993 146.084 208.733 145.563 207.804 144.635C206.874 143.708 206.352 142.45 206.35 141.139V138.676C206.352 137.365 206.874 136.107 207.804 135.18C208.733 134.252 209.993 133.73 211.308 133.729H286.35C287.664 133.73 288.924 134.252 289.854 135.18C290.783 136.107 291.306 137.365 291.307 138.676V141.139C291.306 142.45 290.783 143.708 289.854 144.635C288.924 145.563 287.664 146.084 286.35 146.086Z" fill="#F0F0F0"/>
<path d="M286.35 167.313H211.308C209.993 167.312 208.733 166.79 207.804 165.862C206.874 164.935 206.352 163.678 206.35 162.366V159.903C206.352 158.592 206.874 157.334 207.804 156.407C208.733 155.479 209.993 154.958 211.308 154.956H286.35C287.664 154.958 288.924 155.479 289.854 156.407C290.783 157.334 291.306 158.592 291.307 159.903V162.366C291.306 163.678 290.783 164.935 289.854 165.862C288.924 166.79 287.664 167.312 286.35 167.313Z" fill="#F0F0F0"/>
<path d="M290.104 141.339H215.062C213.682 141.337 212.359 140.789 211.383 139.815C210.407 138.841 209.858 137.521 209.856 136.144V133.681C209.858 132.304 210.407 130.984 211.383 130.01C212.359 129.036 213.682 128.488 215.062 128.487H290.104C291.484 128.488 292.807 129.036 293.783 130.01C294.759 130.984 295.308 132.304 295.309 133.681V136.144C295.308 137.521 294.759 138.841 293.783 139.815C292.807 140.789 291.484 141.337 290.104 141.339ZM215.062 129.476C213.945 129.478 212.874 129.921 212.084 130.709C211.294 131.498 210.849 132.567 210.848 133.681V136.144C210.849 137.259 211.294 138.328 212.084 139.116C212.874 139.904 213.945 140.348 215.062 140.349H290.104C291.221 140.348 292.292 139.904 293.082 139.116C293.872 138.328 294.317 137.259 294.318 136.144V133.681C294.317 132.567 293.872 131.498 293.082 130.709C292.292 129.921 291.221 129.478 290.104 129.476H215.062Z" fill="#3F3D56"/>
<path d="M290.104 162.566H215.062C213.682 162.564 212.359 162.016 211.383 161.042C210.407 160.069 209.858 158.748 209.856 157.371V154.909C209.858 153.531 210.407 152.211 211.383 151.237C212.359 150.263 213.682 149.716 215.062 149.714H290.104C291.484 149.716 292.807 150.263 293.783 151.237C294.759 152.211 295.308 153.531 295.309 154.909V157.371C295.308 158.748 294.759 160.069 293.783 161.042C292.807 162.016 291.484 162.564 290.104 162.566ZM215.062 150.703C213.945 150.705 212.874 151.148 212.084 151.936C211.294 152.725 210.849 153.794 210.848 154.909V157.371C210.849 158.486 211.294 159.555 212.084 160.343C212.874 161.132 213.945 161.575 215.062 161.576H290.104C291.221 161.575 292.292 161.132 293.082 160.343C293.872 159.555 294.317 158.486 294.318 157.371V154.909C294.317 153.794 293.872 152.725 293.082 151.936C292.292 151.148 291.221 150.705 290.104 150.703H215.062Z" fill="#3F3D56"/>
<path d="M312.907 32.161V79.8471C305.314 81.8406 297.364 82.0693 289.668 80.5156C281.973 78.962 274.737 75.6675 268.517 70.8854C262.298 66.1034 257.261 59.9614 253.793 52.9319C250.326 45.9025 248.52 38.1729 248.516 30.3379C248.516 28.9395 248.572 27.5555 248.685 26.1861H276.857C278.208 26.1874 279.539 25.8569 280.731 25.2238C281.924 24.5907 282.942 23.6744 283.695 22.5559C284.449 21.4373 284.915 20.1508 285.053 18.8099C285.19 17.469 284.995 16.1149 284.484 14.8671H295.571C297.847 14.8663 300.101 15.313 302.204 16.1817C304.308 17.0504 306.219 18.3242 307.829 19.9301C309.439 21.5361 310.716 23.4428 311.587 25.5414C312.459 27.64 312.907 29.8894 312.907 32.161Z" fill="#F0F0F0"/>
<path d="M236.003 265.709C236.003 266.715 235.966 267.707 235.884 268.687H210.196C207.92 268.688 205.666 268.24 203.563 267.371C201.461 266.502 199.55 265.228 197.941 263.623C196.332 262.017 195.055 260.11 194.184 258.012C193.313 255.914 192.865 253.665 192.865 251.394V227.944C198.25 227.245 203.722 227.699 208.917 229.277C214.112 230.854 218.91 233.519 222.992 237.092C227.074 240.666 230.346 245.067 232.589 250.001C234.833 254.936 235.997 260.291 236.003 265.709H236.003Z" fill="#11A4FF"/>
<path d="M28.8145 224.564C29.5363 224.88 30.3546 224.899 31.0898 224.614C31.8251 224.33 32.4172 223.766 32.7365 223.046L55.8783 170.708C56.408 169.51 56.5698 168.182 56.3434 166.893C56.1169 165.603 55.5123 164.41 54.6061 163.463C53.6999 162.517 52.5326 161.859 51.2521 161.575C49.9716 161.29 48.6352 161.391 47.412 161.864H47.4119C45.9987 162.403 44.8162 163.413 44.0655 164.724C43.946 164.931 43.8377 165.145 43.741 165.363L20.5992 217.702C20.4414 218.059 20.3557 218.443 20.3467 218.833C20.3378 219.222 20.4059 219.61 20.5471 219.973C20.6883 220.337 20.8999 220.669 21.1697 220.951C21.4396 221.233 21.7624 221.459 22.1199 221.616L28.8145 224.564Z" fill="#11A4FF"/>
<path d="M54.9281 192.195L32.0378 187.119L37.7034 172.162C38.6686 168.507 40.9147 165.318 44.0344 163.173C47.1542 161.028 50.9408 160.071 54.7076 160.473L54.9281 160.498L54.9281 192.195Z" fill="#2F2E41"/>
<path d="M101.163 225.312C100.49 225.311 99.8311 225.115 99.2669 224.749C98.7028 224.382 98.2572 223.86 97.9841 223.246L74.8423 170.907C74.1063 169.242 74.0379 167.359 74.6511 165.645C75.2643 163.93 76.5125 162.516 78.1389 161.692C79.7653 160.869 81.6462 160.698 83.3947 161.216C85.1431 161.734 86.6261 162.901 87.5385 164.477V164.477C87.6667 164.7 87.783 164.929 87.8868 165.164L111.029 217.503C111.4 218.343 111.422 219.296 111.089 220.152C110.757 221.009 110.097 221.698 109.254 222.069L102.333 225.116L102.329 225.108C101.955 225.243 101.561 225.312 101.163 225.312Z" fill="#11A4FF"/>
<path d="M69.1518 207.339C68.3632 207.34 67.6071 207.653 67.0494 208.21C66.4918 208.766 66.1781 209.521 66.1772 210.308V271.166C66.1781 271.953 66.4918 272.707 67.0494 273.264C67.6071 273.82 68.3632 274.133 69.1518 274.134H76.469C77.2577 274.133 78.0138 273.82 78.5714 273.264C79.1291 272.707 79.4427 271.953 79.4436 271.166V210.308C79.4427 209.521 79.1291 208.766 78.5714 208.21C78.0138 207.653 77.2577 207.34 76.469 207.339H69.1518Z" fill="#11A4FF"/>
<path d="M54.6792 207.339C53.8905 207.34 53.1344 207.653 52.5768 208.21C52.0191 208.766 51.7055 209.521 51.7046 210.308V271.166C51.7055 271.953 52.0191 272.707 52.5768 273.264C53.1344 273.82 53.8905 274.133 54.6792 274.134H61.9965C62.7851 274.133 63.5412 273.82 64.0989 273.264C64.6565 272.707 64.9702 271.953 64.9711 271.166V210.308C64.9702 209.521 64.6565 208.766 64.0989 208.21C63.5412 207.653 62.7851 207.34 61.9965 207.339H54.6792Z" fill="#11A4FF"/>
<path d="M65.3554 143.58C79.3193 143.58 90.6393 132.284 90.6393 118.349C90.6393 104.415 79.3193 93.1186 65.3554 93.1186C51.3915 93.1186 40.0715 104.415 40.0715 118.349C40.0715 132.284 51.3915 143.58 65.3554 143.58Z" fill="#11A4FF"/>
<path d="M73.7695 128.941C75.4085 128.896 77.4482 128.839 79.0196 127.693C79.4876 127.338 79.872 126.885 80.1461 126.366C80.4201 125.847 80.5772 125.275 80.6061 124.689C80.6345 124.273 80.5661 123.855 80.4061 123.47C80.2461 123.084 79.9989 122.741 79.6838 122.466C78.8631 121.774 77.6646 121.612 76.373 121.99L77.7112 112.232L76.7289 112.097L75.1557 123.57L75.976 123.194C76.9271 122.759 78.2326 122.538 79.0438 123.222C79.243 123.401 79.3982 123.623 79.4973 123.871C79.5964 124.12 79.6368 124.388 79.6153 124.654C79.5912 125.09 79.4733 125.516 79.2696 125.903C79.0659 126.289 78.7812 126.627 78.4347 126.894C77.2119 127.786 75.586 127.901 73.7419 127.952L73.7695 128.941Z" fill="#2F2E41"/>
<path d="M87.9093 113.073H82.5691V114.063H87.9093V113.073Z" fill="#2F2E41"/>
<path d="M71.0535 113.073H65.7134V114.063H71.0535V113.073Z" fill="#2F2E41"/>
<path d="M90.4082 225.62L81.308 159.327C81.2104 158.616 80.8581 157.964 80.3162 157.493C79.7744 157.021 79.0797 156.761 78.3607 156.761H71.4917C71.5204 156.598 71.5353 156.433 71.5363 156.267V153.793C71.5363 153.006 71.2229 152.251 70.665 151.694C70.1072 151.137 69.3506 150.825 68.5617 150.825H62.6126C61.8237 150.825 61.0671 151.137 60.5092 151.694C59.9514 152.251 59.638 153.006 59.638 153.793V156.267C59.639 156.433 59.6539 156.598 59.6825 156.761H52.8135C52.0945 156.761 51.3998 157.021 50.858 157.493C50.3162 157.965 49.9639 158.616 49.8663 159.327L40.766 225.62C40.7084 226.04 40.7415 226.467 40.8632 226.873C40.9849 227.279 41.1923 227.654 41.4715 227.974C41.7507 228.293 42.0952 228.549 42.4819 228.725C42.8685 228.9 43.2883 228.991 43.713 228.991H87.4612C87.8859 228.991 88.3057 228.9 88.6923 228.725C89.079 228.549 89.4235 228.293 89.7027 227.974C89.9819 227.654 90.1893 227.279 90.311 226.873C90.4327 226.467 90.4658 226.04 90.4082 225.62Z" fill="#2F2E41"/>
<path d="M76.2458 192.195V160.498L76.4664 160.473C80.2377 160.071 84.0286 161.032 87.1503 163.182C90.272 165.331 92.5175 168.527 93.4787 172.188L99.136 187.119L76.2458 192.195Z" fill="#2F2E41"/>
<path d="M64.0823 144.368L46.594 137.594C43.7343 136.486 40.8586 135.412 38.0141 134.267C36.7956 133.843 35.6732 133.183 34.7115 132.324C33.8743 131.44 33.3037 130.338 33.0651 129.145C32.4585 126.586 32.5682 123.789 32.6114 121.178C32.645 118.322 32.8805 115.472 33.3163 112.649C34.08 107.344 35.8735 102.239 38.5963 97.6192C43.5007 89.5891 51.9507 83.5475 61.6705 84.0297C66.1704 84.2529 70.6962 85.8642 74.0395 88.9343C74.3883 89.3503 74.7795 89.7287 75.207 90.0635C75.5042 90.1747 75.8275 90.1964 76.1369 90.1258C76.5449 90.0996 76.9532 90.0797 77.3619 90.0659C78.7799 90.0062 80.2004 90.0656 81.6084 90.2436C84.1742 90.5202 86.6061 91.5279 88.6137 93.1463C90.2845 94.5805 91.6439 96.6053 91.7838 98.8553C91.8514 99.8883 91.6802 100.923 91.2836 101.879C90.887 102.836 90.2754 103.689 89.4962 104.372C87.4098 106.127 84.433 105.51 81.9302 105.377L72.7617 104.893L68.1163 104.647C67.1598 104.597 67.1626 106.081 68.1163 106.131L80.4633 106.784C82.4474 106.889 84.4923 107.146 86.4781 107.027C88.0038 106.958 89.4608 106.373 90.6093 105.369C91.6583 104.407 92.4397 103.191 92.8773 101.838C93.3149 100.485 93.3938 99.0427 93.1063 97.6506C92.4697 94.6142 90.2052 92.1024 87.5505 90.6081C83.9383 88.5749 79.6242 88.3801 75.5824 88.6807L76.1082 88.898C71.5362 84.0012 64.5329 81.9337 57.9582 82.6572C51.0164 83.4212 44.8423 87.2858 40.4062 92.5702C35.4602 98.4621 32.765 105.809 31.7172 113.363C31.1719 117.442 30.9924 121.561 31.1808 125.672C31.173 127.485 31.4838 129.285 32.0991 130.991C32.801 132.651 34.0702 134.009 35.681 134.823C37.5277 135.712 39.4262 136.491 41.3663 137.153L47.8094 139.649L60.4654 144.551L63.6869 145.799C64.5797 146.145 64.9664 144.71 64.0823 144.368Z" fill="#2F2E41"/>
<path d="M36.585 93.9317C35.0651 93.9317 33.5795 93.4819 32.3158 92.6393C31.0521 91.7967 30.0672 90.5991 29.4856 89.198C28.904 87.7968 28.7518 86.255 29.0483 84.7675C29.3448 83.28 30.0766 81.9137 31.1513 80.8412C32.226 79.7688 33.5952 79.0385 35.0858 78.7426C36.5764 78.4467 38.1215 78.5986 39.5256 79.179C40.9297 79.7594 42.1299 80.7422 42.9742 82.0032C43.8186 83.2643 44.2693 84.7468 44.2693 86.2635C44.267 88.2965 43.4567 90.2456 42.0161 91.6832C40.5755 93.1207 38.6223 93.9294 36.585 93.9317ZM36.585 80.0794C35.3593 80.0794 34.1612 80.4421 33.1421 81.1216C32.123 81.8011 31.3287 82.767 30.8597 83.8969C30.3906 85.0269 30.2679 86.2703 30.507 87.4699C30.7461 88.6695 31.3363 89.7714 32.203 90.6362C33.0697 91.5011 34.1739 92.0901 35.376 92.3287C36.5781 92.5673 37.8241 92.4448 38.9565 91.9768C40.0888 91.5087 41.0567 90.7161 41.7376 89.6991C42.4185 88.6822 42.782 87.4865 42.782 86.2635C42.7801 84.6239 42.1267 83.0521 40.9649 81.8927C39.8031 80.7334 38.228 80.0813 36.585 80.0794Z" fill="#2F2E41"/>
<path d="M165.039 141.452L148.407 128.758L135.686 145.355L152.318 158.05L165.039 141.452Z" fill="#F0F0F0"/>
<path d="M71.0405 28.1336C73.6684 28.1315 76.2603 28.7436 78.6086 29.9207C80.9569 31.0978 82.9964 32.8074 84.5636 34.9123L94.2755 22.2407L65.1352 0L42.8479 29.0793L55.4073 38.6649C56.6641 35.5544 58.8241 32.8897 61.6097 31.0131C64.3954 29.1366 67.6796 28.1338 71.0405 28.1336Z" fill="#F0F0F0"/>
<path d="M265.078 192.91H229.452C228.137 192.909 226.877 192.387 225.948 191.46C225.018 190.532 224.496 189.275 224.494 187.963V185.501C224.496 184.189 225.018 182.932 225.948 182.004C226.877 181.077 228.137 180.555 229.452 180.553H265.078C266.393 180.555 267.653 181.077 268.582 182.004C269.512 182.932 270.034 184.189 270.036 185.501V187.963C270.034 189.275 269.512 190.532 268.582 191.46C267.653 192.387 266.393 192.909 265.078 192.91Z" fill="#11A4FF"/>
<path d="M268.832 188.163H233.206C231.825 188.162 230.502 187.614 229.526 186.64C228.551 185.666 228.002 184.346 228 182.969V180.506C228.002 179.129 228.551 177.809 229.526 176.835C230.502 175.861 231.825 175.313 233.206 175.312H268.832C270.212 175.313 271.535 175.861 272.511 176.835C273.487 177.809 274.036 179.129 274.038 180.506V182.969C274.036 184.346 273.487 185.666 272.511 186.64C271.535 187.614 270.212 188.162 268.832 188.163ZM233.206 176.301C232.088 176.302 231.017 176.746 230.227 177.534C229.437 178.322 228.993 179.391 228.992 180.506V182.969C228.993 184.084 229.437 185.152 230.227 185.941C231.017 186.729 232.088 187.173 233.206 187.174H268.832C269.949 187.173 271.021 186.729 271.811 185.941C272.601 185.152 273.045 184.084 273.046 182.969V180.506C273.045 179.391 272.601 178.322 271.811 177.534C271.021 176.746 269.949 176.302 268.832 176.301H233.206Z" fill="#3F3D56"/>
</svg>
