<svg width="296" height="219" viewBox="0 0 296 219" fill="none" xmlns="http://www.w3.org/2000/svg">
<g clip-path="url(#clip0_27_42)">
<path opacity="0.1" d="M19.3732 85.8366H45.0993V120.945H21.2542C21.1934 121.308 21.1325 121.669 21.0641 122.032H45.0993V150.341C45.0588 150.341 45.0182 150.31 44.9802 150.295C44.3041 150.026 43.6281 149.741 42.9521 149.44C42.8076 149.374 42.6656 149.305 42.5186 149.242C41.8426 148.922 41.1665 148.584 40.4905 148.227C40.2548 148.102 40.019 147.973 39.7883 147.841C36.0353 145.744 32.6242 143.086 29.6733 139.958C29.5845 139.874 29.5034 139.783 29.4198 139.704C29.0091 139.257 28.606 138.806 28.2156 138.344C28.0686 138.174 27.9266 138.001 27.7821 137.836C27.3207 137.273 26.8745 136.689 26.4436 136.102C26.3777 136.014 26.3168 135.927 26.2534 135.849C24.488 133.403 23.0239 130.753 21.8931 127.955C21.8576 127.872 21.8246 127.78 21.7917 127.702C21.4418 126.813 21.1249 125.912 20.8511 124.993C20.7345 124.61 20.6205 124.232 20.5241 123.834C20.4886 123.719 20.4607 123.603 20.4303 123.488C19.0056 117.867 18.8408 112.024 18.8408 106.209C18.8408 105.533 18.8408 104.856 18.8408 104.179C18.8611 101.805 18.889 99.4337 18.9245 97.0649C18.938 96.4557 18.9507 95.8441 18.9625 95.2299C18.998 93.6749 19.0487 92.1165 19.1146 90.5548C19.1298 90.1233 19.1501 89.6893 19.1729 89.2604C19.1831 89.0117 19.1957 88.7629 19.2109 88.5142C19.2566 87.6157 19.3107 86.7232 19.3732 85.8366Z" fill="#11A4FF"/>
<path opacity="0.1" d="M45.0992 46.7457H30.9863C33.2815 43.153 35.7881 39.7003 38.4927 36.4057C40.5918 33.827 42.8024 31.3144 45.0992 28.8931V46.7457Z" fill="#11A4FF"/>
<path opacity="0.1" d="M45.0993 47.8269V84.7503H19.4543C19.4543 84.6437 19.4696 84.5345 19.4797 84.428C19.5025 84.1361 19.5253 83.8467 19.5507 83.5549C19.576 83.2148 19.609 82.8747 19.6419 82.5396C19.6749 82.2046 19.7079 81.7985 19.7484 81.4305C19.789 81.0625 19.8219 80.6894 19.8625 80.3214C19.9031 79.9534 19.9436 79.5854 19.9893 79.2199C20.0349 78.8544 20.0754 78.4839 20.1261 78.1184C20.1642 77.8164 20.2022 77.5118 20.2453 77.2072C20.3036 76.7783 20.3644 76.3494 20.4278 75.923C20.4278 75.857 20.4481 75.7935 20.4582 75.7301C20.9216 72.609 21.5512 69.515 22.3444 66.4612C23.1773 63.2582 24.2406 60.1198 25.5259 57.0704C26.8916 53.8754 28.4914 50.7858 30.3122 47.8269H45.0993Z" fill="#11A4FF"/>
<path opacity="0.1" d="M51.2444 85.8366V120.945H106.195V85.8366H51.2444ZM51.2444 122.032V152.184C51.5587 152.247 51.868 152.31 52.1798 152.364C52.5981 152.445 53.019 152.519 53.4474 152.582L53.7009 152.618C53.8682 152.645 54.0381 152.668 54.2079 152.689C54.6313 152.749 55.0546 152.795 55.4755 152.836C55.6732 152.856 55.8785 152.871 56.0788 152.889L56.5681 152.925C56.8343 152.945 57.0979 152.96 57.3616 152.97C57.5238 152.97 57.6861 152.983 57.8508 152.988C58.0156 152.993 58.1043 152.988 58.2362 152.988H58.7153C58.9333 152.988 59.1513 152.988 59.3668 152.988H59.6457C59.8637 152.988 60.0817 152.988 60.2972 152.968H60.3099C60.462 152.968 60.6116 152.968 60.7637 152.95C60.8067 152.953 60.8499 152.953 60.8929 152.95C61.0197 152.95 61.1465 152.95 61.2681 152.935C61.2968 152.932 61.3257 152.932 61.3543 152.935C61.6357 152.917 61.9197 152.894 62.2061 152.869C62.4926 152.843 62.7639 152.813 63.0503 152.783L63.6258 152.711C65.9773 152.382 68.3027 151.887 70.5846 151.229C75.7131 149.798 80.725 147.795 85.8509 146.331C92.4726 144.44 99.794 143.508 106.193 145.81V122.032H51.2444ZM106.195 46.7457V0.00507174C100.18 -0.0611893 94.1803 0.642472 88.3429 2.09896C74.4278 5.59892 61.9323 13.1902 51.2444 22.8855V46.7431H54.0102V47.8269H51.2444V84.7503H106.195V47.8269H65.3243V46.7406L106.195 46.7457ZM176.792 30.9565C173.35 30.8347 169.927 29.7458 166.829 28.058C160.913 24.8373 156.182 19.8576 150.899 15.6597C139.922 6.91108 126.308 1.62942 112.343 0.319789V46.7457H190.781L190.976 46.5401L176.792 30.9565ZM183.939 29.6875L191.516 38.0148V27.4971C188.966 27.8195 186.745 28.5682 183.939 29.6773V29.6875ZM191.516 159.671V122.032H175.357C175.317 121.872 175.271 121.709 175.221 121.547C175.269 121.709 175.312 121.872 175.355 122.032H112.343V149.25C112.941 149.694 113.532 150.163 114.117 150.635C114.749 151.153 115.377 151.677 116.001 152.206L116.63 152.727C116.931 152.98 117.238 153.234 117.542 153.475C118.152 153.968 118.767 154.455 119.385 154.937C119.694 155.181 120.005 155.42 120.318 155.656C125.27 159.444 130.492 162.864 135.944 165.886C137.166 166.569 138.401 167.226 139.643 167.869C140.47 168.295 141.302 168.713 142.14 169.122C143.398 169.737 144.665 170.329 145.943 170.899C157.722 176.193 170.179 179.825 182.955 181.691C185.791 182.109 188.64 182.439 191.501 182.681V159.666H191.754L191.516 159.671ZM112.343 47.8269V84.7503H191.516V47.8269H112.343ZM112.343 85.8315V120.945H191.516V85.8366L112.343 85.8315ZM197.661 27.4464V39.1975L207.33 28.5707C204.126 28.0411 200.903 27.6663 197.661 27.4464ZM197.661 85.8366V120.945H274.665V85.8366H197.661ZM274.393 162.455L274.665 122.032H197.661V183.089C202.621 183.296 207.589 183.236 212.542 182.909H212.628C214.994 182.757 217.35 182.54 219.694 182.259H219.747C232.256 180.801 244.488 177.53 256.057 172.549M289.52 91.603C289.228 90.9262 288.928 90.2494 288.62 89.5726C288.047 88.3036 287.444 87.0701 286.82 85.8391H280.812V120.945H296C295.987 111.001 293.473 100.849 289.52 91.603ZM280.812 122.032V156.803C285.089 152.699 288.707 148.001 291.308 142.63C294.438 136.161 295.871 129.161 295.99 122.029L280.812 122.032ZM280.812 75.6057V84.7427H286.258C284.607 81.6018 282.789 78.5517 280.812 75.6057ZM228.589 34.3372C228.189 34.1823 227.786 34.0275 227.383 33.8803C223.133 32.3078 218.789 31.0007 214.378 29.9667L199.578 46.2254L199.289 46.5375L199.479 46.7431H252.153C244.816 41.6889 236.907 37.5244 228.589 34.3372ZM253.699 47.8269H198.741L197.661 48.8142V84.7503H207.13H274.665V67.3393C268.558 59.9459 261.51 53.3858 253.699 47.8269Z" fill="#11A4FF"/>
<path opacity="0.1" d="M45.0993 66.4536V84.7503H19.4543C19.4543 84.6437 19.4696 84.5346 19.4797 84.428C19.5025 84.1361 19.5253 83.8467 19.5507 83.5549C19.576 83.2148 19.609 82.8747 19.6419 82.5397C19.6749 82.2046 19.7079 81.7985 19.7484 81.4305C19.789 81.0625 19.8219 80.6894 19.8625 80.3214C19.9031 79.9534 19.9436 79.5854 19.9893 79.2199C20.0349 78.8544 20.0754 78.4839 20.1261 78.1184C20.1642 77.8164 20.2022 77.5118 20.2453 77.2072C20.3036 76.7783 20.3644 76.3494 20.4278 75.923C20.4278 75.857 20.4481 75.7935 20.4582 75.7301C20.9216 72.609 21.5512 69.515 22.3444 66.4612L45.0993 66.4536Z" fill="#11A4FF"/>
<path opacity="0.1" d="M19.3732 85.8366H45.0993V120.945H21.2542C21.1934 121.308 21.1325 121.669 21.0641 122.032H45.0993V150.341C45.0588 150.341 45.0182 150.31 44.9802 150.295C44.3041 150.026 43.6281 149.741 42.9521 149.44C42.8076 149.374 42.6656 149.305 42.5186 149.242C41.8426 148.922 41.1665 148.584 40.4905 148.227C40.2548 148.102 40.019 147.973 39.7883 147.841C36.0353 145.744 32.6242 143.086 29.6733 139.958C29.5845 139.874 29.5034 139.783 29.4198 139.704C29.0091 139.257 28.606 138.806 28.2156 138.344C28.0686 138.174 27.9266 138.001 27.7821 137.836C27.3207 137.273 26.8745 136.689 26.4436 136.102C26.3777 136.014 26.3168 135.927 26.2534 135.849C24.488 133.403 23.0239 130.753 21.8931 127.955C21.8576 127.872 21.8246 127.78 21.7917 127.702C21.4418 126.813 21.1249 125.912 20.8511 124.993C20.7345 124.61 20.6205 124.232 20.5241 123.834C20.4886 123.719 20.4607 123.603 20.4303 123.488C19.0056 117.867 18.8408 112.024 18.8408 106.209C18.8408 105.533 18.8408 104.856 18.8408 104.179C18.8611 101.805 18.889 99.4337 18.9245 97.0649C18.938 96.4557 18.9507 95.8441 18.9625 95.2299C18.998 93.6749 19.0487 92.1165 19.1146 90.5548C19.1298 90.1233 19.1501 89.6893 19.1729 89.2604C19.1831 89.0117 19.1957 88.7629 19.2109 88.5142C19.2566 87.6157 19.3107 86.7232 19.3732 85.8366Z" fill="#11A4FF"/>
<path opacity="0.1" d="M70.5872 53.1161V84.7503H51.2419V53.1161H54.0001V42.4056H65.3219V53.1161H70.5872Z" fill="#11A4FF"/>
<path opacity="0.1" d="M70.5847 85.834H51.2419V120.943H70.5847V85.834Z" fill="#11A4FF"/>
<path opacity="0.1" d="M51.2444 122.032H70.5872V151.219C68.3055 151.877 65.98 152.371 63.6283 152.699C63.4356 152.727 63.2455 152.749 63.0529 152.77C62.7689 152.803 62.4875 152.833 62.2061 152.859L61.3569 152.927H61.2707L60.8955 152.947H60.7662C60.6141 152.947 60.4645 152.965 60.3124 152.968H60.2997C60.0817 152.968 59.8662 152.983 59.6482 152.988H59.3694C59.1539 152.988 58.9384 152.988 58.7178 152.988H58.2412H57.8534C57.6886 152.988 57.5263 152.988 57.3616 152.968C57.1013 152.958 56.8376 152.942 56.5706 152.922L56.0813 152.887C55.8785 152.871 55.6757 152.851 55.4755 152.831C55.0496 152.793 54.627 152.745 54.2079 152.686L53.7009 152.615L53.4474 152.579C53.024 152.516 52.6032 152.445 52.1798 152.364C51.8655 152.308 51.5562 152.244 51.2444 152.178V122.032Z" fill="#11A4FF"/>
<path opacity="0.1" d="M191.514 49.3801H175.563V84.7478H191.514V49.3801Z" fill="#11A4FF"/>
<path opacity="0.1" d="M191.516 85.834V120.945H112.343V105.801H154.514V114.735H175.563V85.834H191.516Z" fill="#11A4FF"/>
<path opacity="0.1" d="M191.767 159.678C191.684 159.678 191.6 159.678 191.514 159.663V182.696C188.656 182.461 185.808 182.132 182.97 181.709C170.189 179.843 157.728 176.213 145.943 170.922C142.541 169.386 139.208 167.711 135.944 165.899C130.494 162.875 125.272 159.455 120.321 155.668C119.073 154.714 117.845 153.738 116.635 152.742C115.796 152.046 114.964 151.336 114.117 150.648C113.534 150.173 112.944 149.704 112.343 149.257V122.032H175.355C175.309 121.869 175.269 121.709 175.223 121.547C175.271 121.709 175.317 121.869 175.358 122.032H191.516V159.661C191.6 159.663 191.684 159.671 191.767 159.678Z" fill="#11A4FF"/>
<path opacity="0.1" d="M233.117 46.7456H222.723V43.5122H227.38V33.8803C227.784 34.0292 228.186 34.1815 228.587 34.3372V43.5122H233.114L233.117 46.7456Z" fill="#11A4FF"/>
<path opacity="0.1" d="M258.161 84.7503H207.13C207.135 84.7515 207.14 84.7515 207.145 84.7503H207.122H197.661V49.3827H200.343V75.5245H212.598V60.0425H222.726V47.8269H233.119V60.0501H243.242V75.5321H258.164L258.161 84.7503Z" fill="#11A4FF"/>
<path opacity="0.1" d="M197.661 85.8366V120.945H258.164V85.8366H197.661ZM274.578 162.27L274.665 134.478H258.164V122.042H197.661V183.089C202.621 183.296 207.589 183.236 212.542 182.909H212.628C214.994 182.757 217.35 182.54 219.694 182.259H219.747C232.256 180.801 244.488 177.53 256.057 172.549" fill="#11A4FF"/>
<path opacity="0.1" d="M281.877 122.032H295.99C295.868 129.161 294.438 136.163 291.308 142.63C288.707 148.003 285.089 152.701 280.812 156.805V134.471H281.877V122.032Z" fill="#11A4FF"/>
<path opacity="0.1" d="M296 120.945H281.877V91.603H289.52C293.472 100.849 295.987 111.001 296 120.945Z" fill="#11A4FF"/>
<path opacity="0.1" d="M191.516 59.2125H182.97V70.3012H191.516V59.2125Z" fill="#11A4FF"/>
<path opacity="0.1" d="M191.516 82.197H182.97V84.7503H191.516V82.197Z" fill="#11A4FF"/>
<path opacity="0.1" d="M191.516 85.834H182.97V93.2832H191.516V85.834Z" fill="#11A4FF"/>
<path opacity="0.1" d="M191.516 105.182H182.97V116.27H191.516V105.182Z" fill="#11A4FF"/>
<path opacity="0.1" d="M191.516 128.166H182.97V139.255H191.516V128.166Z" fill="#11A4FF"/>
<path opacity="0.1" d="M191.516 159.661C191.6 159.661 191.683 159.661 191.77 159.678C191.686 159.678 191.602 159.678 191.516 159.663V162.239H182.97V151.151H191.516V159.661Z" fill="#11A4FF"/>
<path opacity="0.1" d="M191.516 174.133V182.696C188.656 182.461 185.808 182.132 182.97 181.709V174.133H191.516Z" fill="#11A4FF"/>
<path opacity="0.1" d="M148.967 120.131H112.343V120.945H148.967V120.131Z" fill="#11A4FF"/>
<path opacity="0.1" d="M148.967 122.029H112.343V125.151H148.967V122.029Z" fill="#11A4FF"/>
<path opacity="0.1" d="M148.967 135.384H112.343V140.404H148.967V135.384Z" fill="#11A4FF"/>
<path opacity="0.1" d="M148.967 150.638V155.658H120.321C119.073 154.707 117.845 153.731 116.635 152.729C115.793 152.036 114.961 151.326 114.117 150.638H148.967Z" fill="#11A4FF"/>
<path opacity="0.1" d="M148.967 165.889V170.922H145.943C142.541 169.386 139.208 167.711 135.944 165.899L148.967 165.889Z" fill="#11A4FF"/>
<path opacity="0.1" d="M219.752 89.2375H212.542V96.4557H219.752V89.2375Z" fill="#11A4FF"/>
<path opacity="0.1" d="M63.6461 55.606H56.4363V62.8241H63.6461V55.606Z" fill="#11A4FF"/>
<path opacity="0.1" d="M63.6461 72.3723H56.4363V79.5904H63.6461V72.3723Z" fill="#11A4FF"/>
<path opacity="0.1" d="M63.6461 89.1385H56.4363V96.3567H63.6461V89.1385Z" fill="#11A4FF"/>
<path opacity="0.1" d="M63.6461 105.902H56.4363V113.121H63.6461V105.902Z" fill="#11A4FF"/>
<path opacity="0.1" d="M63.6461 122.669H56.4363V129.887H63.6461V122.669Z" fill="#11A4FF"/>
<path opacity="0.1" d="M63.6461 139.435H56.4363V146.653H63.6461V139.435Z" fill="#11A4FF"/>
<path opacity="0.1" d="M247.275 89.2375H240.066V96.4557H247.275V89.2375Z" fill="#11A4FF"/>
<path opacity="0.1" d="M219.752 107.042H212.542V114.26H219.752V107.042Z" fill="#11A4FF"/>
<path opacity="0.1" d="M247.275 107.042H240.066V114.26H247.275V107.042Z" fill="#11A4FF"/>
<path opacity="0.1" d="M219.752 124.844H212.542V132.062H219.752V124.844Z" fill="#11A4FF"/>
<path opacity="0.1" d="M247.275 124.844H240.066V132.062H247.275V124.844Z" fill="#11A4FF"/>
<path opacity="0.1" d="M219.752 142.648H212.542V149.866H219.752V142.648Z" fill="#11A4FF"/>
<path opacity="0.1" d="M247.275 142.648H240.066V149.866H247.275V142.648Z" fill="#11A4FF"/>
<path opacity="0.1" d="M219.752 160.452H212.542V167.671H219.752V160.452Z" fill="#11A4FF"/>
<path opacity="0.1" d="M247.275 160.452H240.066V167.671H247.275V160.452Z" fill="#11A4FF"/>
<path opacity="0.1" d="M212.542 182.909V178.254H219.75V182.247L212.542 182.909Z" fill="#11A4FF"/>
<path opacity="0.1" d="M20.4277 75.7225V79.8519H45.0993V75.7225H20.4277ZM22.8842 79.593H20.8562V75.9839H22.8842V79.593ZM25.3407 79.593H23.3127V75.9839H25.3407V79.593ZM27.7922 79.593H25.7641V75.9839H27.7922V79.593ZM30.2487 79.593H28.2206V75.9839H30.2487V79.593ZM32.7027 79.593H30.6746V75.9839H32.7027V79.593ZM35.1592 79.593H33.1311V75.9839H35.1592V79.593ZM37.6157 79.593H35.5876V75.9839H37.6157V79.593ZM40.0696 79.593H38.0416V75.9839H40.0696V79.593ZM42.5236 79.593H40.4955V75.9839H42.5236V79.593ZM44.9801 79.593H42.952V75.9839H44.9801V79.593Z" fill="#11A4FF"/>
<path opacity="0.1" d="M20.4277 87.7426V91.872H45.0993V87.7426H20.4277ZM22.8842 91.6132H20.8562V88.0041H22.8842V91.6132ZM25.3407 91.6132H23.3127V88.0041H25.3407V91.6132ZM27.7922 91.6132H25.7641V88.0041H27.7922V91.6132ZM30.2487 91.6132H28.2206V88.0041H30.2487V91.6132ZM32.7027 91.6132H30.6746V88.0041H32.7027V91.6132ZM35.1592 91.6132H33.1311V88.0041H35.1592V91.6132ZM37.6157 91.6132H35.5876V88.0041H37.6157V91.6132ZM40.0696 91.6132H38.0416V88.0041H40.0696V91.6132ZM42.5236 91.6132H40.4955V88.0041H42.5236V91.6132ZM44.9801 91.6132H42.952V88.0041H44.9801V91.6132Z" fill="#11A4FF"/>
<path opacity="0.1" d="M20.4277 99.7653V103.892H45.0993V99.7653H20.4277ZM22.8842 103.631H20.8562V100.022H22.8842V103.631ZM25.3407 103.631H23.3127V100.022H25.3407V103.631ZM27.7922 103.631H25.7641V100.022H27.7922V103.631ZM30.2487 103.631H28.2206V100.022H30.2487V103.631ZM32.7027 103.631H30.6746V100.022H32.7027V103.631ZM35.1592 103.631H33.1311V100.022H35.1592V103.631ZM37.6157 103.631H35.5876V100.022H37.6157V103.631ZM40.0696 103.631H38.0416V100.022H40.0696V103.631ZM42.5236 103.631H40.4955V100.022H42.5236V103.631ZM44.9801 103.631H42.952V100.022H44.9801V103.631Z" fill="#11A4FF"/>
<path opacity="0.1" d="M20.4277 111.786V115.912H45.0993V111.786H20.4277ZM22.8842 115.653H20.8562V112.039H22.8842V115.653ZM25.3407 115.653H23.3127V112.039H25.3407V115.653ZM27.7922 115.653H25.7641V112.039H27.7922V115.653ZM30.2487 115.653H28.2206V112.039H30.2487V115.653ZM32.7027 115.653H30.6746V112.039H32.7027V115.653ZM35.1592 115.653H33.1311V112.039H35.1592V115.653ZM37.6157 115.653H35.5876V112.039H37.6157V115.653ZM40.0696 115.653H38.0416V112.039H40.0696V115.653ZM42.5236 115.653H40.4955V112.039H42.5236V115.653ZM44.9801 115.653H42.952V112.039H44.9801V115.653Z" fill="#11A4FF"/>
<path opacity="0.1" d="M20.5469 123.801C20.6432 124.191 20.7573 124.577 20.8739 124.96V124.062H22.902V127.669H21.8144C21.8448 127.755 21.8778 127.844 21.9133 127.922H45.1094V123.801H20.5469ZM25.3636 127.669H23.3355V124.062H25.3636V127.669ZM27.815 127.669H25.7869V124.062H27.815V127.669ZM30.2715 127.669H28.2434V124.062H30.2715V127.669ZM32.7255 127.669H30.6974V124.062H32.7255V127.669ZM35.182 127.669H33.1539V124.062H35.182V127.669ZM37.6385 127.669H35.6104V124.062H37.6385V127.669ZM40.0924 127.669H38.0644V124.062H40.0924V127.669ZM42.5464 127.669H40.5183V124.062H42.5464V127.669ZM45.0029 127.669H42.9748V124.062H45.0029V127.669Z" fill="#11A4FF"/>
<path opacity="0.1" d="M26.261 135.821C26.3269 135.902 26.3877 135.993 26.4511 136.075H27.7922V137.808L28.2257 138.316V136.064H30.2538V139.704H29.4197C29.5008 139.788 29.5794 139.877 29.6732 139.958H45.0942V135.821H26.261ZM32.7153 139.704H30.6873V136.08H32.7153V139.704ZM35.1718 139.704H33.1438V136.08H35.1718V139.704ZM37.6283 139.704H35.6003V136.08H37.6283V139.704ZM40.0823 139.704H38.0542V136.08H40.0823V139.704ZM42.5363 139.704H40.5082V136.08H42.5363V139.704ZM44.9928 139.704H42.9647V136.08H44.9928V139.704Z" fill="#11A4FF"/>
<path opacity="0.1" d="M39.7959 147.841C40.0291 147.973 40.2649 148.095 40.5007 148.224V148.097H42.5287V149.242C42.6758 149.305 42.8152 149.374 42.9597 149.44V148.097H44.9878V150.295C45.0263 150.313 45.0662 150.327 45.1069 150.338V147.841H39.7959Z" fill="#11A4FF"/>
<path opacity="0.1" d="M191.514 159.661H191.767H191.514ZM175.221 121.547C175.269 121.709 175.312 121.872 175.355 122.032C175.317 121.872 175.271 121.709 175.221 121.547ZM54.0103 46.7456V47.8269H65.3345V46.7406L54.0103 46.7456ZM191.516 159.661H191.77H191.516ZM175.221 121.547C175.269 121.709 175.312 121.872 175.355 122.032C175.317 121.872 175.271 121.709 175.221 121.547ZM191.514 159.661H191.767H191.514ZM175.221 121.547C175.269 121.709 175.312 121.872 175.355 122.032C175.317 121.872 175.271 121.709 175.221 121.547Z" fill="#11A4FF"/>
<path opacity="0.1" d="M222.944 219C236.586 219 247.646 217.222 247.646 215.028C247.646 212.834 236.586 211.056 222.944 211.056C209.301 211.056 198.242 212.834 198.242 215.028C198.242 217.222 209.301 219 222.944 219Z" fill="#11A4FF"/>
<path opacity="0.1" d="M111.536 215.028C125.179 215.028 136.238 213.25 136.238 211.056C136.238 208.862 125.179 207.084 111.536 207.084C97.8939 207.084 86.8345 208.862 86.8345 211.056C86.8345 213.25 97.8939 215.028 111.536 215.028Z" fill="#11A4FF"/>
<path d="M139.975 106.027C139.969 106.001 139.956 105.979 139.937 105.961C139.559 105.588 134.743 98.7679 134.743 98.7679C134.743 98.7679 134.489 98.0065 134.079 97.0166C134.21 96.846 134.309 96.6524 134.37 96.4456C134.392 96.358 134.408 96.2689 134.418 96.1791C134.418 96.1512 134.439 96.1283 134.446 96.1004C134.534 95.7562 134.525 95.3943 134.421 95.0547C134.393 95.1419 134.358 95.2267 134.317 95.3085C134.222 95.0129 134.094 94.7286 133.937 94.4608C133.298 93.3593 132.385 92.4304 131.713 91.3568C130.696 89.6888 130.292 87.7177 130.57 85.7833C130.57 85.8823 130.57 85.9838 130.57 86.0828C130.595 85.6991 130.646 85.3176 130.722 84.9406C130.828 84.5116 130.97 84.0922 131.145 83.6869C131.749 82.3036 132.725 81.0981 133.318 79.7097C133.517 79.2415 133.668 78.7542 133.769 78.2554C133.978 77.4224 134.055 76.5615 133.995 75.7047C133.995 75.9078 133.962 76.1108 133.932 76.3113C133.867 74.2512 133.036 72.2895 131.602 70.8114C129.531 68.7276 126.557 67.918 123.713 67.4916C122.517 67.352 121.376 66.9158 120.392 66.2226C119.299 65.5145 117.887 65.3444 116.609 65.4992C115.141 65.6582 113.776 66.3336 112.758 67.4053C111.407 68.8926 110.822 70.9992 109.245 72.253C108.289 73.0144 107.077 73.3697 105.964 73.8875C104.852 74.4052 103.799 75.1565 103.442 76.2682C103.442 76.2682 103.442 76.2529 103.442 76.2453V76.3088L103.427 76.3494C103.057 77.6641 103.772 79.0016 104.144 80.3138C104.532 81.6716 104.557 83.1056 104.578 84.5092C104.606 86.2249 104.631 87.9431 104.603 89.6614C104.59 90.3365 104.568 91.0193 104.517 91.6918C103.917 91.8735 103.334 92.1079 102.775 92.3923C102.207 92.7629 100.083 95.0598 100.083 95.0598L95.928 110.953L95.9838 111.016L95.928 111.232L96.1384 111.184C96.7265 111.819 98.4834 113.626 100.38 114.752L100.557 117.869C100.557 117.869 100.77 120.996 103.642 122.288C103.708 123.372 103.914 127.773 102.963 129.516C102.305 130.79 101.995 132.216 102.065 133.648C102.065 133.648 102.398 136.293 102.02 137.684C101.799 138.613 101.783 139.58 101.972 140.516C101.972 140.516 101.972 140.823 101.972 141.351C101.972 144.166 102.005 153.186 101.972 154.206C101.923 155.412 101.972 173.242 101.972 173.242C101.972 173.242 101.736 182.153 100.98 184.566C100.225 186.98 100.415 194.972 100.415 194.972C100.415 194.972 99.941 204.493 101.617 206.371C101.617 206.454 101.602 206.541 101.599 206.625C101.599 206.663 101.599 206.706 101.599 206.744C101.579 207.467 101.718 208.236 102.339 208.472C103.607 208.96 105.282 210.421 105.599 210.84C105.916 211.259 107.759 212.302 110.163 212.023C111.668 211.854 113.183 211.784 114.698 211.815C114.698 211.815 115.646 211.642 115.339 210.462C115.141 209.726 114.401 208.594 113.874 207.85C113.97 207.876 114.064 207.896 114.153 207.914L114.244 207.932H114.315C114.354 207.934 114.393 207.934 114.432 207.932H114.482C114.53 207.935 114.577 207.935 114.624 207.932C115.261 207.871 117.633 208.977 118.057 209.708C118.48 210.439 119.973 210.995 121.099 211.135C121.768 211.216 123.457 211.079 124.874 210.896C125.587 210.822 126.294 210.693 126.988 210.51C127.323 210.383 127.394 209.977 127.297 209.52C127.183 208.94 126.874 208.417 126.42 208.038C126.009 207.746 125.467 206.977 125.066 206.348L124.96 206.178C125.667 205.503 126.945 203.295 127.333 202.838C127.804 202.282 126.572 181.955 126.572 181.955V171.765L128.461 162.12L129.782 157.016L130.915 149.31C130.915 149.31 132.897 140.311 132.286 139.427C132.286 139.41 131.779 130.143 131.247 127.917C131.016 126.925 131.075 124.691 131.211 122.519C131.354 122.377 131.454 122.197 131.499 122C131.544 121.803 131.532 121.598 131.465 121.407C131.427 121.277 131.378 121.151 131.318 121.029C131.318 120.991 131.318 120.95 131.318 120.912C132.413 120.408 133.557 120.018 134.733 119.75C136.621 119.379 136.15 118.405 136.15 118.405C136.15 118.405 136.576 117.57 136.857 117.06C137.138 116.549 136.905 112.047 136.857 111.676C136.839 111.527 136.723 110.699 136.588 109.76C137.194 109.329 137.983 108.793 138.842 108.286C140.477 107.316 140.11 106.293 139.975 106.027ZM115.334 170.374C115.334 170.374 113.917 173.993 114.485 174.919C115.053 175.846 114.391 179.285 114.391 179.285L113.917 184.389C113.917 184.389 112.596 193.856 113.068 196.081C113.438 197.828 113.575 203.043 113.618 205.218C113.585 205.231 113.554 205.246 113.524 205.264L113.461 205.297C113.679 204.442 113.587 202.711 112.505 199.229L112.414 184.846C112.414 184.846 112.246 168.232 113.557 166.374C114.868 164.516 115.332 161.361 115.332 161.361C115.332 161.361 115.048 165.912 114.863 167.117C114.678 168.323 115.334 170.374 115.334 170.374ZM112.695 206.125C112.682 206.155 112.667 206.185 112.657 206.213L112.586 206.122C112.622 206.126 112.659 206.126 112.695 206.125Z" fill="url(#paint0_linear_27_42)"/>
<path d="M127.148 211.825C126.415 212.107 122.443 212.586 121.332 212.452C120.222 212.317 118.751 211.754 118.333 211.018C117.915 210.282 115.57 209.17 114.941 209.241C114.683 209.249 114.426 209.213 114.181 209.135C113.747 209.003 113.323 208.84 112.913 208.647C112.856 208.327 112.865 207.999 112.941 207.683C112.956 207.619 112.974 207.556 112.997 207.495C113.145 207.079 113.451 206.738 113.849 206.546L113.94 206.503C114.116 206.427 114.299 206.37 114.487 206.335C116.48 205.952 124.701 206.721 124.701 206.721C124.701 206.721 124.932 207.135 125.249 207.647C125.644 208.282 126.182 209.056 126.587 209.348C127.037 209.732 127.342 210.259 127.452 210.84C127.548 211.289 127.477 211.701 127.148 211.825Z" fill="white"/>
<path opacity="0.1" d="M127.148 211.825C126.415 212.107 122.445 212.586 121.335 212.452C120.224 212.317 118.754 211.751 118.333 211.018C117.912 210.284 115.572 209.17 114.944 209.241C114.315 209.312 112.916 208.647 112.916 208.647C112.916 208.647 112.698 207.632 113.331 206.939L114.599 207.84C114.599 207.84 117.991 208.894 118.62 209.871C119.248 210.848 120.394 211.393 122.05 211.492C123.287 211.574 126.129 211.091 127.459 210.85C127.548 211.289 127.48 211.701 127.148 211.825Z" fill="black"/>
<path d="M115.012 213.119C113.517 213.09 112.021 213.161 110.535 213.33C108.155 213.609 106.337 212.569 106.02 212.14C105.703 211.711 104.063 210.262 102.803 209.754C102.187 209.515 102.042 208.739 102.07 208.013C102.07 207.975 102.07 207.932 102.07 207.894C102.094 207.434 102.162 206.977 102.273 206.531L112.137 206.32L112.992 207.48L113.123 207.657L113.643 208.366C113.643 208.366 113.879 208.675 114.188 209.127C114.71 209.888 115.44 211.013 115.636 211.756C115.947 212.947 115.012 213.119 115.012 213.119Z" fill="white"/>
<path opacity="0.1" d="M115.012 213.119C113.517 213.09 112.021 213.161 110.535 213.33C108.157 213.609 106.337 212.569 106.023 212.14C105.708 211.711 104.063 210.249 102.803 209.759C102.187 209.52 102.042 208.744 102.07 208.018C102.775 208.183 104.256 208.604 104.836 209.338C105.597 210.317 106.958 211.965 108.892 212.069C110.454 212.152 114.257 211.873 115.651 211.761C115.95 212.947 115.012 213.119 115.012 213.119Z" fill="black"/>
<path opacity="0.1" d="M113.838 206.536C113.724 207.383 113.372 207.612 113.118 207.663C113.057 207.675 112.993 207.675 112.931 207.663C112.898 207.66 112.865 207.655 112.832 207.647C112.832 207.647 103.974 209.607 102.185 208.02C102.139 207.98 102.097 207.936 102.058 207.888C102.081 207.429 102.149 206.972 102.261 206.526L112.125 206.315L112.979 207.475C113.127 207.058 113.433 206.717 113.831 206.526L113.838 206.536Z" fill="black"/>
<path opacity="0.1" d="M125.246 207.637C125.049 207.855 124.884 207.98 124.78 207.937C124.313 207.749 120.491 207.097 119.276 207.657C118.062 208.218 113.953 207.749 113.953 207.749C113.953 207.749 113.953 207.262 113.93 206.48C114.105 206.404 114.289 206.348 114.477 206.312C116.47 205.929 124.691 206.698 124.691 206.698C124.691 206.698 124.932 207.125 125.246 207.637Z" fill="black"/>
<path d="M131.031 150.227L129.911 157.978L128.608 163.115L126.742 172.825V183.104C126.742 183.104 127.954 203.556 127.487 204.114C127.021 204.673 125.249 207.853 124.782 207.668C124.316 207.482 120.493 206.828 119.279 207.386C118.064 207.944 113.955 207.48 113.955 207.48C113.955 207.48 113.861 199.543 113.395 197.302C112.928 195.061 114.234 185.536 114.234 185.536L114.7 180.401C114.7 180.401 115.354 176.945 114.794 176.011C114.234 175.077 115.633 171.442 115.633 171.442C115.633 171.442 114.982 169.384 115.169 168.171C115.357 166.957 115.633 162.381 115.633 162.381C115.633 162.381 115.169 165.559 113.874 167.424C112.578 169.29 112.743 186.008 112.743 186.008L112.834 200.475C115.169 208.135 112.834 207.386 112.834 207.386C112.834 207.386 103.977 209.348 102.187 207.759C100.397 206.17 100.909 196.17 100.909 196.17C100.909 196.17 100.724 188.14 101.47 185.714C102.215 183.287 102.451 174.32 102.451 174.32C102.451 174.32 102.403 156.389 102.451 155.178C102.486 154.163 102.451 145.074 102.451 142.234C102.451 141.706 102.451 141.394 102.451 141.394L103.521 138.734L116.196 137.146H122.26C122.26 137.146 131.386 139.293 132.329 140.219C132.349 140.235 132.367 140.254 132.38 140.275C132.991 141.171 131.031 150.227 131.031 150.227Z" fill="#11A4FF"/>
<path opacity="0.1" d="M115.641 190.942C115.641 190.942 118.429 197.665 119.745 198.132C121.061 198.599 115.641 190.942 115.641 190.942Z" fill="black"/>
<path opacity="0.1" d="M116.673 200.84C116.673 200.84 126.088 201.307 125.994 202.335C125.9 203.363 116.673 200.84 116.673 200.84Z" fill="black"/>
<path opacity="0.1" d="M104.076 198.153C104.448 198.505 111.258 199.168 110.697 199.812C110.137 200.457 104.636 201.711 104.636 201.711L104.076 198.153Z" fill="black"/>
<path opacity="0.1" d="M102.958 186.554C102.958 186.833 104.357 195.518 104.732 195.891C105.108 196.264 108.183 196.637 108.183 196.637L102.958 186.554Z" fill="black"/>
<path d="M113.111 67.8393C111.775 69.3342 111.197 71.4535 109.64 72.7174C108.695 73.4789 107.498 73.8418 106.398 74.3596C105.298 74.8773 104.208 75.6666 103.881 76.8392C103.516 78.159 104.22 79.5067 104.59 80.8265C104.973 82.1919 104.996 83.6183 105.019 85.0472C105.044 86.7756 105.072 88.5041 105.042 90.2325C104.996 92.9253 104.773 95.7425 103.346 98.0243C108.5 99.6664 113.98 99.8897 119.385 100.1C120.424 100.175 121.467 100.148 122.501 100.022C123.397 99.843 124.282 99.6185 125.155 99.3491C126.881 98.892 128.659 98.6642 130.443 98.6714C131.222 98.6714 132.015 98.7197 132.765 98.5166C133.516 98.3136 134.238 97.7933 134.441 97.042C134.621 96.3669 134.358 95.6486 134.013 95.042C133.384 93.9355 132.492 93.0116 131.817 91.9203C131.129 90.7675 130.721 89.469 130.625 88.1293C130.529 86.7896 130.749 85.4462 131.267 84.2071C131.866 82.8138 132.829 81.6006 133.417 80.2047C134.019 78.7059 134.18 77.0655 133.879 75.4783C133.577 73.8911 132.828 72.4238 131.718 71.2505C129.673 69.154 126.737 68.3419 123.928 67.9104C122.745 67.7705 121.617 67.334 120.648 66.6414C119.57 65.9307 118.173 65.7581 116.911 65.9155C115.455 66.0789 114.106 66.7618 113.111 67.8393Z" fill="#3F3D56"/>
<g opacity="0.1">
<path d="M131.346 82.7427C130.829 83.9657 130.607 85.2935 130.699 86.6183C130.756 85.671 130.975 84.7404 131.346 83.8671C131.941 82.4737 132.905 81.2605 133.493 79.8646C133.974 78.6989 134.176 77.437 134.084 76.1793C134.031 77.0609 133.832 77.9274 133.493 78.7427C132.905 80.1387 131.941 81.3493 131.346 82.7427Z" fill="black"/>
<path d="M105.095 84.7021C105.11 85.697 105.125 86.6944 105.128 87.6893C105.128 86.3188 105.115 84.9508 105.095 83.5828C105.075 82.164 105.049 80.7275 104.666 79.3595C104.413 78.4915 104.038 77.6108 103.906 76.7352C103.68 77.9788 104.322 79.2402 104.666 80.4813C105.049 81.8366 105.075 83.2833 105.095 84.7021Z" fill="black"/>
<path d="M132.852 97.0649C132.091 97.2704 131.31 97.2248 130.532 97.2197C128.749 97.2083 126.971 97.4319 125.246 97.8846C124.373 98.1529 123.488 98.3765 122.592 98.5547C121.558 98.6833 120.513 98.7105 119.474 98.6359C114.252 98.4303 108.956 98.2095 103.954 96.7146C103.806 97.0465 103.636 97.3686 103.447 97.6791C108.601 99.3186 114.082 99.5445 119.484 99.7552C120.524 99.8298 121.568 99.8026 122.602 99.674C123.495 99.4975 124.377 99.2747 125.246 99.0065C126.968 98.552 128.741 98.3259 130.522 98.3339C131.3 98.3339 132.091 98.3821 132.841 98.1765C133.592 97.9709 134.314 97.4557 134.517 96.7045C134.603 96.3565 134.594 95.9921 134.492 95.6486C134.266 96.3593 133.569 96.8542 132.852 97.0649Z" fill="black"/>
</g>
<path d="M125.343 94.0573C125.155 94.4786 124.364 98.1181 124.176 98.4912C123.989 98.8643 122.965 104.836 122.871 105.171C122.777 105.506 116.12 103.77 116.12 103.77L112.112 100.407L107.992 96.3034C107.992 96.3034 107.871 92.6004 110.905 91.4126C111.111 91.3316 111.323 91.2654 111.539 91.2147C115.22 90.3289 114.85 79.1234 114.85 79.1234L122.404 82.3899C122.404 82.3899 121.005 88.9279 121.053 90.1893C121.066 90.6132 121.398 90.8771 121.831 91.037C122.502 91.2279 123.199 91.3034 123.895 91.2604C123.895 91.2604 125.53 93.6385 125.343 94.0573Z" fill="#FBBEBE"/>
<path d="M138.867 106.336L139.94 106.618C139.94 106.618 140.733 107.826 138.867 108.951C137.683 109.671 136.545 110.467 135.463 111.334L129.949 113.014L128.887 109.676L134.018 105.778L138.867 106.336Z" fill="#11A4FF"/>
<path opacity="0.1" d="M138.867 106.336L139.94 106.618C139.94 106.618 140.733 107.826 138.867 108.951C137.683 109.671 136.545 110.467 135.463 111.334L129.949 113.014L128.887 109.676L134.018 105.778L138.867 106.336Z" fill="black"/>
<path d="M98.6278 109.56L96.4832 111.661C96.4832 111.661 100.352 116.143 103.328 116.423C106.304 116.702 108.223 113.014 108.223 113.014L105.648 108.953L98.6278 109.56Z" fill="#11A4FF"/>
<path opacity="0.1" d="M98.6278 109.56L96.4832 111.661C96.4832 111.661 100.352 116.143 103.328 116.423C106.304 116.702 108.223 113.014 108.223 113.014L105.648 108.953L98.6278 109.56Z" fill="black"/>
<path opacity="0.1" d="M119 86.4457C123.12 86.4457 126.461 83.1015 126.461 78.9762C126.461 74.851 123.12 71.5068 119 71.5068C114.879 71.5068 111.539 74.851 111.539 78.9762C111.539 83.1015 114.879 86.4457 119 86.4457Z" fill="black"/>
<path d="M119 85.8848C123.12 85.8848 126.461 82.5406 126.461 78.4153C126.461 74.2901 123.12 70.9459 119 70.9459C114.879 70.9459 111.539 74.2901 111.539 78.4153C111.539 82.5406 114.879 85.8848 119 85.8848Z" fill="#FBBEBE"/>
<path opacity="0.1" d="M132.385 141.123C130.686 141.317 129.013 141.693 127.394 142.242C124.605 143.171 102.752 142.257 102.448 142.242C102.448 141.714 102.448 141.402 102.448 141.402L103.518 138.742L116.194 137.153H122.257C122.257 137.153 131.384 139.3 132.327 140.227C132.365 140.785 132.385 141.123 132.385 141.123Z" fill="black"/>
<path opacity="0.1" d="M125.343 94.0573C125.155 94.4786 124.364 98.1182 124.176 98.4912C123.989 98.8643 122.965 104.836 122.871 105.171C122.777 105.506 116.12 103.77 116.12 103.77L112.112 100.407L107.992 96.3035C107.992 96.3035 107.871 92.6005 110.905 91.4127L118.439 100.085L121.831 91.037C122.502 91.2279 123.199 91.3035 123.895 91.2604C123.895 91.2604 125.53 93.6385 125.343 94.0573Z" fill="black"/>
<path d="M118.44 100.364L110.728 91.4812C110.276 91.1927 109.761 91.021 109.226 90.9816C108.692 90.9422 108.157 91.0362 107.668 91.2553C105.942 92.004 103.797 92.6106 103.237 92.9837C102.676 93.3568 100.577 95.6664 100.577 95.6664L106.829 112.039L104.076 122.823C104.076 122.823 104.497 128.334 103.424 130.341C102.771 131.625 102.465 133.057 102.537 134.496C102.537 134.496 102.864 137.158 102.491 138.557C102.274 139.492 102.257 140.463 102.443 141.404C102.443 141.404 124.597 142.338 127.394 141.404C129.013 140.853 130.686 140.478 132.385 140.285C132.385 140.285 131.878 130.945 131.371 128.704C130.864 126.463 131.792 117.92 131.792 117.92L131.186 108.768L134.821 99.377C134.821 99.377 132.852 93.3568 130.798 92.7502C130.798 92.7502 127.069 91.8619 126.276 91.4431C125.482 91.0243 123.15 90.6487 123.15 90.6487L121.925 91.0599L118.44 100.364Z" fill="#11A4FF"/>
<path opacity="0.1" d="M129.199 108.459L112.971 107.354C112.561 107.326 112.205 107.637 112.177 108.048L110.435 133.699C110.407 134.11 110.717 134.466 111.128 134.494L127.356 135.599C127.766 135.627 128.122 135.316 128.15 134.905L129.892 109.254C129.92 108.843 129.61 108.487 129.199 108.459Z" fill="black"/>
<path d="M129.758 107.902L113.53 106.797C113.12 106.769 112.764 107.08 112.736 107.491L110.994 133.142C110.966 133.553 111.276 133.909 111.687 133.937L127.915 135.042C128.325 135.07 128.681 134.759 128.709 134.348L130.451 108.697C130.479 108.286 130.169 107.93 129.758 107.902Z" fill="#3F3D56"/>
<path d="M129.222 109.912L113.789 108.862L112.203 132.214L127.636 133.264L129.222 109.912Z" fill="white"/>
<path opacity="0.1" d="M127.838 115.873L115.231 114.989L114.985 118.507L127.593 119.391L127.838 115.873Z" fill="black"/>
<path opacity="0.1" d="M127.382 129.852L125.382 129.716L125.257 131.549L127.258 131.685L127.382 129.852Z" fill="black"/>
<path opacity="0.1" d="M125.409 125.427L115.168 124.73L115.043 126.564L125.284 127.261L125.409 125.427Z" fill="black"/>
<path d="M127.312 109.039L116.649 108.313L116.457 111.132L127.121 111.858L127.312 109.039Z" fill="#3F3D56"/>
<path opacity="0.1" d="M127.312 109.039L116.649 108.313L116.457 111.132L127.121 111.858L127.312 109.039Z" fill="black"/>
<path opacity="0.1" d="M119.373 140.608C119.373 140.608 119.279 154.43 115.641 162.366C115.641 162.366 120.027 151.907 120.027 151.488C120.027 151.069 122.45 146.679 121.801 145.371C121.152 144.064 119.373 140.608 119.373 140.608Z" fill="black"/>
<path opacity="0.1" d="M119.57 76.5473C119.431 75.3239 119.73 74.0908 120.414 73.0677C120.333 74.0931 120.623 75.1137 121.231 75.9431C121.838 76.7724 122.724 77.3554 123.725 77.5854C123.64 77.5111 123.579 77.4127 123.55 77.3031C123.522 77.1934 123.527 77.0777 123.566 76.9712C124.085 77.56 124.483 78.258 125.071 78.7757C125.66 79.2935 126.542 79.6031 127.234 79.2351C128.174 78.7275 128.185 77.39 127.941 76.3494C127.419 74.1333 126.347 72.0846 124.826 70.3926C124.446 69.8811 123.953 69.4646 123.386 69.1758C122.818 68.8869 122.192 68.7335 121.555 68.7276C120.115 68.6159 118.62 68.7428 117.329 69.39C116.603 69.7867 115.923 70.2626 115.301 70.8088L111.752 73.7073C111.411 73.9536 111.118 74.2618 110.89 74.6159C110.738 74.9119 110.646 75.2356 110.621 75.5676C110.531 76.5169 110.706 77.4727 111.128 78.3276C111.55 79.1826 112.201 79.9029 113.009 80.4077C112.992 79.6574 113.198 78.919 113.602 78.2863C114.005 77.6536 114.587 77.1552 115.273 76.8544C115.381 76.9445 115.468 77.0565 115.529 77.183C115.59 77.3095 115.623 77.4476 115.626 77.5879L116.374 76.2529C116.485 76.01 116.66 75.802 116.881 75.6514C117.342 75.3976 117.917 75.6971 118.31 76.0549C118.703 76.4128 119.086 76.8595 119.613 76.9153L119.634 74.9281" fill="black"/>
<path d="M119.57 76.2681C119.431 75.0439 119.73 73.8098 120.414 72.786C120.186 74.8164 121.715 76.9128 123.728 77.3037C123.642 77.23 123.581 77.1321 123.553 77.0228C123.524 76.9135 123.53 76.7981 123.568 76.692C124.088 77.2808 124.486 77.9763 125.074 78.4965C125.662 79.0168 126.544 79.324 127.236 78.9534C128.177 78.4458 128.187 77.1082 127.944 76.0702C127.421 73.8541 126.35 71.8054 124.828 70.1134C124.356 69.5371 123.761 69.074 123.086 68.7581C122.598 68.5773 122.085 68.4729 121.565 68.4484C120.125 68.3368 118.63 68.4611 117.339 69.1083C116.614 69.5068 115.934 69.9834 115.311 70.5296L111.762 73.4281C111.42 73.6738 111.128 73.9821 110.9 74.3367C110.748 74.6326 110.656 74.9563 110.632 75.2885C110.541 76.2373 110.717 77.1927 111.138 78.0472C111.56 78.9017 112.212 79.6216 113.02 80.126C113.003 79.3759 113.21 78.6377 113.613 78.0052C114.016 77.3726 114.597 76.8741 115.283 76.5727C115.391 76.6631 115.477 76.7752 115.538 76.9016C115.599 77.0281 115.632 77.166 115.636 77.3062L116.381 75.9763C116.492 75.7329 116.667 75.5248 116.888 75.3748C117.35 75.121 117.925 75.4204 118.318 75.7783C118.711 76.1362 119.094 76.5803 119.621 76.6387L119.641 74.6489" fill="#3F3D56"/>
<path d="M123.104 123.382C122.453 123.052 111.678 124.735 111.678 124.735C111.678 124.735 109.904 124.227 105.614 123.521C101.325 122.816 101.051 118.618 101.051 118.618L100.582 110.214L102.03 108.945L108.231 113.006C108.231 113.006 108.327 115.06 108.231 115.43C108.17 115.684 108.008 115.986 108.023 116.192C108.027 116.247 108.05 116.3 108.088 116.341C108.126 116.382 108.176 116.41 108.231 116.42C108.651 116.527 114.386 117.455 114.386 117.455C114.386 117.455 127.677 116.544 130.991 121.027C131.253 121.356 131.452 121.731 131.576 122.133C132.398 125.197 123.695 123.674 123.104 123.382Z" fill="#FBBEBE"/>
<path opacity="0.1" d="M131.584 122.151C131.077 122.377 130.763 122.539 130.763 122.539C130.763 122.539 126.007 122.4 123.335 121.43C120.663 120.461 117.415 120.633 117.415 120.633C117.415 120.633 106.281 118.714 108.008 116.209C108.012 116.265 108.035 116.318 108.073 116.359C108.11 116.4 108.16 116.428 108.215 116.438C108.636 116.544 114.371 117.473 114.371 117.473C114.371 117.473 127.662 116.562 130.975 121.044C131.246 121.371 131.453 121.747 131.584 122.151Z" fill="black"/>
<path d="M136.208 107.364C136.208 107.364 136.862 111.986 136.908 112.362C136.953 112.737 137.189 117.263 136.908 117.778C136.626 118.293 136.208 119.131 136.208 119.131C136.208 119.131 136.674 120.11 134.809 120.486C132.943 120.862 130.752 121.978 130.752 121.978C130.752 121.978 125.994 121.839 123.337 120.859C120.68 119.879 117.415 120.065 117.415 120.065C117.415 120.065 103.282 117.636 109.346 114.671C115.41 111.707 119.699 115.722 119.699 115.722L126.46 115.303C126.46 115.303 128.98 113.76 129.68 113.902C130.174 113.965 130.676 113.884 131.125 113.669L131.173 108.765L136.208 107.364Z" fill="#FBBEBE"/>
<path opacity="0.1" d="M101.923 96.0192L100.57 95.9481L96.4678 111.938C96.4678 111.938 100.897 110.816 102.806 111.938C104.714 113.06 108.215 113.291 108.215 113.291L106.91 100.545L101.923 96.0192Z" fill="black"/>
<path d="M101.923 95.7375L100.57 95.6664L96.4678 111.656C96.4678 111.656 100.897 110.534 102.806 111.656C104.714 112.778 108.215 113.009 108.215 113.009L106.91 100.263L101.923 95.7375Z" fill="#11A4FF"/>
<path opacity="0.1" d="M132.945 99.24L134.809 99.6613C134.809 99.6613 139.567 106.514 139.94 106.897C140.312 107.28 138.165 108.674 137.28 108.674C136.396 108.674 132.058 109.181 130.798 110.354C129.538 111.527 130.063 105.626 130.063 105.491C130.063 105.357 131.627 101.633 131.627 101.633L132.945 99.24Z" fill="black"/>
<path d="M132.945 98.9608L134.809 99.3796C134.809 99.3796 139.567 106.245 139.94 106.618C140.312 106.991 138.165 108.395 137.28 108.395C136.396 108.395 132.058 108.902 130.798 110.075C129.538 111.247 130.063 105.346 130.063 105.212C130.063 105.077 131.637 101.341 131.637 101.341L132.945 98.9608Z" fill="#11A4FF"/>
<g opacity="0.1">
<path d="M120.402 72.8088C120.391 72.6142 120.395 72.419 120.414 72.2251C120.028 72.8049 119.763 73.4566 119.634 74.1413V74.7301C119.634 74.7301 119.634 74.7174 119.634 74.7098V74.8494C119.634 75.2605 119.634 75.6742 119.621 76.0854H119.585V76.2758C119.585 76.2098 119.585 76.1463 119.573 76.0803C119.066 75.9991 118.703 75.5727 118.325 75.2326C117.948 74.8925 117.357 74.5677 116.896 74.8291C116.675 74.9791 116.499 75.1872 116.389 75.4306L115.636 76.7605C115.632 76.6206 115.599 76.483 115.538 76.3569C115.478 76.2308 115.391 76.1192 115.283 76.0296C114.597 76.3304 114.015 76.8288 113.612 77.4615C113.208 78.0942 113.002 78.8326 113.019 79.5828C112.327 79.1483 111.747 78.5551 111.329 77.852C110.911 77.149 110.666 76.3564 110.614 75.5397C110.57 76.4516 110.769 77.3588 111.192 78.1677C111.615 78.9765 112.246 79.6578 113.019 80.1412C113.003 79.3911 113.209 78.653 113.612 78.0204C114.015 77.3878 114.597 76.8893 115.283 76.5879C115.39 76.6783 115.477 76.7904 115.538 76.9169C115.599 77.0433 115.632 77.1812 115.636 77.3214L116.381 75.9915C116.492 75.7482 116.667 75.54 116.888 75.39C117.349 75.1362 117.925 75.4357 118.318 75.7935C118.711 76.1514 119.094 76.5956 119.621 76.6539C119.621 76.0042 119.628 75.3562 119.641 74.7098C119.765 74.0317 120.024 73.3854 120.402 72.8088Z" fill="black"/>
<path d="M119.545 75.3646C119.557 75.192 119.578 75.0194 119.603 74.857L119.631 74.1565C119.555 74.5544 119.526 74.9599 119.545 75.3646Z" fill="black"/>
<path d="M127.236 78.3925C126.544 78.763 125.662 78.4534 125.074 77.9356C124.486 77.4179 124.088 76.7199 123.568 76.1311C123.53 76.2376 123.524 76.3533 123.553 76.463C123.581 76.5726 123.642 76.671 123.728 76.7453C123.677 76.7453 123.629 76.7199 123.581 76.7072C124.088 77.291 124.491 77.9762 125.074 78.4839C125.657 78.9915 126.544 79.3113 127.236 78.9407C127.928 78.5701 128.126 77.7021 128.065 76.857C128.02 77.5219 127.781 78.0981 127.236 78.3925Z" fill="black"/>
<path d="M123.565 76.7022C122.718 76.4709 121.961 75.9856 121.396 75.3116C120.832 74.6375 120.486 73.8067 120.407 72.9306C120.262 74.923 121.763 76.9204 123.728 77.3037C123.644 77.2309 123.584 77.1348 123.555 77.0277C123.526 76.9205 123.53 76.8072 123.565 76.7022Z" fill="black"/>
</g>
<path d="M245.311 118.184C245.311 118.184 244.312 118.044 244.312 116.59C244.312 115.136 243.597 112.412 243.597 112.412C243.597 112.412 242.978 107.674 242.124 106.923C241.27 106.171 240.172 101.76 240.172 101.76C240.172 101.76 239.985 99.3669 239.602 98.8516C239.219 98.3364 238.702 97.075 237.939 95.2755C237.176 93.4761 234.002 92.2426 234.002 92.2426C234.002 92.2426 228.25 88.9025 226.62 87.8137C226.47 87.7235 226.331 87.618 226.204 87.499C225.92 87.1284 224.683 87.1208 224.683 87.1208C224.553 86.301 224.429 85.362 224.389 84.5117C224.389 84.4203 224.389 84.329 224.389 84.2376C226.206 83.1619 227.575 81.4659 228.245 79.461C228.275 79.3646 228.3 79.2656 228.328 79.1666C228.439 79.1322 228.542 79.0746 228.63 78.9977C228.717 78.9207 228.787 78.826 228.835 78.7199C228.98 78.3925 228.985 78.0118 229.167 77.7047C229.38 77.3443 229.786 77.1514 230.105 76.8824C230.911 76.1945 231.119 75.0397 231.081 73.9915C231.056 73.1387 230.919 72.2809 230.972 71.4357C230.972 71.3647 230.972 71.2936 230.987 71.2225C231.003 71.0982 231.02 70.9687 231.043 70.8469C231.167 70.2175 231.439 69.6236 231.591 68.9992C231.743 68.3748 231.758 67.6718 231.403 67.1337C230.884 66.3444 229.801 66.1871 228.85 66.1185C227.773 66.0272 226.822 66.1439 226.12 65.248C225.798 64.78 225.435 64.3418 225.035 63.9383C224.893 63.8064 223.514 62.9612 223.514 62.9079C222.165 62.2798 220.634 62.1617 219.204 62.5754C218.487 62.7835 217.815 63.1236 217.088 63.2937C215.526 63.6642 213.726 63.2632 212.398 64.1592C211.657 64.6668 211.214 65.4764 210.798 66.2607C210.46 66.907 210.117 67.5542 209.769 68.2023C209.206 69.2657 208.638 70.3469 208.402 71.5245C208.353 71.7818 208.322 72.0421 208.309 72.3037C208.309 72.3976 208.309 72.4915 208.309 72.5854C208.309 72.6261 208.309 72.6667 208.309 72.7073C208.309 72.7936 208.309 72.8799 208.324 72.9611C208.339 73.0423 208.324 73.0651 208.342 73.1184C208.359 73.1717 208.364 73.291 208.38 73.3722C208.395 73.4535 208.425 73.5981 208.456 73.7073C208.456 73.7555 208.486 73.8012 208.501 73.8494C208.516 73.8976 208.557 74.0194 208.59 74.1032C208.623 74.187 208.625 74.192 208.646 74.2352C208.684 74.324 208.729 74.4103 208.775 74.489C208.795 74.522 208.811 74.555 208.831 74.588C208.9 74.7068 208.978 74.8204 209.064 74.9281C209.604 75.6057 210.405 76.0372 210.996 76.6717C210.996 76.6971 210.996 76.7225 210.996 76.7478C210.996 76.8164 210.996 76.8849 210.996 76.956C211.032 78.3712 211.413 79.7561 212.106 80.9903C212.799 82.2244 213.782 83.2704 214.971 84.0371C214.971 84.1335 214.983 84.2325 214.989 84.3315C215.038 85.084 215.029 85.8393 214.961 86.5904C214.857 86.4689 214.728 86.3722 214.582 86.3072C214.437 86.2422 214.278 86.2106 214.119 86.2147C214.01 86.2093 213.901 86.2187 213.794 86.2427L213.772 86.2249V86.2477C213.214 86.3848 212.527 86.966 211.87 88.6183C211.87 88.6183 209.873 90.872 208.352 90.7781C206.831 90.6842 202.98 93.1258 202.98 93.1258C202.98 93.1258 199.223 95.5649 198.417 98.0522C197.966 99.4629 197.425 100.843 196.797 102.184L192.14 111.758L191.285 119.372C191.285 119.372 191.759 122.75 191.666 123.268C191.572 123.785 193.615 128.43 193.615 128.43C193.615 128.43 200.366 140.303 203.124 140.912L203.322 140.775C203.441 140.835 203.566 140.881 203.695 140.912L204.263 140.514C204.298 140.96 204.282 141.408 204.217 141.851C203.839 143.026 204.361 150.676 205.026 152.176C205.69 153.676 205.454 173.346 205.454 173.346L205.36 175.079C205.36 175.079 205.36 175.135 205.383 175.231L205.36 175.643L205.429 175.678C205.5 176.23 205.477 176.789 205.36 177.333C205.122 178.094 205.026 180.244 205.026 180.244C205.026 180.244 203.124 192.396 204.027 194.838C204.929 197.279 205.692 199.955 205.692 199.955C205.692 199.955 206.643 203 205.738 203.508C204.833 204.015 202.27 204.916 202.792 206.183C203.274 207.355 205.102 210.498 205.373 210.957L205.35 211.211L204.977 215.254C205.038 215.788 205.182 216.309 205.406 216.797C205.814 217.68 206.605 218.591 208.116 218.492C208.369 218.475 208.661 218.447 208.947 218.409C211.708 218.036 215.105 216.802 215.105 216.802C214.929 216.69 214.768 216.556 214.626 216.404C214.49 216.272 214.383 216.114 214.31 215.94C214.237 215.765 214.201 215.577 214.203 215.388C214.243 214.65 212.867 211.145 212.522 210.279L212.443 210.086C212.443 210.086 215.582 206.8 215.06 203.891C215.06 203.891 211.586 201.861 212.73 200.744C213.873 199.627 215.916 196.429 215.916 196.429C215.916 196.429 216.01 184.462 215.916 182.678C215.819 181.437 215.877 180.189 216.091 178.962C216.129 178.78 216.175 178.599 216.223 178.419C217.806 178.658 219.404 178.78 221.004 178.782C221.589 178.782 222.181 178.77 222.779 178.747C222.779 178.916 222.786 179.099 222.802 179.295C222.934 182.259 223.179 187.46 223.38 189.391C223.664 192.158 225.233 199.622 225.233 199.622C225.233 199.622 222.239 201.543 225.755 206.287C225.755 206.287 225.755 208.003 225.522 208.254C225.273 209.068 225.072 209.896 224.921 210.734C224.774 211.624 224.713 212.531 224.951 212.998C225.522 214.119 228.944 214.028 228.944 214.028C228.972 214.022 229 214.017 229.028 214.015C229.674 213.947 230.327 214.008 230.949 214.196C231.571 214.383 232.149 214.693 232.651 215.107C233.951 216.152 238.884 215.695 241.559 215.36C242.606 215.226 243.306 215.107 243.306 215.107C243.339 214.988 243.351 214.864 243.341 214.741C243.313 214.084 242.798 212.642 239.31 211.355C239.31 211.355 236.03 209.147 236.075 207.223H236.002H235.624C235.862 207.216 236.03 207.216 236.03 207.216C236.03 207.216 234.745 202.523 235.269 202.14C235.794 201.757 234.222 196.556 234.222 196.556C234.222 196.556 233.322 187.825 233.272 187.216C233.275 186.691 233.355 186.17 233.51 185.668L233.272 180.879C233.272 180.879 233.226 179.287 233.272 178.77C233.267 178.32 233.231 177.871 233.165 177.427C233.142 177.249 233.12 177.064 233.094 176.881C234.324 176.569 235.122 176.282 235.122 176.282L234.98 159.62C236.025 157.59 236.217 153.133 236.212 149.975C236.212 147.945 236.121 146.442 236.121 146.442L237.548 144.11C237.548 144.11 237.878 141.318 237.356 140.706C237.125 140.43 237.229 140.143 237.419 139.907C237.519 139.825 237.625 139.75 237.736 139.684C237.723 139.666 237.712 139.647 237.703 139.628C237.803 139.544 237.909 139.469 238.02 139.402C238.02 139.402 237.513 138.615 237.967 138.283C238.393 138.572 238.773 138.803 239.062 138.968C239.041 139.153 239.021 139.26 239.021 139.26L239.143 139.006C239.422 139.163 239.592 139.26 239.592 139.26C239.592 139.26 241.828 134.8 241.779 134.146C241.731 133.491 243.3 130.719 243.3 130.719C243.3 130.719 243.491 129.262 244.347 128.653C245.204 128.044 245.012 123.631 245.012 123.631C245.012 123.631 245.25 121.331 245.82 120.395C246.391 119.458 245.311 118.184 245.311 118.184ZM202.529 116.227L202.572 117.291C202.318 116.882 202.136 116.59 202.136 116.59L202.529 116.227Z" fill="url(#paint1_linear_27_42)"/>
<path d="M239.723 137.331L239.176 139.666C239.176 139.666 234.79 137.42 234.002 134.577C233.213 131.735 235.322 130.651 235.322 130.651L239.412 132.382L239.723 137.331Z" fill="white"/>
<path opacity="0.1" d="M239.723 137.331L239.176 139.666C239.176 139.666 234.79 137.42 234.002 134.577C233.213 131.735 235.322 130.651 235.322 130.651L239.412 132.382L239.723 137.331Z" fill="black"/>
<path d="M215.11 216.8C215.11 216.8 211.054 218.292 208.265 218.48C206.785 218.579 206.007 217.67 205.606 216.794C205.388 216.312 205.247 215.798 205.185 215.272L205.553 211.249L205.746 209.109L211.67 207.566L212.509 210.137L212.588 210.33C212.922 211.19 214.276 214.678 214.236 215.406C214.232 215.595 214.267 215.782 214.338 215.956C214.409 216.131 214.515 216.289 214.649 216.421C214.786 216.566 214.941 216.694 215.11 216.8Z" fill="white"/>
<path d="M242.804 214.754C242.814 214.877 242.802 215.001 242.768 215.119C242.768 215.119 234.093 216.566 232.318 215.119C231.82 214.697 231.238 214.383 230.611 214.198C229.985 214.013 229.326 213.961 228.678 214.046C228.678 214.046 225.322 214.137 224.761 213.031C224.528 212.566 224.589 211.665 224.733 210.779C224.881 209.946 225.077 209.122 225.322 208.312L225.456 208.206L226.254 207.564L235.604 207.287H235.675C235.629 209.201 238.846 211.396 238.846 211.396C242.271 212.665 242.776 214.099 242.804 214.754Z" fill="white"/>
<path opacity="0.1" d="M242.806 214.754C242.815 214.877 242.802 215.001 242.768 215.119C242.768 215.119 234.093 216.566 232.321 215.119C231.822 214.696 231.24 214.382 230.613 214.198C229.985 214.013 229.327 213.961 228.678 214.046C228.678 214.046 225.319 214.137 224.759 213.031C224.528 212.566 224.586 211.665 224.731 210.777C226.024 210.906 228.065 211.229 228.866 212C230.078 213.168 232.131 214.335 233.388 214.429C234.382 214.49 240.291 214.678 242.806 214.754Z" fill="black"/>
<path opacity="0.1" d="M215.11 216.8C215.11 216.8 211.054 218.292 208.266 218.48C206.785 218.579 206.007 217.67 205.606 216.794C206.641 217.142 208.073 217.505 208.826 217.173C209.718 216.774 212.882 216.52 214.656 216.411C214.79 216.56 214.943 216.69 215.11 216.8Z" fill="black"/>
<path d="M221.129 96.5243C217.782 95.2222 213.478 90.9203 214.553 88.9101C214.79 88.4025 214.932 87.8552 214.971 87.2959C215.04 86.5365 215.05 85.7728 215.001 85.0117C214.926 83.7645 214.776 82.5228 214.553 81.2935C214.553 81.2935 225 81.5295 224.391 83.0701C224.214 83.5244 224.183 84.3087 224.234 85.1843C224.285 86.0599 224.409 87.0574 224.541 87.8975C224.721 89.0472 224.906 89.9279 224.906 89.9279C224.906 89.9279 224.264 90.8238 223.892 90.872C223.519 90.9203 225.93 98.3897 221.129 96.5243Z" fill="#CF6F80"/>
<path opacity="0.1" d="M212.578 210.317L212.499 210.404C209.376 206.622 205.599 211.338 205.599 211.338L205.543 211.236L205.735 209.097L211.66 207.553L212.499 210.124L212.578 210.317Z" fill="black"/>
<path opacity="0.1" d="M235.68 207.553C235.68 207.553 233.398 207.508 232.182 208.584C230.965 209.66 225.083 208.815 225.337 208.584C225.411 208.467 225.456 208.334 225.469 208.196L226.267 207.553L235.617 207.277C235.652 207.454 235.68 207.553 235.68 207.553Z" fill="black"/>
<path d="M216.464 177.856C216.294 178.277 216.165 178.713 216.079 179.158C215.867 180.378 215.808 181.619 215.904 182.853C215.998 184.63 215.904 196.536 215.904 196.536C215.904 196.536 213.898 199.711 212.778 200.83C211.657 201.949 215.06 203.96 215.06 203.96C215.567 206.855 212.494 210.124 212.494 210.124C209.371 206.343 205.594 211.056 205.594 211.056C205.594 211.056 203.54 207.503 203.028 206.234C202.516 204.965 205.033 204.089 205.918 203.571C206.803 203.053 205.872 200.018 205.872 200.018C205.872 200.018 205.127 197.356 204.24 194.927C203.352 192.498 205.218 180.409 205.218 180.409C205.218 180.409 205.315 178.259 205.545 177.511C205.66 176.97 205.684 176.414 205.614 175.866C205.599 175.681 205.581 175.528 205.568 175.422C205.556 175.315 205.545 175.27 205.545 175.27L205.581 175.209L206.848 172.843C206.848 172.843 217.072 176.366 216.464 177.856Z" fill="#11A4FF"/>
<path d="M235.68 207.274C235.68 207.274 233.399 207.226 232.182 208.289C230.965 209.353 225.083 208.523 225.337 208.289C225.59 208.056 225.568 206.33 225.568 206.33C222.117 201.612 225.061 199.698 225.061 199.698C225.061 199.698 223.522 192.274 223.243 189.521C223.048 187.599 222.807 182.414 222.678 179.478C222.622 178.209 222.589 177.333 222.589 177.333L225.383 176.777L225.745 176.706L232.544 175.338C232.544 175.338 232.732 176.607 232.859 177.645C232.923 178.088 232.957 178.535 232.962 178.983C232.919 179.49 232.962 181.082 232.962 181.082L233.196 185.843C233.045 186.343 232.967 186.862 232.962 187.384C233.011 187.993 233.895 196.675 233.895 196.675C233.895 196.675 235.434 201.858 234.909 202.231C234.385 202.604 235.68 207.274 235.68 207.274Z" fill="#11A4FF"/>
<path opacity="0.1" d="M224.391 83.0777C224.214 83.532 224.183 84.3163 224.234 85.1919C222.835 86.0355 221.226 86.4669 219.593 86.4363C217.96 86.4058 216.368 85.9147 215.001 85.0193C214.926 83.7721 214.776 82.5304 214.552 81.3011C214.552 81.3011 225 81.5371 224.391 83.0777Z" fill="black"/>
<path d="M228.424 77.4737C228.452 79.7765 227.565 81.9959 225.958 83.6438C224.351 85.2916 222.156 86.2328 219.856 86.2604C217.556 86.288 215.339 85.3997 213.693 83.7909C212.047 82.1821 211.107 79.9846 211.079 77.6818C211.079 77.6108 211.079 77.5448 211.079 77.4737C211.079 75.1703 211.993 72.9612 213.62 71.3324C215.247 69.7036 217.454 68.7885 219.754 68.7885C222.055 68.7885 224.262 69.7036 225.889 71.3324C227.516 72.9612 228.43 75.1703 228.43 77.4737H228.424Z" fill="#CF6F80"/>
<path opacity="0.1" d="M221.129 96.5243C217.782 95.2222 213.478 90.9203 214.553 88.9101C214.79 88.4025 214.932 87.8552 214.971 87.2959L219.552 91.0675L222.386 93.3949L224.541 87.9051C224.721 89.0548 224.906 89.9355 224.906 89.9355C224.906 89.9355 224.264 90.8314 223.892 90.8797C223.519 90.9279 225.93 98.3897 221.129 96.5243Z" fill="black"/>
<path d="M232.975 113.192L229.15 177.531L224.161 177.858L211.239 140.552L213.359 96.2603L213.807 86.9025L219.552 91.6258L222.386 93.9532L224.604 88.301L228.729 91.8999L232.975 113.192Z" fill="#11A4FF"/>
<path opacity="0.1" d="M216.464 177.856C216.294 178.277 216.165 178.713 216.079 179.158C212.445 178.598 208.916 177.495 205.609 175.886L205.54 175.851L205.563 175.442V175.229L206.831 172.863C206.831 172.863 217.072 176.366 216.464 177.856Z" fill="black"/>
<path opacity="0.1" d="M225.466 179.168C224.538 179.327 223.602 179.434 222.662 179.49C222.606 178.221 222.573 177.346 222.573 177.346L225.382 176.777L225.466 179.168Z" fill="black"/>
<path opacity="0.1" d="M232.869 177.645C231.066 178.115 228.28 178.643 225.791 178.313L225.755 176.706L232.554 175.338C232.554 175.338 232.734 176.597 232.869 177.645Z" fill="black"/>
<path opacity="0.1" d="M225.745 178.607C215.351 180.384 205.832 175.29 205.832 175.29L205.923 173.564C205.923 173.564 206.159 153.998 205.505 152.498C204.851 150.998 204.341 143.402 204.711 142.242C205.082 141.082 203.36 123.57 203.36 123.57L203.081 116.463L192.867 112.308L197.431 102.783C198.047 101.448 198.577 100.075 199.018 98.6714C199.811 96.1968 203.495 93.7679 203.495 93.7679C203.495 93.7679 207.272 91.3416 208.765 91.4329C210.258 91.5243 212.215 89.2858 212.215 89.2858C213.66 85.598 214.968 87.2553 214.968 87.2553C214.968 87.433 214.968 87.2553 214.897 87.801C214.39 91.8492 223.096 104.641 223.22 104.869L224.059 125.087L224.898 150.673L225.745 178.607Z" fill="black"/>
<path d="M225.466 178.607C215.072 180.384 205.55 175.29 205.55 175.29L205.644 173.564C205.644 173.564 205.877 153.998 205.223 152.498C204.569 150.998 204.06 143.394 204.432 142.224C204.805 141.054 203.074 123.559 203.074 123.559L202.792 116.453L192.581 112.298L197.144 102.773C197.759 101.438 198.289 100.066 198.731 98.6638C199.524 96.1968 203.221 93.7654 203.221 93.7654C203.221 93.7654 206.998 91.339 208.489 91.4304C209.979 91.5218 211.946 89.2858 211.946 89.2858C213.394 85.598 214.989 87.2553 214.989 87.2553C214.989 87.433 214.836 87.5091 214.918 87.801C216.033 91.7274 222.837 104.641 222.961 104.869L223.8 125.087L224.622 150.686L225.466 178.607Z" fill="white"/>
<path opacity="0.1" d="M222.665 105.44C221.547 104.973 215.625 98.2044 215.625 98.2044V96.6639C215.409 96.1562 214.127 96.4659 213.09 96.8212L213.536 87.4635L214.043 87.8848C215.151 91.8086 222.543 105.215 222.665 105.44Z" fill="black"/>
<path d="M222.946 104.882C221.826 104.412 215.904 97.6461 215.904 97.6461V96.1029C215.688 95.5953 214.408 95.905 213.369 96.2603L213.807 86.9127L214.314 87.3315C215.432 91.2502 222.822 104.654 222.946 104.882Z" fill="white"/>
<path opacity="0.1" d="M205.832 138.638C205.971 138.638 213.059 137.892 213.059 137.892C213.059 137.892 217.351 146.343 217.07 148.397C216.789 150.45 216.279 152.272 214.553 151.95C212.826 151.628 205.261 152.204 205.261 152.204L205.832 138.638Z" fill="black"/>
<path d="M205.55 138.077C205.692 138.077 212.78 137.331 212.78 137.331C212.78 137.331 217.07 145.795 216.791 147.826C216.512 149.856 215.997 151.701 214.274 151.379C212.55 151.057 204.98 151.633 204.98 151.633L205.55 138.077Z" fill="white"/>
<path d="M210.892 134.12C210.892 134.12 217.397 137.623 217.536 138.689C217.676 139.755 214.225 138.222 213.48 138.034C212.989 137.917 212.49 137.839 211.987 137.8L207.016 137.935L210.892 134.12Z" fill="#CF6F80"/>
<path opacity="0.1" d="M220.847 105.877C221.225 105.877 221.532 105.57 221.532 105.192C221.532 104.813 221.225 104.506 220.847 104.506C220.469 104.506 220.163 104.813 220.163 105.192C220.163 105.57 220.469 105.877 220.847 105.877Z" fill="black"/>
<path d="M220.847 105.598C221.225 105.598 221.532 105.291 221.532 104.912C221.532 104.534 221.225 104.227 220.847 104.227C220.469 104.227 220.163 104.534 220.163 104.912C220.163 105.291 220.469 105.598 220.847 105.598Z" fill="#3F3D56"/>
<path opacity="0.1" d="M222.107 135.542C222.485 135.542 222.792 135.235 222.792 134.856C222.792 134.478 222.485 134.171 222.107 134.171C221.729 134.171 221.423 134.478 221.423 134.856C221.423 135.235 221.729 135.542 222.107 135.542Z" fill="black"/>
<path d="M222.107 135.26C222.485 135.26 222.792 134.953 222.792 134.575C222.792 134.196 222.485 133.889 222.107 133.889C221.729 133.889 221.423 134.196 221.423 134.575C221.423 134.953 221.729 135.26 222.107 135.26Z" fill="#3F3D56"/>
<path opacity="0.1" d="M221.532 120.709C221.91 120.709 222.216 120.402 222.216 120.024C222.216 119.646 221.91 119.339 221.532 119.339C221.154 119.339 220.847 119.646 220.847 120.024C220.847 120.402 221.154 120.709 221.532 120.709Z" fill="black"/>
<path d="M221.532 120.43C221.91 120.43 222.216 120.123 222.216 119.745C222.216 119.366 221.91 119.06 221.532 119.06C221.154 119.06 220.847 119.366 220.847 119.745C220.847 120.123 221.154 120.43 221.532 120.43Z" fill="#3F3D56"/>
<path d="M237.31 137.658C237.31 137.658 237.777 138.359 237.31 138.674C236.844 138.988 237.356 139.795 237.356 139.795C237.356 139.795 236.192 140.476 236.704 141.092C237.216 141.709 236.892 144.478 236.892 144.478L235.492 146.81C235.492 146.81 235.576 148.305 235.581 150.326C235.581 153.478 235.396 157.909 234.372 159.93L234.509 176.506C234.509 176.506 229.608 178.3 225.507 177.752L224.898 151.153C224.898 151.153 225.786 136.069 226.113 133.176C226.304 131.674 226.382 130.16 226.346 128.646C226.346 128.646 226.206 124.118 225.737 122.019C225.737 122.019 225.23 112.912 225.18 110.392C225.157 109.187 225.22 105.669 225.291 102.324C225.37 98.6664 225.459 95.2172 225.459 95.2172L224.533 87.8848C224.533 87.8848 225.459 87.7934 225.737 88.1639C225.862 88.2808 225.998 88.3853 226.143 88.4761C227.743 89.5573 233.386 92.8822 233.386 92.8822C233.386 92.8822 236.509 94.1258 237.257 95.9075C238.005 97.6892 238.524 98.9532 238.887 99.4608C239.249 99.9684 239.447 102.354 239.447 102.354C239.447 102.354 240.522 106.745 241.361 107.489C242.2 108.232 242.804 112.953 242.804 112.953L235.388 118.79C235.388 118.79 234.737 128.501 234.598 128.877C234.458 129.252 237.31 137.658 237.31 137.658Z" fill="white"/>
<path d="M237.591 137.658C237.591 137.658 238.055 138.359 237.591 138.674C237.128 138.988 237.635 139.795 237.635 139.795C237.635 139.795 236.471 140.476 236.983 141.092C237.495 141.709 237.171 144.478 237.171 144.478L235.776 146.81C235.776 146.81 235.86 148.305 235.868 150.326C235.868 153.478 235.683 157.909 234.658 159.93L234.798 176.506C234.798 176.506 229.897 178.3 225.796 177.752L225.19 151.153C225.19 151.153 226.075 136.07 226.404 133.176C226.596 131.674 226.673 130.16 226.635 128.646C226.635 128.646 226.495 124.118 226.029 122.019C226.029 122.019 225.522 112.912 225.469 110.392C225.446 109.187 225.509 105.669 225.58 102.324C225.659 98.6664 225.748 95.2172 225.748 95.2172L224.526 87.7858C224.526 87.7858 225.748 87.7858 226.029 88.164C226.153 88.2822 226.289 88.3868 226.435 88.4761C228.032 89.5574 233.675 92.8822 233.675 92.8822C233.675 92.8822 236.79 94.1258 237.551 95.9075C238.311 97.6892 238.818 98.9532 239.181 99.4608C239.544 99.9684 239.741 102.354 239.741 102.354C239.741 102.354 240.816 106.745 241.655 107.489C242.494 108.232 243.1 112.953 243.1 112.953L235.685 118.791C235.685 118.791 235.034 128.501 234.892 128.877C234.75 129.252 237.591 137.658 237.591 137.658Z" fill="white"/>
<path opacity="0.1" d="M228.711 97.372L229.383 99.3263L225.857 102.88C225.935 99.2222 226.024 95.773 226.024 95.773L224.802 88.3442C224.802 88.3442 226.024 88.3442 226.305 88.7223C226.429 88.8405 226.565 88.9452 226.711 89.0345L229.707 97.6867L228.711 97.372Z" fill="black"/>
<path d="M228.424 96.8111L229.096 98.7628L225.573 102.316C225.649 98.6588 225.74 95.2096 225.74 95.2096L224.515 87.7782C224.515 87.7782 225.74 87.7782 226.019 88.1563C226.143 88.2738 226.279 88.3784 226.424 88.4685L229.439 97.1283L228.424 96.8111Z" fill="white"/>
<path opacity="0.1" d="M228.424 77.4737C228.425 78.3882 228.282 79.2971 227.999 80.1666C227.951 80.1746 227.902 80.1728 227.855 80.1615C227.808 80.1502 227.764 80.1295 227.725 80.1006C227.656 77.8164 226.536 75.6692 225.154 73.8443C224.766 73.2939 224.295 72.8061 223.76 72.3976C223.218 71.9903 222.544 71.7994 221.869 71.8621C221.108 71.9662 220.436 72.4839 219.668 72.5499C218.654 72.6337 217.747 71.9306 216.74 71.8976C216.331 71.901 215.927 71.992 215.556 72.1645C215.185 72.337 214.855 72.5869 214.588 72.8976C214.059 73.5226 213.666 74.2513 213.434 75.0372C213.036 76.2297 212.819 77.4754 212.791 78.7326C212.778 79.4432 212.709 80.3341 212.05 80.593C212.1 80.0707 212.041 79.5438 211.876 79.0456C211.712 78.5475 211.446 78.0891 211.095 77.6996L211.079 77.6818C211.079 77.6108 211.079 77.5448 211.079 77.4737C211.079 75.1703 211.993 72.9612 213.62 71.3324C215.247 69.7036 217.454 68.7885 219.754 68.7885C222.055 68.7885 224.262 69.7036 225.889 71.3324C227.516 72.9612 228.43 75.1703 228.43 77.4737H228.424Z" fill="black"/>
<path d="M223.354 63.6846C222.037 63.0642 220.539 62.9468 219.141 63.3546C218.439 63.5627 217.777 63.9003 217.065 64.0703C215.544 64.4383 213.769 64.0399 212.463 64.9307C211.738 65.4383 211.302 66.2404 210.897 67.0221L209.883 68.9535C209.33 70.0119 208.772 71.088 208.542 72.253C208.311 73.4179 208.45 74.7225 209.188 75.6616C209.723 76.3418 210.519 76.7707 211.102 77.4128C211.452 77.8043 211.718 78.2642 211.882 78.7634C212.046 79.2627 212.105 79.7906 212.055 80.3138C212.714 80.06 212.78 79.1641 212.796 78.4534C212.824 77.1963 213.041 75.9506 213.44 74.758C213.671 73.9721 214.064 73.2434 214.593 72.6185C214.86 72.3074 215.19 72.0571 215.561 71.8842C215.932 71.7113 216.336 71.6198 216.745 71.6159C217.759 71.6515 218.669 72.3545 219.673 72.2682C220.434 72.2048 221.108 71.687 221.874 71.5829C222.549 71.519 223.223 71.71 223.765 72.1185C224.301 72.5256 224.77 73.0137 225.157 73.5651C226.541 75.3925 227.664 77.5296 227.73 79.8214C228.016 80.0295 228.43 79.7554 228.571 79.4306C228.713 79.1057 228.719 78.725 228.899 78.4153C229.106 78.0575 229.504 77.8646 229.816 77.5956C230.607 76.9128 230.805 75.7631 230.774 74.72C230.744 73.6768 230.541 72.6185 230.739 71.5931C230.858 70.9662 231.127 70.3748 231.274 69.753C231.421 69.1312 231.439 68.4332 231.091 67.8977C230.584 67.1134 229.517 66.9561 228.587 66.8825C227.53 66.7911 226.584 66.9079 225.91 66.017C225.592 65.5527 225.236 65.1163 224.845 64.7125C224.705 64.5779 223.354 63.7404 223.354 63.6846Z" fill="#512E4E"/>
<path opacity="0.1" d="M195.793 117.207L193.146 112.306L192.307 119.869C192.307 119.869 192.774 123.23 192.68 123.745C192.586 124.26 194.591 128.879 194.591 128.879C194.591 128.879 201.215 140.694 203.92 141.3L213.047 134.762L210.623 131.681C210.623 131.681 209.784 131.354 209.574 131.681C209.574 131.681 205.071 123.93 204.607 123.372C204.143 122.813 204.232 121.689 204.232 121.689C204.232 121.689 203.533 120.943 203.766 120.242C203.999 119.542 202.427 117.115 202.427 117.115L203.872 115.763L195.793 117.207Z" fill="black"/>
<path d="M193.286 111.745L192.586 112.306L191.747 119.869C191.747 119.869 192.213 123.23 192.119 123.745C192.026 124.26 194.033 128.879 194.033 128.879C194.033 128.879 200.655 140.694 203.36 141.3L212.502 134.762L210.076 131.681C210.076 131.681 209.236 131.354 209.026 131.681C209.026 131.681 204.526 123.93 204.06 123.372C203.593 122.813 203.687 121.689 203.687 121.689C203.687 121.689 202.987 120.943 203.221 120.242C203.454 119.542 201.867 117.115 201.867 117.115L203.312 115.763L193.286 111.745Z" fill="white"/>
<path opacity="0.1" d="M236.704 141.384C237.211 142.001 236.892 144.772 236.892 144.772L235.492 147.09C235.492 147.09 235.576 148.587 235.581 150.607L233.229 151.343C233.016 151.41 232.79 151.424 232.57 151.386C232.351 151.347 232.143 151.257 231.966 151.121C231.788 150.986 231.645 150.811 231.549 150.609C231.453 150.408 231.407 150.186 231.414 149.963L231.822 136.866L237.31 138.965C236.844 139.29 237.356 140.087 237.356 140.087C237.356 140.087 236.192 140.767 236.704 141.384Z" fill="black"/>
<path d="M236.983 141.105C237.49 141.719 237.171 144.491 237.171 144.491L235.776 146.81C235.776 146.81 235.86 148.305 235.868 150.326L233.472 151.074C233.264 151.14 233.043 151.154 232.829 151.117C232.614 151.079 232.411 150.991 232.237 150.859C232.064 150.727 231.924 150.555 231.83 150.358C231.736 150.161 231.691 149.945 231.697 149.727L232.106 136.585L237.592 138.689C237.123 139.014 237.635 139.811 237.635 139.811C237.635 139.811 236.471 140.488 236.983 141.105Z" fill="white"/>
<path d="M238.803 134.856C238.803 134.856 238.43 137.24 237.498 137.379C236.565 137.519 236.146 141.234 235.216 141.105C234.286 140.976 234.902 137.648 234.935 137.003C234.968 136.359 233.921 133.689 234.701 133.082C235.482 132.476 237.967 133.082 237.967 133.082L238.803 134.856Z" fill="#CF6F80"/>
<path opacity="0.1" d="M240.776 116.506L242.532 112.953C242.532 112.953 243.235 115.661 243.235 117.108C243.235 118.554 244.213 118.697 244.213 118.697C244.213 118.697 245.285 119.966 244.72 120.892C244.155 121.818 243.929 124.113 243.929 124.113C243.929 124.113 244.114 128.501 243.275 129.108C242.436 129.714 242.248 131.163 242.248 131.163C242.248 131.163 240.71 133.917 240.758 134.572C240.806 135.227 238.613 139.661 238.613 139.661C238.613 139.661 239.685 134.151 233.436 131.77C233.436 131.77 233.388 129.902 233.855 129.389C234.321 128.877 235.049 128.628 234.592 126.049C234.136 123.471 234.461 120.362 234.461 119.74C234.461 119.118 235.86 115.242 235.86 115.242L240.776 116.506Z" fill="black"/>
<path d="M241.556 112.445L243.093 112.953C243.093 112.953 243.795 115.661 243.795 117.108C243.795 118.554 244.773 118.697 244.773 118.697C244.773 118.697 245.846 119.966 245.28 120.892C244.715 121.818 244.487 124.113 244.487 124.113C244.487 124.113 244.674 128.501 243.835 129.108C242.996 129.714 242.821 131.163 242.821 131.163C242.821 131.163 241.283 133.917 241.331 134.572C241.379 135.227 239.183 139.661 239.183 139.661C239.183 139.661 240.256 134.151 234.007 131.77C234.007 131.77 233.961 129.902 234.428 129.389C234.894 128.877 235.622 128.628 235.165 126.049C234.709 123.471 235.034 120.362 235.034 119.74C235.034 119.118 236.433 115.242 236.433 115.242L241.556 112.445Z" fill="white"/>
<path opacity="0.1" d="M207.616 204.543C207.616 204.543 210.065 203.003 211.673 204.122C213.28 205.241 207.616 204.543 207.616 204.543Z" fill="black"/>
<path opacity="0.1" d="M226.65 199.779C226.65 199.779 228.817 199.5 230.638 201.462C232.458 203.424 226.65 199.779 226.65 199.779Z" fill="black"/>
<g opacity="0.1">
<path d="M229.816 77.0372C229.505 77.3088 229.104 77.4991 228.896 77.857C228.719 78.1641 228.714 78.5448 228.572 78.8722C228.43 79.1996 228.016 79.4712 227.727 79.263C227.662 76.9788 226.538 74.8342 225.157 73.0068C224.771 72.4561 224.301 71.9689 223.765 71.5626C223.223 71.1533 222.548 70.9614 221.871 71.0246C221.111 71.1286 220.442 71.6464 219.673 71.7124C218.659 71.7961 217.749 71.0931 216.743 71.0601C216.334 71.0632 215.93 71.1541 215.56 71.3266C215.189 71.4991 214.859 71.7492 214.593 72.0601C214.064 72.685 213.671 73.4138 213.44 74.1997C213.041 75.3922 212.824 76.6379 212.796 77.895C212.781 78.6032 212.715 79.4864 212.061 79.7504C212.076 79.9387 212.076 80.128 212.061 80.3163C212.722 80.0625 212.788 79.1666 212.803 78.456C212.832 77.1988 213.049 75.9531 213.447 74.7606C213.679 73.9747 214.071 73.2459 214.601 72.621C214.867 72.3102 215.197 72.0599 215.567 71.887C215.938 71.7141 216.341 71.6225 216.75 71.6185C217.765 71.654 218.677 72.357 219.681 72.2707C220.442 72.2073 221.116 71.6895 221.879 71.5855C222.555 71.5216 223.23 71.7126 223.773 72.121C224.309 72.5281 224.778 73.0162 225.164 73.5677C226.546 75.3951 227.669 77.5321 227.735 79.824C228.024 80.0321 228.437 79.758 228.579 79.4331C228.721 79.1082 228.726 78.7275 228.904 78.4179C229.112 78.06 229.512 77.8671 229.824 77.5981C230.615 76.9154 230.813 75.7656 230.782 74.7225C230.782 74.6895 230.782 74.659 230.782 74.626C230.732 75.5347 230.491 76.456 229.816 77.0372Z" fill="black"/>
<path d="M211.1 76.8595C210.519 76.2174 209.723 75.7859 209.188 75.1057C208.736 74.5053 208.479 73.7808 208.45 73.0296C208.371 73.9689 208.633 74.9054 209.188 75.6666C209.723 76.3468 210.519 76.7758 211.1 77.4179C211.66 78.0456 211.997 78.8418 212.058 79.6818C212.096 79.171 212.031 78.6578 211.866 78.1729C211.702 77.6879 211.441 77.2412 211.1 76.8595Z" fill="black"/>
<path d="M231.274 69.1946C231.124 69.8164 230.858 70.4078 230.736 71.0347C230.663 71.4586 230.637 71.8893 230.658 72.319C230.666 72.0762 230.692 71.8345 230.736 71.5956C230.858 70.9687 231.124 70.3774 231.274 69.7555C231.36 69.4124 231.388 69.0573 231.357 68.7048C231.341 68.8698 231.313 69.0335 231.274 69.1946Z" fill="black"/>
</g>
<path opacity="0.1" d="M33.6482 212.911C47.2907 212.911 58.3502 211.133 58.3502 208.939C58.3502 206.746 47.2907 204.967 33.6482 204.967C20.0057 204.967 8.94629 206.746 8.94629 208.939C8.94629 211.133 20.0057 212.911 33.6482 212.911Z" fill="#11A4FF"/>
<path d="M34.4442 132.846H32.8547V168.676H34.4442V132.846Z" fill="#535461"/>
<path d="M44.4351 168.569L44.3337 170.183L44.1943 172.468L44.136 173.417L43.994 175.701L43.9332 176.65L43.7937 178.934L42.189 204.84C42.1206 205.955 41.6301 207.001 40.8175 207.766C40.0049 208.531 38.9314 208.957 37.816 208.957H29.4831C28.3647 208.957 27.2884 208.529 26.4752 207.761C25.662 206.992 25.1736 205.94 25.1101 204.823L23.5054 178.917L23.366 176.632L23.3077 175.683L23.1632 173.399L23.1049 172.45L22.9654 170.166L22.864 168.551C22.8465 168.242 22.892 167.932 22.9978 167.641C23.1036 167.35 23.2675 167.083 23.4796 166.857C23.6916 166.632 23.9473 166.451 24.2311 166.328C24.5149 166.204 24.8209 166.139 25.1304 166.138H42.1713C42.4822 166.139 42.7895 166.205 43.0742 166.33C43.359 166.455 43.6152 166.637 43.8272 166.864C44.0392 167.092 44.2025 167.361 44.307 167.654C44.4116 167.947 44.4552 168.258 44.4351 168.569Z" fill="#3F3D56"/>
<path d="M44.3337 170.181L44.1918 172.46H23.1049L22.9629 170.181H44.3337Z" fill="#9D9CB5"/>
<path d="M44.1334 173.409L43.9939 175.688H23.3051L23.1631 173.409H44.1334Z" fill="#9D9CB5"/>
<path d="M43.9333 176.64L43.7938 178.917H23.5055L23.3635 176.64H43.9333Z" fill="#9D9CB5"/>
<path d="M20.547 146.278C29.8051 152.983 33.661 163.47 33.661 163.47C33.661 163.47 22.5066 163.087 13.2459 156.381C3.98521 149.676 0.124268 139.196 0.124268 139.196C0.124268 139.196 11.2787 139.572 20.547 146.278Z" fill="#11A4FF"/>
<path d="M0.124268 139.196C0.124268 139.196 11.702 145.63 15.4159 150.958C19.1299 156.285 33.6509 163.475 33.6509 163.475" stroke="#535461" stroke-width="2" stroke-miterlimit="10"/>
<path d="M26.5119 132.77C31.5517 136.417 33.6508 142.125 33.6508 142.125C33.6508 142.125 27.5665 141.917 22.5395 138.27C17.5124 134.623 15.4006 128.912 15.4006 128.912C15.4006 128.912 21.4747 129.12 26.5119 132.77Z" fill="#11A4FF"/>
<path d="M15.4006 128.912C15.4006 128.912 21.7029 132.415 23.7259 135.313C25.7489 138.212 33.6508 142.125 33.6508 142.125" stroke="#535461" stroke-width="2" stroke-miterlimit="10"/>
<path d="M40.9723 141.836C35.1847 148.204 33.9602 156.526 33.9602 156.526C33.9602 156.526 42.1207 154.521 47.9032 148.151C53.6858 141.78 54.9153 133.46 54.9153 133.46C54.9153 133.46 46.7599 135.468 40.9723 141.836Z" fill="#11A4FF"/>
<path d="M54.9204 133.463C54.9204 133.463 47.381 139.991 45.4645 144.488C43.5479 148.986 33.9602 156.526 33.9602 156.526" stroke="#535461" stroke-width="2" stroke-miterlimit="10"/>
</g>
<defs>
<linearGradient id="paint0_linear_27_42" x1="118.016" y1="212.069" x2="118.016" y2="65.4586" gradientUnits="userSpaceOnUse">
<stop stop-color="#808080" stop-opacity="0.25"/>
<stop offset="0.54" stop-color="#808080" stop-opacity="0.12"/>
<stop offset="1" stop-color="#808080" stop-opacity="0.1"/>
</linearGradient>
<linearGradient id="paint1_linear_27_42" x1="218.624" y1="218.487" x2="218.624" y2="62.3115" gradientUnits="userSpaceOnUse">
<stop stop-color="#808080" stop-opacity="0.25"/>
<stop offset="0.54" stop-color="#808080" stop-opacity="0.12"/>
<stop offset="1" stop-color="#808080" stop-opacity="0.1"/>
</linearGradient>
<clipPath id="clip0_27_42">
<rect width="296" height="219" fill="white"/>
</clipPath>
</defs>
</svg>
