<svg width="314" height="253" viewBox="0 0 314 253" fill="none" xmlns="http://www.w3.org/2000/svg">
<path d="M178.88 223.823C176.709 220.785 173.77 218.562 170.075 217.73C166.852 217.004 163.539 217.128 160.264 217.153L118.848 217.472C115.301 217.499 111.901 220.57 112.065 224.251C112.229 227.9 115.046 231.059 118.848 231.029C130.98 230.936 143.112 230.842 155.244 230.749C158.104 230.727 160.966 230.675 163.826 230.685C164.468 230.687 165.108 230.721 165.75 230.728C165.905 230.73 166.017 230.728 166.097 230.725C166.117 230.731 166.133 230.736 166.159 230.744C166.494 230.835 166.837 230.899 167.174 230.986C167.056 230.989 167.392 231.199 167.561 231.27C167.585 231.316 167.634 231.397 167.717 231.522C167.832 231.738 168.173 232.395 168.187 232.374C168.7 233.67 169.123 234.999 169.454 236.353C170.242 239.339 170.415 239.963 170.529 242.764C170.672 246.303 173.546 249.711 177.312 249.543C180.864 249.384 184.248 246.559 184.095 242.764C183.835 236.369 182.712 229.186 178.88 223.823Z" fill="#E6E6E6"/>
<path d="M121.283 239.12C120.505 234.409 119.742 229.695 118.949 224.987C118.144 220.21 116.501 215.836 112.781 212.701C111.788 211.864 110.757 211.082 109.722 210.302C109.358 210.028 108.995 209.754 108.636 209.474C108.614 209.457 108.6 209.447 108.582 209.432C108.542 209.398 108.495 209.358 108.431 209.304C106.881 207.993 105.383 206.623 103.956 205.168C102.689 203.875 101.477 202.527 100.321 201.124C100.032 200.773 99.7468 200.42 99.4653 200.063C99.4168 200.002 99.156 199.665 98.9842 199.445C98.8244 199.225 98.5323 198.828 98.4832 198.758C98.1543 198.294 97.8313 197.824 97.5141 197.351C95.3536 194.116 93.4829 190.697 91.9236 187.134C91.769 186.781 91.618 186.425 91.4707 186.068C91.4312 185.959 91.38 185.818 91.3121 185.632C90.9979 184.768 90.6843 183.906 90.397 183.032C89.7865 181.176 89.2617 179.293 88.8225 177.382C88.6054 176.439 88.4099 175.49 88.2361 174.537C88.1465 174.047 88.0626 173.556 87.9846 173.064C87.9718 172.982 87.8956 172.451 87.8507 172.151C87.8175 171.85 87.7559 171.316 87.7476 171.233C87.6979 170.737 87.6538 170.241 87.6153 169.744C87.5286 168.625 87.4699 167.505 87.4394 166.382C87.3872 164.388 87.423 162.394 87.5466 160.4C87.617 159.279 87.7172 158.162 87.8405 157.046C87.848 156.978 87.8538 156.923 87.8592 156.874C87.8666 156.824 87.8753 156.768 87.8857 156.697C87.977 156.081 88.073 155.465 88.1804 154.852C88.5873 152.522 89.1164 150.215 89.7657 147.94C90.0731 146.865 90.4069 145.798 90.7673 144.739C90.928 144.27 91.0937 143.802 91.2645 143.335C91.2534 143.365 91.7657 142.058 91.7725 142.014C93.8053 137.214 97.1301 132.839 97.1347 127.386C97.1378 123.695 94.0127 120.159 90.3517 120.329C88.5264 120.398 86.799 121.172 85.5337 122.488C84.2684 123.805 83.5639 125.561 83.5687 127.386C83.5687 127.469 83.5682 127.54 83.5681 127.609C83.5339 127.723 83.5053 127.819 83.4797 127.904C83.0833 128.765 82.5976 129.583 82.1625 130.423C80.971 132.72 79.954 135.093 78.988 137.501C77.4064 141.422 76.1958 145.483 75.3721 149.63C73.5816 158.716 73.4426 168.05 74.9618 177.185C77.5917 193.205 86.2646 208.54 98.322 218.848C99.3684 219.742 100.44 220.606 101.522 221.453C101.97 221.804 102.421 222.148 102.875 222.49C103.09 222.651 103.978 223.351 103.587 223.012C104.428 223.729 104.781 224.09 104.997 224.618C105.029 224.739 105.071 224.905 105.129 225.131C105.281 225.726 105.426 226.32 105.546 226.924C106.595 232.199 107.325 237.563 108.201 242.872C108.804 246.52 113.298 248.894 116.545 247.801C120.325 246.528 121.928 243.029 121.283 239.12Z" fill="#E6E6E6"/>
<path d="M179.566 252.802C176.718 252.809 173.982 251.687 171.96 249.682C169.939 247.676 168.795 244.951 168.781 242.105V234.372C160.68 235.278 132.94 235.068 124.989 233.792V241.795C124.967 244.64 123.822 247.361 121.801 249.364C119.781 251.368 117.05 252.493 114.204 252.493C111.357 252.493 108.626 251.368 106.606 249.364C104.586 247.361 103.44 244.64 103.419 241.795V226.081C92.6488 220.102 83.6706 211.359 77.4106 200.755C71.1507 190.15 67.8357 178.069 67.8079 165.757C67.8079 144.645 77.3816 124.952 94.0745 111.725C104.928 103.097 118.115 97.9072 131.942 96.8239C133.818 96.6768 135.707 96.6023 137.554 96.6023C144.062 96.6023 173.427 97.6071 180.795 99.7254L197.594 83.0663C197.841 82.818 198.157 82.6489 198.5 82.5805C198.844 82.5121 199.2 82.5475 199.523 82.6821C199.849 82.8116 200.128 83.0366 200.324 83.3274C200.519 83.6183 200.622 83.9614 200.619 84.3118V86.9605L203.89 83.7229C204.137 83.4744 204.452 83.305 204.795 83.2365C205.139 83.1679 205.495 83.2033 205.818 83.3381C206.144 83.4675 206.423 83.6925 206.619 83.9835C206.815 84.2745 206.918 84.6178 206.915 84.9684V114.567C215.344 122.162 221.769 131.718 225.62 142.387C229.471 153.057 230.629 164.511 228.991 175.735C227.352 186.958 222.969 197.605 216.229 206.731C209.489 215.857 200.601 223.18 190.351 228.052V242.105C190.337 244.951 189.194 247.676 187.172 249.682C185.15 251.687 182.415 252.809 179.566 252.802ZM169.629 233.411V242.105C169.651 244.724 170.707 247.229 172.568 249.074C174.429 250.919 176.945 251.954 179.566 251.954C182.188 251.954 184.703 250.919 186.564 249.074C188.426 247.229 189.482 244.724 189.503 242.105V227.517L189.745 227.402C201.246 221.948 211.009 213.416 217.95 202.753C226.796 189.145 230.474 172.823 228.32 156.74C226.166 140.657 218.322 125.876 206.208 115.072L206.067 114.945V84.9684C206.07 84.7862 206.017 84.6075 205.915 84.4564C205.813 84.3052 205.668 84.1888 205.498 84.1229C205.329 84.0507 205.142 84.0313 204.962 84.067C204.782 84.1028 204.617 84.1922 204.488 84.3234L199.771 88.9923V84.3118C199.774 84.1296 199.721 83.951 199.62 83.7998C199.518 83.6486 199.372 83.5322 199.202 83.4663C199.033 83.3943 198.846 83.375 198.665 83.411C198.485 83.447 198.32 83.5367 198.191 83.6682L181.032 100.684L180.788 100.608C173.939 98.4653 144.112 97.4496 137.554 97.4496C135.729 97.4496 133.863 97.5233 132.008 97.6687C118.35 98.7388 105.323 103.865 94.6013 112.389C78.1125 125.454 68.6557 144.906 68.6557 165.757C68.6838 177.96 71.9811 189.933 78.2049 200.432C84.4286 210.931 93.3519 219.573 104.048 225.461L104.266 225.582V241.795C104.288 244.415 105.345 246.919 107.206 248.764C109.067 250.609 111.582 251.643 114.204 251.643C116.825 251.643 119.34 250.609 121.201 248.764C123.062 246.919 124.119 244.415 124.141 241.795V232.777L124.643 232.872C131.789 234.215 161.878 234.427 169.15 233.474L169.629 233.411Z" fill="#3F3D56"/>
<path d="M122.093 50.4655L75.1461 64.565C73.6529 65.0152 72.3996 66.0394 71.6616 67.4125C70.9235 68.7857 70.7611 70.3954 71.2099 71.8882C71.6588 73.381 72.6822 74.6346 74.0554 75.3737C75.4286 76.1128 77.0393 76.277 78.5335 75.8301L119.617 63.4889L120.478 63.2304C120.652 58.7983 121.855 54.4674 123.992 50.5799C123.724 50.4593 123.437 50.3848 123.144 50.3596C122.79 50.3253 122.433 50.3613 122.093 50.4655Z" fill="#11A4FF"/>
<path d="M77.7217 78.8361C77.0985 78.8346 76.4915 78.6374 75.9866 78.2724C75.4816 77.9074 75.1042 77.393 74.9077 76.802L71.972 67.9492C71.8494 67.5795 71.8008 67.1892 71.8291 66.8008C71.8574 66.4123 71.962 66.0333 72.1369 65.6852C72.3119 65.3372 72.5537 65.027 72.8486 64.7724C73.1435 64.5177 73.4857 64.3236 73.8556 64.2012L112.066 51.5464C112.436 51.4238 112.826 51.3753 113.215 51.4035C113.603 51.4318 113.983 51.5363 114.331 51.711C114.679 51.8858 114.99 52.1274 115.244 52.422C115.499 52.7166 115.693 53.0585 115.816 53.4282L118.752 62.281C118.996 63.0092 118.947 63.8037 118.615 64.4964C118.283 65.1891 117.695 65.7255 116.974 65.992C116.939 66.0052 116.903 66.0177 116.867 66.0294L78.6581 78.6838C78.3561 78.7844 78.04 78.8358 77.7217 78.8361Z" fill="#2F2E41"/>
<path d="M149.28 34.7434C141.568 34.7464 134.16 37.7481 128.624 43.1132C123.087 48.4783 119.857 55.7857 119.617 63.4889C119.609 63.7897 119.604 64.0947 119.604 64.3997C119.604 70.2652 121.345 75.9989 124.606 80.8759C127.867 85.7528 132.501 89.5539 137.924 91.7986C143.346 94.0432 149.313 94.6305 155.07 93.4862C160.826 92.3419 166.114 89.5174 170.264 85.3699C174.414 81.2224 177.24 75.9381 178.386 70.1854C179.531 64.4326 178.943 58.4697 176.697 53.0508C174.451 47.6318 170.647 43.0001 165.767 39.7414C160.887 36.4828 155.149 34.7434 149.28 34.7434ZM149.28 93.2087C141.637 93.2007 134.309 90.163 128.905 84.762C123.5 79.361 120.46 72.0379 120.452 64.3997C120.452 64.0057 120.461 63.616 120.478 63.2304C120.707 57.5872 122.592 52.1358 125.897 47.5543C129.202 42.9727 133.781 39.4631 139.066 37.4617C144.351 35.4604 150.108 35.0557 155.621 36.2979C161.134 37.5401 166.161 40.3744 170.075 44.4485C173.989 48.5225 176.619 53.6565 177.636 59.212C178.654 64.7676 178.016 70.4996 175.8 75.6953C173.584 80.891 169.889 85.3212 165.174 88.435C160.459 91.5488 154.932 93.2089 149.28 93.2087Z" fill="#3F3D56"/>
<path d="M174.292 64.3997C174.292 71.0291 171.657 77.3869 166.966 82.0746C162.276 86.7622 155.914 89.3957 149.28 89.3957C142.646 89.3957 136.284 86.7622 131.594 82.0746C126.903 77.3869 124.268 71.0291 124.268 64.3997C124.268 63.6075 124.306 62.8279 124.378 62.0569C124.981 55.6589 128.026 49.7386 132.882 45.5255C137.737 41.3123 144.03 39.1299 150.454 39.4314C156.877 39.7329 162.937 42.4951 167.377 47.1446C171.816 51.794 174.292 57.9734 174.292 64.3997Z" fill="#E6E6E6"/>
<path d="M156.729 66.0605C156.122 65.2639 155.325 64.6329 154.41 64.226C153.281 63.7507 152.116 63.3681 150.925 63.0821V56.2781C152.755 56.5539 154.472 57.3361 155.881 58.5363L157.263 55.5918C156.468 54.8841 155.555 54.3207 154.566 53.9268C153.47 53.4833 152.32 53.1883 151.145 53.0499V49.6012H147.945V53.0837C146.709 53.2225 145.517 53.6225 144.447 54.2573C143.481 54.8286 142.668 55.6252 142.077 56.5789C141.513 57.5097 141.221 58.5795 141.234 59.6674C141.179 60.8464 141.52 62.0099 142.205 62.972C142.834 63.805 143.666 64.464 144.621 64.8869C145.767 65.3763 146.953 65.7688 148.165 66.0605V72.5806C146.005 72.4178 143.947 71.5972 142.268 70.2293L140.886 73.178C141.825 73.9536 142.892 74.5587 144.04 74.9658C145.298 75.4156 146.612 75.6894 147.945 75.7793V79.1982H151.145V75.7157C152.923 75.5216 154.59 74.7576 155.898 73.5381C156.473 72.9863 156.928 72.3211 157.233 71.5845C157.538 70.848 157.687 70.0561 157.67 69.2591C157.723 68.1177 157.392 66.9914 156.729 66.0605ZM148.165 62.3619C147.386 62.1256 146.661 61.7368 146.033 61.218C145.784 60.9968 145.587 60.7233 145.457 60.4171C145.326 60.1109 145.265 59.7797 145.278 59.4471C145.255 58.6926 145.533 57.9596 146.05 57.4093C146.623 56.832 147.363 56.4483 148.165 56.312V62.3619ZM152.934 71.3774C152.394 71.9317 151.689 72.2984 150.925 72.4239V66.8146C151.656 67.0105 152.339 67.3521 152.934 67.8187C153.16 68.0113 153.339 68.2522 153.459 68.5236C153.579 68.795 153.636 69.0898 153.625 69.3862C153.655 70.1133 153.408 70.8247 152.934 71.3774Z" fill="#11A4FF"/>
<path d="M79.0841 114.716C78.4287 114.714 77.792 114.497 77.2728 114.098C76.7535 113.698 76.3806 113.139 76.2119 112.506L74.6136 106.46C74.4135 105.7 74.5232 104.892 74.9186 104.213C75.314 103.534 75.9628 103.039 76.7227 102.837L127.146 89.5218C127.907 89.3234 128.716 89.4342 129.395 89.83C130.074 90.2258 130.569 90.8744 130.771 91.6339L132.125 96.7559L131.872 96.7755C118.94 97.7804 106.566 102.466 96.2152 110.278L96.1417 110.314L79.837 114.618C79.5913 114.683 79.3382 114.716 79.0841 114.716Z" fill="#2F2E41"/>
<path d="M70.7331 144.578C64.8182 143.705 59.1612 141.567 54.1478 138.311C51.664 136.699 49.3647 134.82 47.291 132.707C45.2443 130.62 43.2863 128.249 42.2725 125.471C41.2972 122.9 41.3474 120.054 42.413 117.519C43.464 115 45.4716 113 47.9957 111.958C50.5349 110.946 53.6028 110.838 56.074 111.946C57.2516 112.462 58.2706 113.282 59.0264 114.321C59.3778 114.8 59.6379 115.34 59.7939 115.913C59.9386 116.433 59.9518 116.98 59.8322 117.506C59.6873 118.031 59.4317 118.519 59.0827 118.937C58.7336 119.355 58.2992 119.694 57.8084 119.931C56.7282 120.484 55.5579 120.841 54.3524 120.984C53.1399 121.149 51.3981 121.3 50.4233 120.327C50.2227 120.134 50.0649 119.902 49.9601 119.644C49.8869 119.447 49.8618 119.236 49.8871 119.027C49.8728 119.119 49.9459 118.827 49.9417 118.838C49.9263 118.881 49.8595 118.987 49.9544 118.825C49.9841 118.772 50.0171 118.72 50.0533 118.671C50.021 118.713 49.9503 118.782 50.0766 118.663C50.181 118.549 50.3153 118.466 50.4642 118.424C50.5229 118.407 50.5824 118.393 50.6413 118.377C50.7908 118.336 50.4922 118.379 50.6452 118.375C50.7043 118.373 50.764 118.374 50.8228 118.371C50.9729 118.365 50.6748 118.331 50.8186 118.367C50.8745 118.381 50.9298 118.394 50.9848 118.412C51.1044 118.449 50.9001 118.324 50.9811 118.418C51.0761 118.528 50.8814 118.311 50.9894 118.417C51.0431 118.47 51.0937 118.526 51.141 118.584C51.3282 118.769 51.5806 118.873 51.8437 118.873C52.1067 118.873 52.3592 118.769 52.5464 118.584C52.7272 118.395 52.8281 118.144 52.8281 117.882C52.8281 117.621 52.7272 117.369 52.5464 117.18C51.5665 115.966 49.6309 116.266 48.6397 117.292C47.3755 118.6 47.8761 120.674 49.1058 121.816C50.4979 123.108 52.4695 123.198 54.2602 122.981C55.7735 122.837 57.2483 122.42 58.6136 121.752C59.9703 121.086 61.0314 119.94 61.5914 118.537C61.8442 117.788 61.935 116.994 61.8578 116.208C61.7806 115.421 61.5371 114.66 61.1435 113.975C59.5625 111.004 56.2888 109.482 53.053 109.218C51.387 109.087 49.7117 109.288 48.1239 109.809C46.5362 110.33 45.0676 111.161 43.8032 112.252C41.3659 114.445 39.8652 117.49 39.6112 120.757C39.3287 124.145 40.6439 127.435 42.5614 130.169C44.5689 132.946 46.9644 135.422 49.6749 137.521C54.9738 141.748 61.1895 144.678 67.8245 146.075C68.6137 146.238 69.4071 146.377 70.2048 146.493C70.4586 146.555 70.7263 146.517 70.9534 146.388C71.1805 146.259 71.3499 146.049 71.4272 145.799C71.4953 145.546 71.4607 145.275 71.3308 145.046C71.2009 144.818 70.9862 144.649 70.7331 144.578L70.7331 144.578Z" fill="#3F3D56"/>
<path d="M165.434 101.417C156.768 101.295 148.129 101.514 139.518 102.076C136.574 102.268 134.028 103.308 134.028 105.055C134.028 106.516 136.554 108.228 139.518 108.035C148.125 107.473 156.764 107.253 165.434 107.375C172.503 107.475 172.499 101.516 165.434 101.417Z" fill="#CCCCCC"/>
<path d="M152.626 107.08C151.689 107.08 129.688 107.045 129.688 104.008C129.688 100.971 151.689 100.936 152.626 100.936C153.562 100.936 175.563 100.971 175.563 104.008C175.563 107.045 153.562 107.08 152.626 107.08ZM130.549 104.008C131.151 104.929 139.238 106.233 152.626 106.233C166.014 106.233 174.101 104.929 174.703 104.008C174.101 103.088 166.014 101.784 152.626 101.784C139.238 101.784 131.151 103.088 130.549 104.008V104.008Z" fill="#3F3D56"/>
<path d="M222.429 186.919C227.299 186.784 233.36 186.615 238.03 183.206C239.421 182.15 240.563 180.802 241.377 179.257C242.192 177.713 242.658 176.009 242.744 174.266C242.84 171.573 241.866 169.223 240.004 167.65C237.565 165.591 234.003 165.108 230.165 166.235L234.142 137.194L231.223 136.794L226.548 170.936L228.986 169.818C231.812 168.522 235.691 167.863 238.102 169.899C238.694 170.431 239.155 171.093 239.449 171.832C239.744 172.572 239.864 173.369 239.8 174.162C239.729 175.46 239.378 176.727 238.773 177.877C238.168 179.027 237.321 180.034 236.292 180.828C232.658 183.481 227.826 183.823 222.347 183.976L222.429 186.919Z" fill="#3F3D56"/>
<path d="M214.358 139.698H198.489V142.643H214.358V139.698Z" fill="#3F3D56"/>
<path d="M86.2651 128.258C85.5587 128.256 84.8762 128.002 84.3399 127.543C83.8036 127.084 83.4485 126.448 83.3382 125.751L82.3696 119.574C82.2486 118.797 82.441 118.003 82.9045 117.368C83.368 116.733 84.0648 116.307 84.842 116.184L136.364 108.117C137.141 107.996 137.935 108.188 138.571 108.652C139.206 109.115 139.632 109.811 139.755 110.588L140.723 116.766C140.844 117.542 140.652 118.336 140.189 118.971C139.725 119.606 139.028 120.032 138.251 120.155L86.7293 128.222C86.5757 128.246 86.4205 128.258 86.2651 128.258Z" fill="#2F2E41"/>
<path d="M64.9428 55.8617C76.8837 55.8617 86.5636 46.1881 86.5636 34.255C86.5636 22.3219 76.8837 12.6483 64.9428 12.6483C53.002 12.6483 43.322 22.3219 43.322 34.255C43.322 46.1881 53.002 55.8617 64.9428 55.8617Z" fill="#11A4FF"/>
<path d="M77.1841 39.8456C77.8751 39.6041 78.5064 39.2175 79.0354 38.7118C79.3854 38.3513 79.6524 37.9187 79.8175 37.4442C79.9826 36.9698 80.0419 36.465 79.9913 35.9652C79.9619 35.609 79.8505 35.2645 79.6657 34.9584C79.481 34.6524 79.2279 34.3932 78.9263 34.2011C78.1439 33.7202 77.1099 33.7384 76.066 34.222L75.9456 25.7878L75.0978 25.7998L75.2394 35.7151L75.8848 35.2921C76.6332 34.8024 77.7085 34.4473 78.4821 34.9229C78.6734 35.0488 78.8331 35.2171 78.9488 35.4147C79.0644 35.6123 79.1329 35.8339 79.1489 36.0623C79.1846 36.4346 79.1396 36.8103 79.0169 37.1636C78.8943 37.517 78.6969 37.8398 78.4383 38.1101C77.5192 39.0215 76.1588 39.3268 74.6062 39.6061L74.7564 40.44C75.5818 40.3147 76.3943 40.1158 77.1841 39.8456Z" fill="#2F2E41"/>
<path d="M84.6759 25.1958L80.1609 25.8791L80.2878 26.7168L84.8029 26.0334L84.6759 25.1958Z" fill="#2F2E41"/>
<path d="M70.4245 27.3522L65.9094 28.0355L66.0364 28.8732L70.5514 28.1898L70.4245 27.3522Z" fill="#2F2E41"/>
<path d="M79.2308 127.88C78.4532 127.879 77.6946 127.641 77.0559 127.197C76.4171 126.754 75.9285 126.127 75.6551 125.4L60.7482 85.5042C58.9261 80.6112 59.1207 75.1958 61.2892 70.446C63.4576 65.6962 67.4229 62 72.3149 60.1683L84.436 55.6452C84.9047 55.4691 85.4036 55.3874 85.9041 55.4048C86.4045 55.4221 86.8965 55.5382 87.3519 55.7464C87.8061 55.9492 88.2154 56.2404 88.5557 56.6031C88.896 56.9658 89.1606 57.3926 89.334 57.8587L116.948 109.962C117.127 110.432 117.212 110.933 117.197 111.435C117.181 111.938 117.067 112.433 116.86 112.891C116.653 113.349 116.357 113.762 115.99 114.105C115.622 114.449 115.191 114.717 114.719 114.893L80.5642 127.638C80.1378 127.798 79.6862 127.88 79.2308 127.88Z" fill="#2F2E41"/>
<path d="M80.7583 57.0174L108.157 93.6326L89.6175 57.4017C89.4644 56.979 89.2294 56.5905 88.926 56.2585C88.6227 55.9265 88.2568 55.6575 87.8494 55.4669C87.442 55.2762 87.001 55.1677 86.5516 55.1474C86.1021 55.1271 85.6531 55.1955 85.2302 55.3486L80.7583 57.0174Z" fill="#E6E6E6"/>
<path d="M124.141 84.8244L75.2204 81.6753C74.4493 81.6257 73.6955 81.4247 73.0021 81.084C72.3087 80.7432 71.6893 80.2693 71.1792 79.6893C70.669 79.1094 70.2782 78.4346 70.029 77.7037C69.7798 76.9728 69.6771 76.1999 69.7268 75.4293C69.7764 74.6587 69.9775 73.9054 70.3185 73.2125C70.6594 72.5195 71.1336 71.9005 71.714 71.3907C72.2944 70.8809 72.9696 70.4903 73.701 70.2413C74.4324 69.9923 75.2057 69.8896 75.9768 69.9393L124.897 73.0882C125.258 73.1114 125.611 73.2054 125.936 73.365C126.261 73.5246 126.551 73.7465 126.79 74.0181C127.029 74.2897 127.212 74.6057 127.328 74.948C127.445 75.2903 127.493 75.6523 127.47 76.0131L127.068 82.2533C127.021 82.9822 126.686 83.6625 126.137 84.1447C125.588 84.6268 124.87 84.8713 124.141 84.8244Z" fill="#11A4FF"/>
<path d="M111.069 86.8433C111.004 86.8433 110.939 86.8412 110.874 86.8371H110.874L70.7036 84.2512C70.3147 84.2262 69.9345 84.1249 69.5848 83.9531C69.2351 83.7813 68.9227 83.5423 68.6654 83.2498C68.4081 82.9573 68.211 82.617 68.0853 82.2483C67.9596 81.8797 67.9078 81.4899 67.9329 81.1013L68.6198 70.4427C68.6449 70.0541 68.7463 69.6742 68.9183 69.3247C69.0903 68.9752 69.3295 68.663 69.6222 68.4059C69.9149 68.1488 70.2555 67.9518 70.6244 67.8262C70.9933 67.7007 71.3833 67.649 71.7722 67.674L111.943 70.2596C112.728 70.311 113.46 70.6716 113.98 71.2621C114.499 71.8526 114.763 72.6249 114.713 73.4096L114.027 84.0683C113.989 84.6395 113.787 85.1875 113.445 85.6468C113.103 86.106 112.636 86.4569 112.099 86.6573C111.77 86.7805 111.421 86.8435 111.069 86.8433Z" fill="#2F2E41"/>
<path d="M64.6948 19.8869C67.539 17.4422 71.4449 19.6291 74.7068 19.2463C77.8274 18.88 80.2916 16.0826 80.9211 13.1107C81.6555 9.64345 79.8547 6.16978 77.2003 4.00801C74.2932 1.64034 70.4376 0.960645 66.784 1.39868C62.5965 1.90072 58.7668 3.8514 55.3305 6.21085C52.0136 8.41775 48.9633 11.0008 46.2406 13.9084C43.8025 16.5994 41.7368 19.8069 41.0771 23.428C40.4777 26.7188 40.9354 30.3654 42.8821 33.1532C43.9143 34.582 45.2976 35.7209 46.8985 36.46C48.5677 37.2791 50.3483 37.8647 51.9655 38.7908C54.4107 40.1912 56.7871 43.0948 56.0212 46.1164C55.857 46.7764 55.5329 47.386 55.0775 47.8915C54.5304 48.4985 53.5434 47.6964 54.092 47.0878C55.0555 46.0189 55.0176 44.5933 54.5041 43.3171C53.8935 41.879 52.8123 40.6908 51.4376 39.9472C49.7448 38.98 47.8759 38.383 46.1409 37.502C44.4802 36.6972 43.0387 35.5034 41.9391 34.0221C39.8625 31.1382 39.2414 27.3851 39.7123 23.9131C40.222 20.1559 42.1537 16.7417 44.5752 13.8806C47.2105 10.767 50.4475 8.13131 53.7545 5.76354C57.3028 3.22291 61.2231 1.07498 65.5612 0.29811C69.3216 -0.375317 73.3975 0.0392874 76.6858 2.0872C79.7552 3.9988 82.109 7.28712 82.3431 10.9615C82.4271 12.6333 82.0638 14.2974 81.2907 15.7823C80.5175 17.2673 79.3624 18.5195 77.9442 19.4102C76.4889 20.2805 74.797 20.6722 73.107 20.5301C71.3004 20.4145 69.492 19.8616 67.6738 20.0151C66.8511 20.065 66.067 20.3816 65.4405 20.9169C64.819 21.451 64.0784 20.4167 64.6948 19.8869V19.8869Z" fill="#2F2E41"/>
</svg>
