<svg width="296" height="234" viewBox="0 0 296 234" fill="none" xmlns="http://www.w3.org/2000/svg">
<g clip-path="url(#clip0_38_709)">
<path opacity="0.1" d="M275.416 157.563C263.847 166.152 262.85 183.021 264.838 197.288C265.504 202.064 266.342 207.153 264.323 211.531C261.853 216.885 255.727 219.627 249.873 220.374C239.203 221.733 227.981 217.674 220.657 209.802C214.326 202.998 210.967 193.819 204.446 187.198C193.527 176.117 176.26 174.491 160.769 175.882C149.807 176.864 137.614 178.702 128.764 172.164C122.537 167.562 119.525 159.659 118.797 151.954C118.449 148.234 118.517 144.331 116.837 140.999C115.832 139.018 114.264 137.379 112.601 135.905C97.4143 122.446 73.9826 121.078 59.5607 106.81C49.8201 97.1727 45.7884 82.8857 46.0096 69.1917C46.2308 55.4977 50.2625 42.1674 54.689 29.1868C57.8276 19.9717 61.6046 10.2474 69.5673 4.64113C77.9695 -1.28686 89.628 -1.18336 99.069 2.94582C108.51 7.075 116.019 14.6787 122.204 22.9147C129.934 33.2097 136.441 45.1832 147.64 51.542C155.281 55.8866 164.204 57.0643 172.769 58.9639C187.084 62.1335 200.823 67.4544 214.438 72.8956C227.474 78.1019 240.564 83.4927 252.194 91.3594C260.426 96.9181 266.171 104.508 273.672 110.763C278.56 114.839 284.456 117.198 288.858 121.892C294.278 127.674 298.352 136.28 294.457 143.992C290.762 151.319 281.553 153.003 275.416 157.563Z" fill="#11A4FF"/>
<path d="M149.743 50.7307C150.061 50.7307 150.32 50.4727 150.32 50.1544C150.32 49.8361 150.061 49.5781 149.743 49.5781C149.424 49.5781 149.166 49.8361 149.166 50.1544C149.166 50.4727 149.424 50.7307 149.743 50.7307Z" fill="#F8F9FA"/>
<path d="M151.283 50.7307C151.601 50.7307 151.86 50.4727 151.86 50.1544C151.86 49.8361 151.601 49.5781 151.283 49.5781C150.964 49.5781 150.706 49.8361 150.706 50.1544C150.706 50.4727 150.964 50.7307 151.283 50.7307Z" fill="#F8F9FA"/>
<path d="M152.826 50.7307C153.144 50.7307 153.402 50.4727 153.402 50.1544C153.402 49.8361 153.144 49.5781 152.826 49.5781C152.507 49.5781 152.249 49.8361 152.249 50.1544C152.249 50.4727 152.507 50.7307 152.826 50.7307Z" fill="#F8F9FA"/>
<path d="M1.99342 157.972C1.99342 157.972 -11.8853 179.636 33.6118 180.008C33.6118 180.008 34.281 161.158 19.4083 153.392C16.5164 151.875 13.168 151.471 9.99769 152.256C6.82734 153.04 4.05512 154.96 2.2062 157.65L1.99342 157.972Z" fill="#11A4FF"/>
<path d="M2.09717 157.608C2.09717 157.608 25.4001 162.196 33.612 180.008" stroke="#535461" stroke-miterlimit="10"/>
<path d="M35.6446 177.093C35.6446 177.093 20.6823 157.773 22.0487 138.727C22.6086 130.735 20.7299 122.751 16.3902 116.009C14.3252 112.816 11.972 109.82 9.35986 107.056" stroke="#535461" stroke-width="2" stroke-miterlimit="10"/>
<path d="M10.1437 95.0522C11.188 97.7266 9.3709 107.375 9.3709 107.375C9.3709 107.375 1.495 101.503 0.450669 98.8289C0.175307 98.1877 0.0318558 97.4978 0.0288566 96.8002C0.0258575 96.1025 0.163371 95.4114 0.433211 94.768C0.703051 94.1245 1.0997 93.5419 1.59955 93.0548C2.0994 92.5677 2.69222 92.186 3.34273 91.9326C3.99324 91.6791 4.68815 91.559 5.38607 91.5794C6.08399 91.5999 6.77067 91.7604 7.40522 92.0515C8.03977 92.3425 8.60922 92.7582 9.07967 93.2737C9.55013 93.7892 9.91197 94.394 10.1437 95.0522Z" fill="#11A4FF"/>
<path d="M23.9468 106.74C23.37 109.555 16.5945 116.666 16.5945 116.666C16.5945 116.666 13.1731 107.462 13.7498 104.637C13.8724 103.954 14.1304 103.302 14.5089 102.72C14.8873 102.138 15.3784 101.638 15.9534 101.249C16.5283 100.86 17.1753 100.589 17.8564 100.454C18.5375 100.318 19.2388 100.32 19.9191 100.46C20.5994 100.599 21.2449 100.873 21.8175 101.266C22.3902 101.658 22.8784 102.161 23.2535 102.745C23.6286 103.329 23.8829 103.982 24.0015 104.666C24.1201 105.35 24.1005 106.05 23.944 106.726L23.9468 106.74Z" fill="#11A4FF"/>
<path d="M33.4888 132.198C31.5681 134.335 22.1299 137.057 22.1299 137.057C22.1299 137.057 23.8266 127.386 25.7445 125.249C26.6723 124.244 27.9588 123.645 29.3256 123.581C30.6924 123.517 32.0294 123.993 33.0474 124.906C34.0654 125.82 34.6825 127.097 34.7651 128.462C34.8477 129.826 34.3892 131.169 33.4888 132.198Z" fill="#11A4FF"/>
<path d="M36.3669 153.087C34.8354 155.518 25.9907 159.801 25.9907 159.801C25.9907 159.801 26.0271 149.985 27.5586 147.554C27.9154 146.961 28.387 146.445 28.9459 146.036C29.5047 145.627 30.1395 145.334 30.8132 145.174C31.4868 145.014 32.1857 144.989 32.8689 145.102C33.5521 145.215 34.2059 145.463 34.792 145.832C35.3781 146.2 35.8846 146.682 36.282 147.248C36.6795 147.815 36.9597 148.455 37.1064 149.132C37.253 149.808 37.2632 150.506 37.1362 151.187C37.0092 151.867 36.7477 152.515 36.3669 153.093V153.087Z" fill="#11A4FF"/>
<path d="M6.61038 121.153C9.25901 122.272 18.9604 120.711 18.9604 120.711C18.9604 120.711 13.3104 112.677 10.6617 111.558C10.0312 111.292 9.35436 111.153 8.67 111.148C7.98563 111.144 7.30708 111.274 6.67311 111.532C6.03913 111.789 5.46213 112.169 4.97505 112.649C4.48798 113.13 4.10037 113.701 3.83435 114.331C3.56834 114.962 3.42913 115.638 3.42467 116.322C3.42021 117.005 3.5506 117.683 3.80837 118.317C4.06615 118.95 4.44628 119.527 4.92704 120.013C5.40781 120.5 5.97981 120.887 6.61038 121.153Z" fill="#11A4FF"/>
<path d="M10.2948 145.539C13.1563 145.819 21.9449 141.424 21.9449 141.424C21.9449 141.424 14.1418 135.46 11.2804 135.186C10.5904 135.102 9.89059 135.157 9.22222 135.347C8.55385 135.538 7.93046 135.86 7.38884 136.296C6.84722 136.731 6.39834 137.27 6.06868 137.882C5.73902 138.493 5.53527 139.164 5.46944 139.856C5.40361 140.547 5.47704 141.245 5.6854 141.907C5.89376 142.57 6.23282 143.184 6.68258 143.713C7.13234 144.243 7.68369 144.677 8.3041 144.99C8.9245 145.303 9.6014 145.489 10.2948 145.537V145.539Z" fill="#11A4FF"/>
<path d="M17.1237 168.748C19.8984 169.5 29.303 166.658 29.303 166.658C29.303 166.658 22.6198 159.46 19.8452 158.71C19.181 158.517 18.4848 158.458 17.7975 158.536C17.1101 158.615 16.4453 158.83 15.842 159.168C15.2386 159.506 14.7088 159.961 14.2836 160.506C13.8583 161.052 13.5461 161.676 13.3652 162.343C13.1843 163.011 13.1383 163.707 13.23 164.392C13.3217 165.078 13.5491 165.738 13.8991 166.334C14.249 166.93 14.7145 167.451 15.2681 167.865C15.8218 168.28 16.4527 168.58 17.1237 168.748Z" fill="#11A4FF"/>
<path opacity="0.25" d="M10.1437 95.0522C11.188 97.7266 9.3709 107.375 9.3709 107.375C9.3709 107.375 1.495 101.503 0.450669 98.8289C0.175307 98.1877 0.0318558 97.4978 0.0288566 96.8002C0.0258575 96.1025 0.163371 95.4114 0.433211 94.768C0.703051 94.1245 1.0997 93.5419 1.59955 93.0548C2.0994 92.5677 2.69222 92.186 3.34273 91.9326C3.99324 91.6791 4.68815 91.559 5.38607 91.5794C6.08399 91.5999 6.77067 91.7604 7.40522 92.0515C8.03977 92.3425 8.60922 92.7582 9.07967 93.2737C9.55013 93.7892 9.91197 94.394 10.1437 95.0522Z" fill="black"/>
<path opacity="0.25" d="M23.9468 106.74C23.37 109.555 16.5945 116.666 16.5945 116.666C16.5945 116.666 13.1731 107.462 13.7498 104.637C13.8724 103.954 14.1304 103.302 14.5089 102.72C14.8873 102.138 15.3784 101.638 15.9534 101.249C16.5283 100.86 17.1753 100.589 17.8564 100.454C18.5375 100.318 19.2388 100.32 19.9191 100.46C20.5994 100.599 21.2449 100.873 21.8175 101.266C22.3902 101.658 22.8784 102.161 23.2535 102.745C23.6286 103.329 23.8829 103.982 24.0015 104.666C24.1201 105.35 24.1005 106.05 23.944 106.726L23.9468 106.74Z" fill="black"/>
<path opacity="0.25" d="M33.4888 132.198C31.5681 134.335 22.1299 137.057 22.1299 137.057C22.1299 137.057 23.8266 127.386 25.7445 125.249C26.6723 124.244 27.9588 123.645 29.3256 123.581C30.6924 123.517 32.0294 123.993 33.0474 124.906C34.0654 125.82 34.6825 127.097 34.7651 128.462C34.8477 129.826 34.3892 131.169 33.4888 132.198Z" fill="black"/>
<path opacity="0.25" d="M36.3669 153.087C34.8354 155.518 25.9907 159.801 25.9907 159.801C25.9907 159.801 26.0271 149.985 27.5586 147.554C27.9154 146.961 28.387 146.445 28.9459 146.036C29.5047 145.627 30.1395 145.334 30.8132 145.174C31.4868 145.014 32.1857 144.989 32.8689 145.102C33.5521 145.215 34.2059 145.463 34.792 145.832C35.3781 146.2 35.8846 146.682 36.282 147.248C36.6795 147.815 36.9597 148.455 37.1064 149.132C37.253 149.808 37.2632 150.506 37.1362 151.187C37.0092 151.867 36.7477 152.515 36.3669 153.093V153.087Z" fill="black"/>
<path opacity="0.25" d="M6.61038 121.153C9.25901 122.272 18.9604 120.711 18.9604 120.711C18.9604 120.711 13.3104 112.677 10.6617 111.558C10.0312 111.292 9.35436 111.153 8.67 111.148C7.98563 111.144 7.30708 111.274 6.67311 111.532C6.03913 111.789 5.46213 112.169 4.97505 112.649C4.48798 113.13 4.10037 113.701 3.83435 114.331C3.56834 114.962 3.42913 115.638 3.42467 116.322C3.42021 117.005 3.5506 117.683 3.80837 118.317C4.06615 118.95 4.44628 119.527 4.92704 120.013C5.40781 120.5 5.97981 120.887 6.61038 121.153Z" fill="black"/>
<path opacity="0.25" d="M10.2948 145.539C13.1563 145.819 21.9449 141.424 21.9449 141.424C21.9449 141.424 14.1418 135.46 11.2804 135.186C10.5904 135.102 9.89059 135.157 9.22222 135.347C8.55385 135.538 7.93046 135.86 7.38884 136.296C6.84722 136.731 6.39834 137.27 6.06868 137.882C5.73902 138.493 5.53527 139.164 5.46944 139.856C5.40361 140.547 5.47704 141.245 5.6854 141.907C5.89376 142.57 6.23282 143.184 6.68258 143.713C7.13234 144.243 7.68369 144.677 8.3041 144.99C8.9245 145.303 9.6014 145.489 10.2948 145.537V145.539Z" fill="black"/>
<path opacity="0.25" d="M17.1237 168.748C19.8984 169.5 29.303 166.658 29.303 166.658C29.303 166.658 22.6198 159.46 19.8452 158.71C19.181 158.517 18.4848 158.458 17.7975 158.536C17.1101 158.615 16.4453 158.83 15.842 159.168C15.2386 159.506 14.7088 159.961 14.2836 160.506C13.8583 161.052 13.5461 161.676 13.3652 162.343C13.1843 163.011 13.1383 163.707 13.23 164.392C13.3217 165.078 13.5491 165.738 13.8991 166.334C14.249 166.93 14.7145 167.451 15.2681 167.865C15.8218 168.28 16.4527 168.58 17.1237 168.748Z" fill="black"/>
<path opacity="0.1" d="M129.772 140C124.452 139.883 118.738 140.149 114.51 142.238C106.67 146.105 107.726 153.946 102.614 159.387C98.2962 163.981 90.0451 166.367 82.0432 167.889C69.0072 170.37 55.3357 171.299 42.3893 173.965C34.757 175.538 27.1807 177.823 21.9506 181.734C16.7206 185.645 14.3743 191.478 17.9105 196.105C21.1807 200.382 28.3846 202.671 34.9446 204.887C41.5046 207.102 48.4537 210.009 50.2792 214.628C51.2956 217.199 50.5396 219.971 51.7267 222.508C54.0674 227.516 62.8336 229.88 70.7095 231.158C77.0007 232.179 83.3955 232.932 89.8407 233.396C94.9896 233.774 100.256 233.973 105.31 233.237C109.686 232.599 113.737 231.279 117.934 230.263C144.6 223.776 175.269 229.387 202.466 223.893C207.416 222.9 212.285 221.501 216.037 219.213C218.837 217.512 220.909 215.386 222.653 213.181C227.094 207.586 229.527 201.311 229.714 195.02C229.826 191.249 229.154 187.438 230.187 183.723C231.271 179.857 234.163 176.301 235.703 172.499C238.503 165.589 236.543 157.952 230.448 151.974C228.272 149.77 225.605 148.114 222.664 147.14C220.2 146.351 217.445 146.049 214.732 145.741C207.173 144.921 199.515 144.099 191.889 144.56C186.463 144.89 181.151 145.867 175.708 146.043C168.071 146.292 162.087 144.532 155.163 142.879C147.198 140.993 138.236 140.185 129.772 140Z" fill="#11A4FF"/>
<path d="M33.637 82.8101V157.636L133.277 138.297L131.373 80.9078L33.637 82.8101Z" fill="#DBACA2"/>
<path d="M220.937 171.033V195.764L115.585 226.52L114.51 225.963L31.1787 182.764V80.5105L134.307 77.1815L134.943 133.935L130.816 135.205L129.228 82.1219L38.475 85.2664L37.8423 162.154L116.853 196.715L116.915 196.701L220.937 171.033Z" fill="#E8C2B8"/>
<path opacity="0.1" d="M220.937 171.033V195.764L115.585 226.52L114.51 225.963L116.915 196.701L220.937 171.033Z" fill="black"/>
<path d="M93.9284 135.124C93.9284 135.124 42.9212 140.21 37.9683 147.576C33.0154 154.942 37.9263 163.978 37.9263 163.978L116.781 198.22L223.717 170.636C223.717 170.636 220.861 151.294 211.977 149.076C203.093 146.857 132.322 131.638 132.322 131.638C132.322 131.638 103.764 129.893 93.9284 135.124Z" fill="#EBECF0"/>
<path d="M37.9209 147.646L118.363 175.389C118.363 175.389 204.163 149.394 216.317 151.842C216.317 151.842 156.297 130.377 132.322 131.311C113.217 132.055 93.2118 135.189 93.2118 135.189C93.2118 135.189 40.144 140.515 37.9209 147.646Z" fill="#F8F9FA"/>
<path d="M161.687 165.494L161.707 165.466V165.45L161.721 165.422V165.402V165.374V165.354V165.324V165.304V165.268V165.251C161.721 165.234 161.721 165.217 161.721 165.201C161.721 165.181 161.721 165.161 161.721 165.142C161.721 165.122 161.721 165.142 161.721 165.122C161.721 165.103 161.721 165.094 161.721 165.08V165.055V165.013V164.985V164.943V164.915V164.87V164.842V164.795V164.77L161.698 164.7L161.67 164.621V164.596L161.648 164.54V164.51L161.625 164.456L161.611 164.423L161.589 164.37L161.572 164.333L161.547 164.28L161.53 164.247L161.499 164.188L161.483 164.157L161.441 164.076L161.39 163.981L161.373 163.95L161.337 163.883L161.317 163.847L161.281 163.785L161.259 163.746L161.222 163.684L161.161 163.592L161.121 163.53L161.096 163.491L161.054 163.424L161.032 163.388L160.976 163.298V163.281L160.906 163.175L160.883 163.144L160.833 163.069L160.805 163.03L160.757 162.963L160.729 162.921L160.682 162.853L160.651 162.809L160.601 162.753L160.57 162.711L160.517 162.638L160.489 162.602L160.419 162.507V162.493L160.337 162.381L160.309 162.342L160.256 162.269L160.22 162.221L160.169 162.154L160.133 162.107L160.083 162.039L160.046 161.995L159.993 161.925L159.957 161.88L159.901 161.807L159.867 161.765L159.8 161.681L159.777 161.653C159.525 161.334 159.265 161.015 159.005 160.708C158.27 159.836 157.371 159.117 156.358 158.592C155.346 158.067 154.239 157.747 153.103 157.65C152.87 157.63 152.627 157.605 152.38 157.574H152.277L152.095 157.549H152.008L151.728 157.51L151.462 157.468L151.37 157.451L151.182 157.418L151.07 157.395L150.899 157.362L150.779 157.337L150.616 157.3L150.493 157.272L150.331 157.233L150.205 157.202L150.045 157.16L149.919 157.127L149.76 157.082C148.92 155.834 147.643 154.724 146.4 154.508C146.057 154.455 145.708 154.473 145.372 154.562L145.314 154.497L145.23 154.402L145.118 154.259L145.045 154.164L144.927 153.999L144.868 153.918C144.811 153.834 144.755 153.748 144.703 153.661C144.538 153.587 144.365 153.532 144.188 153.496C146.666 153.121 149.108 152.545 151.493 151.775C151.608 151.731 151.718 151.674 151.82 151.605L151.871 151.588C153.945 150.832 156.493 143.475 154.701 142.445C152.91 141.416 150.174 132.934 148.57 128.589C146.965 124.245 142.343 123.783 142.343 123.783C142.343 123.783 135.646 118.599 132.628 119.164C129.609 119.729 129.136 115.206 128.853 115.018C128.82 114.991 128.793 114.958 128.772 114.92C128.044 113.782 122.257 112.263 119.135 111.513C116.083 109.303 112.444 107.588 109.501 106.88C108.518 106.614 107.487 106.58 106.488 106.779C105.489 106.978 104.55 107.405 103.745 108.027C97.5626 108.341 96.5771 113.007 96.5771 113.007C96.5559 113.644 96.6665 114.278 96.9019 114.87C96.5679 114.874 96.234 114.857 95.9023 114.817C96.6191 113.633 96.6415 112.112 97.1762 110.811C98.2318 108.237 101.144 106.908 103.896 106.561C105.5 106.36 107.256 106.36 108.521 105.356C109.172 104.835 109.617 104.101 109.775 103.283C109.827 103.106 109.811 102.917 109.731 102.751C109.652 102.644 109.547 102.559 109.425 102.505C107.768 101.621 105.772 101.85 103.89 101.808C100.833 101.741 97.8538 100.905 94.8972 100.13C93.6457 99.8024 92.2934 99.4863 91.0838 99.9507C89.9415 100.387 89.1631 101.428 88.2476 102.236C84.4958 105.543 78.2662 105.065 74.9289 108.791C74.1561 109.655 73.5765 110.828 73.8593 111.952C73.9741 112.411 74.2289 112.833 74.3101 113.301C74.4725 114.224 73.9461 115.108 73.5009 115.933C73.0558 116.758 72.661 117.76 73.081 118.599C73.7165 119.88 75.6568 119.785 76.6647 120.801C77.1323 121.274 77.3591 121.951 77.8463 122.401C78.6274 123.12 79.8285 123.064 80.8869 122.96C81.3041 122.921 81.9284 122.807 82.158 122.44C82.9766 123.209 83.9628 123.778 85.039 124.102C86.1151 124.426 87.2517 124.496 88.3594 124.306C89.4671 124.116 90.5155 123.672 91.4221 123.008C92.3288 122.345 93.0688 121.48 93.5841 120.482C95.8648 120.328 98.1315 120.94 100.024 122.222C100.309 123.062 100.832 123.8 101.53 124.348C102.191 124.866 102.977 125.501 103.77 126.18C101.762 126.709 99.9789 127.048 99.9789 127.048C99.9789 127.048 92.0554 129.593 92.0554 131.289C92.0835 131.596 92.1791 131.893 92.3353 132.159C92.1347 132.58 92.0214 133.038 92.0022 133.504C89.8155 133.135 88.0656 132.578 87.1613 131.759C87.1613 131.759 86.9037 131.689 86.5061 131.61C85.9742 130.931 84.4119 129.042 83.4823 129.118C82.8636 129.168 82.6424 130.606 82.564 131.893C82.4826 131.963 82.411 132.044 82.3512 132.134C81.4076 133.546 83.1071 136.375 84.2383 136.847C85.3694 137.32 91.5962 137.127 95.8407 140.241C97.7222 141.62 100.956 141.886 103.96 141.757C100.939 143.889 96.7087 147.165 96.1207 149.196C95.8043 150.273 95.432 151.61 95.4544 152.984C93.6065 155.426 90.8094 160.582 97.725 163.055C103.425 165.089 118.88 164.829 129.892 164.331C135.016 165.234 139.246 166.143 141.021 167.013C141.021 167.013 145.266 167.573 146.965 168.616C148.665 169.66 151.776 169.372 151.776 169.372C151.776 169.372 157.812 170.41 159.134 171.727C160.455 173.045 162.717 169.464 159.889 167.769C158.786 167.109 157.143 166.02 155.55 164.829C157.596 165.069 159.402 165.332 160.55 165.601L160.665 165.626H160.701H160.774H160.816H160.878H160.917H160.976H161.256H161.329H161.351H161.396H161.421H161.457H161.48H161.513H161.536L161.567 165.612H161.586L161.614 165.592H161.628L161.665 165.561L161.687 165.494ZM135.629 156.458C135.629 156.458 134.834 156.276 133.647 155.997L131.289 155.046C131.289 155.046 135.313 153.781 139.039 152.172C140.106 152.64 141.044 153.012 141.279 153.35C141.38 153.462 141.518 153.535 141.668 153.554C140.268 153.901 138.471 154.794 136.363 156.853C136.107 156.743 135.861 156.611 135.629 156.458ZM107.144 133.742L109.47 132.662C109.977 133.093 110.52 133.502 111.052 133.899C109.775 133.974 108.059 134.058 106.119 134.111C106.712 133.913 107.144 133.742 107.144 133.742Z" fill="url(#paint0_linear_38_709)"/>
<path d="M87.3181 131.941C87.3181 131.941 85.2854 129.182 84.1795 129.266C83.0736 129.35 83.2555 133.972 83.2555 133.972L87.3181 131.941Z" fill="#FFD5D8"/>
<path d="M113.452 133.787C113.452 133.787 91.8425 135.541 87.78 131.848C87.78 131.848 83.9946 130.833 83.0706 132.218C82.1467 133.602 83.8098 136.369 84.9185 136.831C86.0273 137.292 92.1225 137.11 96.2774 140.151C100.432 143.192 111.329 140.711 111.329 140.711L115.854 138.957L113.452 133.787Z" fill="#FF7C5E"/>
<path opacity="0.05" d="M113.452 133.787C113.452 133.787 91.8425 135.541 87.78 131.848C87.78 131.848 83.9946 130.833 83.0706 132.218C82.1467 133.602 83.8098 136.369 84.9185 136.831C86.0273 137.292 92.1225 137.11 96.2774 140.151C100.432 143.192 111.329 140.711 111.329 140.711L115.854 138.957L113.452 133.787Z" fill="black"/>
<path d="M144.387 144.121C144.387 144.121 139.77 140.8 130.259 144.96C120.748 149.12 97.0166 151.328 97.0166 151.328C97.0166 151.328 89.0763 159.261 98.1365 162.493C107.197 165.724 141.352 163.052 141.352 163.052C141.352 163.052 155.295 163.975 159.635 164.991C162.261 165.606 160.195 162.635 158.137 160.196C157.418 159.341 156.538 158.637 155.546 158.123C154.554 157.609 153.471 157.296 152.358 157.202C149.631 156.97 145.848 156.114 144.118 153.272C144.118 153.272 140.795 151.61 135.808 156.593L130.998 154.64C130.998 154.64 144.202 150.488 144.664 147.719C145.126 144.949 144.387 144.121 144.387 144.121Z" fill="#FFD5D8"/>
<path opacity="0.05" d="M144.387 144.121C144.387 144.121 139.77 140.8 130.259 144.96C120.748 149.12 97.0166 151.328 97.0166 151.328C97.0166 151.328 89.0763 159.261 98.1365 162.493C107.197 165.724 141.352 163.052 141.352 163.052C141.352 163.052 155.295 163.975 159.635 164.991C161.936 165.528 160.629 163.312 158.895 161.125C158.031 160.026 156.958 159.108 155.737 158.426C154.517 157.743 153.173 157.308 151.784 157.146C149.124 156.844 145.731 155.918 144.121 153.272C144.121 153.272 140.797 151.61 135.811 156.593L130.998 154.64C130.998 154.64 144.202 150.488 144.664 147.719C145.126 144.949 144.387 144.121 144.387 144.121Z" fill="black"/>
<path d="M144.479 131.02C144.479 131.02 138.661 121.788 124.903 129.82L107.264 139.611C107.264 139.611 97.4647 145.794 96.5519 148.93C95.6392 152.066 94.2421 157.418 103.848 159.449C113.454 161.48 135.8 164.062 140.509 166.37C140.509 166.37 144.664 166.929 146.327 167.939C147.99 168.949 151.036 168.678 151.036 168.678C151.036 168.678 156.947 169.693 158.24 170.986C159.534 172.278 161.749 168.77 158.98 167.111C156.211 165.452 149.931 161.021 150.02 159.278C150.11 157.535 147.895 154.455 145.762 154.08C143.628 153.705 140.868 156.847 140.868 156.847C140.868 156.847 137.359 157.407 135.234 156.008C135.234 156.008 124.337 153.515 123.229 152.779C122.12 152.044 114.549 149.182 114.549 149.182C114.549 149.182 132.468 148.997 137.726 144.199C137.726 144.199 139.759 142.722 141.419 143.184C141.433 143.198 149.651 140.062 144.479 131.02Z" fill="#FFD5D8"/>
<path d="M92.1197 113.673C92.1197 113.673 97.3834 117.363 101.446 113.673C105.508 109.983 103.204 125.022 103.204 125.022C103.204 125.022 97.571 117.547 89.1687 122.44L92.1197 113.673Z" fill="#FFD5D8"/>
<path opacity="0.05" d="M92.1197 113.673C92.1197 113.673 97.3834 117.363 101.446 113.673C105.508 109.983 103.204 125.022 103.204 125.022C103.204 125.022 97.571 117.547 89.1687 122.44L92.1197 113.673Z" fill="black"/>
<path d="M69.5895 145.321C69.5895 145.321 75.1303 140.616 78.269 140.523C79.2041 140.495 80.2848 139.544 81.3488 138.224C82.6928 136.556 84.4654 135.284 86.4771 134.545C88.4888 133.805 90.6637 133.627 92.7692 134.028C94.5555 134.358 96.7534 134.349 99.4216 133.689C109.117 131.289 104.316 125.296 104.316 125.296L101.269 122.714C101.269 122.714 97.1146 119.855 95.5439 120.04C93.9732 120.224 89.9106 124.376 89.4486 123.914C88.9867 123.453 83.3534 119.301 82.4295 118.193C81.5055 117.086 74.114 113.488 75.9619 112.472C77.8098 111.457 87.1332 107.675 85.2853 106.936C83.4374 106.198 73.4645 105.09 69.5867 109.703C65.7089 114.316 67.6464 142.644 69.5895 145.321Z" fill="#F8F9FA"/>
<path opacity="0.05" d="M69.5895 145.321C69.5895 145.321 75.1303 140.616 78.269 140.523C79.2041 140.495 80.2848 139.544 81.3488 138.224C82.6928 136.556 84.4654 135.284 86.4771 134.545C88.4888 133.805 90.6637 133.627 92.7692 134.028C94.5555 134.358 96.7534 134.349 99.4216 133.689C109.117 131.289 104.316 125.296 104.316 125.296L101.269 122.714C101.269 122.714 97.1146 119.855 95.5439 120.04C93.9732 120.224 89.9106 124.376 89.4486 123.914C88.9867 123.453 83.3534 119.301 82.4295 118.193C81.5055 117.086 74.114 113.488 75.9619 112.472C77.8098 111.457 87.1332 107.675 85.2853 106.936C83.4374 106.198 73.4645 105.09 69.5867 109.703C65.7089 114.316 67.6464 142.644 69.5895 145.321Z" fill="black"/>
<path d="M69.9593 144.675C69.9593 144.675 75.5001 139.97 78.6387 139.877C79.5738 139.849 80.6546 138.898 81.7185 137.578C83.061 135.911 84.8312 134.64 86.8401 133.901C88.8491 133.161 91.0214 132.981 93.125 133.379C94.9113 133.709 97.1091 133.7 99.7774 133.04C109.473 130.64 104.671 124.647 104.671 124.647L101.625 122.065C101.625 122.065 97.4703 119.206 95.8996 119.391C94.3289 119.575 90.2664 123.727 89.8044 123.265C89.3424 122.804 83.7092 118.652 82.7852 117.544C81.8613 116.437 74.4838 112.842 76.326 111.837C78.1683 110.833 87.5001 107.04 85.6523 106.301C83.8044 105.563 73.8314 104.455 69.9537 109.068C66.0759 113.681 68.019 141.998 69.9593 144.675Z" fill="#F8F9FA"/>
<path d="M97.0138 113.488C97.0138 113.488 98.4921 106.475 109.297 109.244C120.101 112.014 125.457 118.009 125.457 118.009L115.658 122.53L103.652 118.47C103.652 118.47 96.9242 118.552 97.0138 113.488Z" fill="#FFD5D8"/>
<path opacity="0.05" d="M116.778 111.734C116.778 111.734 127.168 113.972 128.148 115.513C128.169 115.55 128.196 115.582 128.229 115.609C128.509 115.793 128.968 120.222 131.922 119.668C134.876 119.114 141.441 124.189 141.441 124.189C141.441 124.189 145.966 124.65 147.537 128.894C149.107 133.138 151.784 141.444 153.539 142.457C155.295 143.469 152.8 150.667 150.77 151.409C148.74 152.15 141.444 153.901 140.797 152.978C140.151 152.055 134.517 151.039 134.887 148.088C135.257 145.137 137.471 142.367 135.727 140.613C133.983 138.859 132.866 134.246 130.278 133.323C127.691 132.399 123.075 132.122 120.305 133.969C117.536 135.815 114.191 135.896 114.191 135.896C114.191 135.896 108.465 132.576 107.541 130.268C106.92 128.712 103.823 126.111 101.869 124.58C101.356 124.179 100.938 123.67 100.643 123.09C100.347 122.511 100.182 121.873 100.158 121.223C100.077 118.946 100.004 115.589 100.245 115.046C100.614 114.207 105.693 109.233 105.693 109.233L116.778 111.734Z" fill="black"/>
<path d="M117.147 111.558C117.147 111.558 127.538 113.796 128.517 115.337C128.538 115.374 128.566 115.406 128.599 115.432C128.879 115.617 129.338 120.045 132.292 119.492C135.245 118.938 141.811 124.012 141.811 124.012C141.811 124.012 146.336 124.474 147.906 128.718C149.477 132.962 152.154 141.268 153.909 142.28C155.665 143.293 153.17 150.491 151.14 151.232C149.11 151.974 141.814 153.725 141.167 152.802C140.52 151.879 134.887 150.863 135.257 147.912C135.626 144.96 137.841 142.191 136.097 140.437C134.352 138.683 133.235 134.07 130.648 133.146C128.061 132.223 123.444 131.946 120.675 133.793C117.906 135.639 114.258 135.961 114.258 135.961C114.258 135.961 108.857 132.408 107.933 130.103C107.312 128.547 104.215 125.945 102.261 124.415C101.749 124.013 101.33 123.505 101.035 122.925C100.739 122.345 100.574 121.708 100.55 121.058C100.469 118.781 100.396 115.424 100.637 114.881C101.006 114.042 106.085 109.068 106.085 109.068L117.147 111.558Z" fill="#FF7C5E"/>
<path d="M93.2285 131.571C93.1361 131.664 91.5654 133.972 93.4133 135.261C93.9246 135.636 94.5152 135.888 95.1395 135.998C95.7639 136.108 96.4052 136.073 97.0139 135.896L93.2285 131.571Z" fill="#FFD5D8"/>
<path opacity="0.1" d="M102.084 111.457C102.084 111.457 104.579 106.475 109.924 107.767C115.269 109.059 123.035 113.765 124.883 118.47C126.731 123.176 117.884 128.902 117.884 128.902L107.356 133.793C107.356 133.793 104.125 135.085 103.201 134.632C102.277 134.179 97.8454 138.134 97.8454 138.134C97.8454 138.134 92.8589 133.337 92.8589 131.675C92.8589 130.013 100.617 127.504 100.617 127.504C100.617 127.504 109.857 125.75 109.759 123.998C109.759 123.998 111.329 122.152 110.498 121.598C109.666 121.044 100.754 118.414 100.754 118.414C100.754 118.414 100.432 112.565 102.084 111.457Z" fill="black"/>
<path d="M101.804 111.18C101.804 111.18 104.299 106.198 109.644 107.49C114.989 108.783 122.755 113.488 124.603 118.193C126.451 122.899 117.607 128.623 117.607 128.623L107.079 133.513C107.079 133.513 103.848 134.805 102.924 134.352C102 133.899 97.5683 137.855 97.5683 137.855C97.5683 137.855 92.5818 133.057 92.5818 131.395C92.5818 129.733 100.34 127.224 100.34 127.224C100.34 127.224 109.58 125.47 109.482 123.719C109.482 123.719 111.052 121.872 110.221 121.318C109.389 120.764 100.477 118.135 100.477 118.135C100.477 118.135 100.155 112.288 101.804 111.18Z" fill="#FF7C5E"/>
<path opacity="0.1" d="M89.9976 121.514C91.4954 120.603 93.1817 120.045 94.9281 119.883C95.4348 118.907 94.1049 117.844 94.1049 116.669C94.1049 115.684 93.7297 115.309 93.3657 114.453C92.0442 113.975 92.9514 112.747 92.9514 112.747L89.9976 121.514Z" fill="black"/>
<path d="M87.78 124.653C91.7076 124.653 94.8916 121.472 94.8916 117.547C94.8916 113.623 91.7076 110.441 87.78 110.441C83.8524 110.441 80.6685 113.623 80.6685 117.547C80.6685 121.472 83.8524 124.653 87.78 124.653Z" fill="#FFD5D8"/>
<path d="M82.4492 120.462C84.0367 119.237 86.1029 118.826 88.102 118.647C89.3507 118.535 90.6218 118.496 91.8202 118.115C92.5093 117.875 93.1779 117.579 93.8192 117.231C94.676 116.795 95.5607 116.336 96.1459 115.572C97.0586 114.38 97.0306 112.73 97.6018 111.339C98.6349 108.822 101.485 107.518 104.19 107.18C105.76 106.981 107.477 106.981 108.72 105.999C109.358 105.49 109.793 104.771 109.949 103.971C109.999 103.798 109.983 103.612 109.904 103.45C109.827 103.345 109.724 103.262 109.605 103.21C107.981 102.345 106.026 102.569 104.187 102.527C101.194 102.463 98.2765 101.64 95.3815 100.882C94.1552 100.561 92.8309 100.253 91.6494 100.706C90.5294 101.134 89.7707 102.152 88.8719 102.944C85.1986 106.184 79.1006 105.714 75.8332 109.362C75.0772 110.201 74.5089 111.356 74.786 112.456C74.9008 112.906 75.1472 113.317 75.2284 113.776C75.388 114.68 74.8728 115.547 74.4361 116.353C73.9993 117.158 73.6185 118.143 74.0245 118.963C74.6489 120.216 76.5443 120.124 77.5327 121.117C77.9918 121.578 78.2102 122.236 78.689 122.684C79.4561 123.389 80.6293 123.333 81.6652 123.243C82.2252 123.19 83.1407 123.005 82.9811 122.255C82.8467 121.584 81.9592 121.296 82.4492 120.462Z" fill="#85596B"/>
<path d="M79.9658 124.706C79.9658 124.706 84.8151 121.069 87.8613 122.261C90.9075 123.453 91.7391 124.107 93.6794 123.38C95.6196 122.653 96.4484 124.857 96.4484 124.857L84.3643 128.343L79.9658 124.706Z" fill="#F8F9FA"/>
<path opacity="0.05" d="M73.4226 131.065C73.4226 131.065 75.6401 125.344 78.3167 124.236L73.4226 131.065Z" fill="black"/>
<path opacity="0.05" d="M70.5583 129.219C70.5583 129.219 72.7758 123.498 75.4524 122.39L70.5583 129.219Z" fill="black"/>
<path opacity="0.05" d="M122.456 130.603C122.456 130.603 130.295 126.821 135.567 127.19C140.839 127.56 141.755 124.239 141.755 124.239" fill="black"/>
<path d="M88.5416 225.037C87.8892 224.43 87.2761 223.714 87.0857 222.844C86.8953 221.974 87.2677 220.928 88.102 220.606C89.0343 220.248 90.0339 220.886 90.7898 221.549C91.5458 222.212 92.4137 222.948 93.4021 222.808C92.893 222.346 92.5123 221.761 92.2969 221.109C92.0815 220.457 92.0388 219.76 92.173 219.087C92.2163 218.809 92.3344 218.548 92.5145 218.332C93.0325 217.772 93.9732 218.015 94.592 218.452C96.5519 219.851 97.1118 222.517 97.1258 224.928C97.3246 224.058 97.1566 223.152 97.1622 222.259C97.1678 221.367 97.4114 220.379 98.1646 219.898C98.6336 219.646 99.161 219.523 99.6933 219.54C100.581 219.507 101.569 219.596 102.174 220.245C102.927 221.051 102.734 222.402 102.076 223.289C101.418 224.176 100.424 224.732 99.5085 225.345C98.7735 225.783 98.1467 226.38 97.6746 227.093C97.6186 227.193 97.5727 227.298 97.5374 227.407H91.9798C90.732 226.776 89.5754 225.979 88.5416 225.037Z" fill="#11A4FF"/>
<path d="M216.922 200.097C216.489 199.744 216.173 199.268 216.017 198.732C215.9 198.189 216.132 197.54 216.65 197.333C217.23 197.112 217.851 197.512 218.33 197.921C218.809 198.329 219.338 198.791 219.954 198.704C219.637 198.417 219.401 198.053 219.267 197.648C219.133 197.242 219.106 196.809 219.19 196.39C219.217 196.217 219.29 196.055 219.402 195.92C219.724 195.576 220.31 195.725 220.696 195.996C221.922 196.858 222.264 198.514 222.272 200.022C222.395 199.482 222.292 198.917 222.295 198.363C222.297 197.809 222.449 197.193 222.919 196.897C223.211 196.74 223.539 196.662 223.871 196.673C224.431 196.653 225.036 196.709 225.414 197.112C225.881 197.613 225.761 198.452 225.352 199.003C224.943 199.554 224.325 199.901 223.756 200.282C223.299 200.554 222.91 200.926 222.617 201.37C222.582 201.431 222.554 201.496 222.533 201.563H219.058C218.283 201.173 217.565 200.68 216.922 200.097Z" fill="#11A4FF"/>
</g>
<defs>
<linearGradient id="paint0_linear_38_709" x1="117.355" y1="172.013" x2="117.355" y2="99.7157" gradientUnits="userSpaceOnUse">
<stop stop-color="#808080" stop-opacity="0.25"/>
<stop offset="0.54" stop-color="#808080" stop-opacity="0.12"/>
<stop offset="1" stop-color="#808080" stop-opacity="0.1"/>
</linearGradient>
<clipPath id="clip0_38_709">
<rect width="296" height="233.746" fill="white"/>
</clipPath>
</defs>
</svg>
